<?xml version="1.0" standalone="no"?>
<!DOCTYPE svg PUBLIC "-//W3C//DTD SVG 1.1//EN" "http://www.w3.org/Graphics/SVG/1.1/DTD/svg11.dtd" >
<svg xmlns="http://www.w3.org/2000/svg">
<metadata>
Created by FontPrep 20130207 at Mon Jan  5 16:01:18 2015
 By Adam Walzer
Copyright (C) 1996 Emigre Graphics, Designed by Zuzana Licko
</metadata>
<defs>
<font id="83f2520ca9f3dbdabeb92a0ec9292c8b" horiz-adv-x='1024' >
  <font-face 
    font-family="MrsEavesPetiteCaps"
    font-weight="400"
    font-variant="small-caps"
    font-stretch="normal"
    units-per-em="2048"
    panose-1="0 0 0 0 0 0 0 0 0 0"
    ascent="1638"
    descent="-410"
    x-height="682"
    cap-height="1229"
    bbox="-244 -547 1819 1671"
    underline-thickness="51"
    underline-position="-125"
    unicode-range="U+000D-FB02"
  />
<missing-glyph horiz-adv-x="1024" 
 />
    <glyph glyph-name=".notdef" horiz-adv-x="1024" 
 />
    <glyph glyph-name=".null" horiz-adv-x="0" 
 />
    <glyph glyph-name="nonmarkingreturn" unicode="&#xd;" horiz-adv-x="0" 
 />
    <glyph glyph-name="space" unicode=" " horiz-adv-x="477" 
 />
    <glyph glyph-name="exclam" unicode="!" horiz-adv-x="641" 
d="M203 1161q0 43 27.5 73t68.5 30t69.5 -30t28.5 -73t-7 -98t-26.5 -209t-29.5 -526h-70q-10 356 -28.5 518t-25.5 217t-7 98zM397 82q0 -41 -28.5 -69.5t-69.5 -28.5t-68.5 28.5t-27.5 69.5t27.5 69.5t68.5 28.5t69.5 -28.5t28.5 -69.5z" />
    <glyph glyph-name="quotedbl" unicode="&#x22;" horiz-adv-x="843" 
d="M496 1174q0 30 27.5 60t67.5 30t69.5 -30t29.5 -60t-10 -58.5t-36 -101t-36 -209.5h-35q-9 128 -33 205t-34 105.5t-10 58.5zM154 1174q0 30 27.5 60t68.5 30t69.5 -30t28.5 -60t-10 -58.5t-36 -101t-36 -209.5h-35q-9 128 -33 205t-34 105.5t-10 58.5z" />
    <glyph glyph-name="numbersign" unicode="#" horiz-adv-x="890" 
d="M535 643l38 227h-217l-39 -227h218zM776 643l-18 -106h-160l-41 -252h-82l43 252h-219l-41 -252h-82l43 252h-162l21 106h158l38 227h-157l18 109h158l43 250h82l-43 -250h217l43 250h82l-43 -250h162l-21 -109h-160l-39 -227h160z" />
    <glyph glyph-name="dollar" unicode="$" horiz-adv-x="1019" 
d="M266 955q0 -65 41 -110.5t135 -99.5v367q-72 -6 -124 -49t-52 -108zM725 308q0 80 -58.5 134t-150.5 99v-430q92 4 150.5 60.5t58.5 136.5zM852 331q0 -109 -98.5 -201.5t-237.5 -96.5v-203h-74v207q-180 15 -247.5 81t-76.5 103t19 58q31 20 52.5 1.5t51 -51t75.5 -67.5
t126 -47v465l-98 51q-80 41 -142.5 113.5t-62.5 178.5t86.5 186.5t216.5 84.5v205h74v-207q90 -8 149.5 -39t89 -65.5t27.5 -66.5t-32 -42t-48 5t-61 64.5t-125 61.5v-403l146 -74q92 -49 141 -121t49 -181z" />
    <glyph glyph-name="percent" unicode="%" horiz-adv-x="1562" 
d="M594 970q0 93 -41 158.5t-128 65.5t-128 -65.5t-41 -158.5t41 -160t128 -67t128 67t41 160zM1307 261q0 93 -41 159.5t-129 66.5t-128 -66.5t-40 -159.5t40 -158.5t128 -65.5t129 65.5t41 158.5zM731 970q0 -119 -89.5 -206.5t-214.5 -87.5t-216.5 87t-91.5 207t91 207
t217 87q125 0 214.5 -87.5t89.5 -206.5zM426 -37l-74 37l785 1266l73 -37zM1442 261q0 -122 -90 -208t-215.5 -86t-215.5 88t-90 206t90 206t215.5 88t215.5 -86t90 -208z" />
    <glyph glyph-name="ampersand" unicode="&#x26;" horiz-adv-x="1345" 
d="M1317 84q-87 -119 -214 -119q-128 0 -265 137q-110 -137 -306 -137q-161 0 -282 93.5t-121 261.5t93 239.5t140 102.5q-112 182 -112 307t100 210t231 85t217.5 -66.5t86.5 -175.5t-87 -174.5t-152.5 -101t-129.5 -78.5q80 -120 334 -402q41 108 33.5 196t-64.5 99.5
t-121 11.5v43h463v-43q-125 0 -160.5 -35.5t-51.5 -148.5t-48 -178q138 -164 248 -164q61 0 133 72zM316.5 475.5q-40.5 -63.5 -40.5 -166.5t78.5 -183.5t194.5 -80.5q148 0 239 109q-266 280 -374 434q-57 -49 -97.5 -112.5zM754 1036q0 60 -46 104t-106 44
q-102 0 -153.5 -58t-51.5 -128q0 -124 80 -267q148 86 190 124t64.5 79.5t22.5 101.5z" />
    <glyph glyph-name="quotesingle" unicode="'" horiz-adv-x="501" 
d="M154 1174q0 30 27.5 60t68.5 30t69.5 -30t28.5 -60t-10 -58.5t-36 -101t-36 -209.5h-35q-9 128 -33 205t-34 105.5t-10 58.5z" />
    <glyph glyph-name="parenleft" unicode="(" horiz-adv-x="733" 
d="M631 -227q-461 376 -461 830t459 833l47 -43q-148 -162 -214.5 -279t-107.5 -240.5t-41 -321t107 -385.5t256 -351z" />
    <glyph glyph-name="parenright" unicode=")" horiz-adv-x="733" 
d="M104 -227l-47 43q149 162 216 278.5t108 240.5t41 322t-109 386.5t-256 349.5l49 43q457 -381 457 -836.5t-459 -826.5z" />
    <glyph glyph-name="asterisk" unicode="*" horiz-adv-x="833" 
d="M161.5 831q22.5 0 80 4.5t137.5 45.5q-81 41 -138 45t-100 6t-60.5 53t5.5 86q20 35 60 47t66 -4t58 -76.5t127 -124.5q-3 95 -39 163t-36 98t27.5 60t67.5 30t69.5 -30t29.5 -60t-11 -49t-37 -72t-32 -142q88 59 125 122t53 71q35 23 72.5 12.5t59.5 -45.5t12 -74
t-45 -59q-16 -10 -39 -10t-81 -4t-138 -43q81 -41 138.5 -43t80 -2t48.5 -17t36 -55.5t-12 -73.5t-59 -45t-63 6t-37.5 35t-43 66.5t-109.5 97.5q6 -91 33 -143t38 -71.5t11 -49.5t-29.5 -59t-69.5 -29t-67.5 29t-27.5 59t10 49.5t36 69.5t29 143q-96 -65 -127.5 -124.5
t-57.5 -76.5t-66 -4.5t-60 47.5q-23 35 -10.5 73t47.5 58q16 10 38.5 10z" />
    <glyph glyph-name="plus" unicode="+" horiz-adv-x="937" 
d="M836 498v-90h-322v-322h-90v322h-322v90h322v321h90v-321h322z" />
    <glyph glyph-name="comma" unicode="," horiz-adv-x="641" 
d="M307 -6h-8q-41 0 -68.5 29.5t-27.5 70.5t27.5 70t68.5 29t76 -31.5t35 -81.5q0 -92 -48.5 -178.5t-140.5 -147.5l-22 25q57 59 81.5 108.5t34.5 108.5q-4 -2 -8 -2z" />
    <glyph glyph-name="hyphen" unicode="-" horiz-adv-x="937" 
d="M170 375v90h598v-90h-598z" />
    <glyph glyph-name="period" unicode="." horiz-adv-x="641" 
d="M432 91q0 -44 -35 -75.5t-82 -31.5t-79.5 31.5t-32.5 75.5t32.5 76t79.5 32t82 -32t35 -76z" />
    <glyph glyph-name="slash" unicode="/" horiz-adv-x="370" 
d="M-170 -37l-74 37l785 1266l73 -37z" />
    <glyph glyph-name="zero" unicode="0" horiz-adv-x="956" 
d="M456 1184q-72 0 -116.5 -171t-44.5 -399q0 -367 65.5 -467t138.5 -100t118 171t45 396q0 371 -67 470.5t-139 99.5zM827 614.5q0 -133.5 -27.5 -252t-74.5 -206.5t-111.5 -139.5t-136 -51.5t-135 51.5t-111 139.5t-75 206.5t-27.5 252t27.5 252t75 206.5t111 139.5
t135 51.5t136 -51.5t111.5 -139.5t74.5 -206.5t27.5 -252z" />
    <glyph glyph-name="one" unicode="1" horiz-adv-x="956" 
d="M549 283q0 -152 24.5 -188t56.5 -44t83 -8v-43h-471v43q51 0 82.5 8t56.5 44.5t25 187.5v647q0 144 -33 178.5t-71 39.5t-93 5v41l340 70v-981z" />
    <glyph glyph-name="two" unicode="2" horiz-adv-x="956" 
d="M635 934q0 98 -47 170t-152 72q-53 0 -97 -25t-81.5 -93.5t35.5 -189.5l-62 -63q-92 55 -121.5 134t-2 151.5t111 123t193.5 50.5q188 0 284.5 -101t96.5 -246t-98.5 -272t-153.5 -199l-240 -309h262q133 0 169 26.5t47.5 56.5t21.5 73h45l-49 -293h-666v49l291 408
q111 154 162 266.5t51 210.5z" />
    <glyph glyph-name="three" unicode="3" horiz-adv-x="956" 
d="M639 994q0 74 -49 128t-139 54q-41 0 -82 -23t-85 -89.5t21 -195.5l-69 -63q-82 55 -103.5 134t9 151.5t109.5 123t173 50.5q170 0 274.5 -72.5t104.5 -198.5t-75 -200t-97 -91l-82 -65q135 -31 211 -121t76 -220t-103.5 -230.5t-257.5 -100.5t-245 78t-91 150
q0 51 51 51q22 0 40 -30t29 -51t32 -45q67 -74 166 -75q100 0 151 70.5t51 212.5t-61.5 194t-112.5 64q-16 -14 -31.5 -35t-40.5 -47.5t-53 -0.5q-29 26 -8 55.5t49 53.5l74 70q164 153 164 314z" />
    <glyph glyph-name="four" unicode="4" horiz-adv-x="956" 
d="M633 326v-78q0 -152 27.5 -187.5t66.5 -44t102 -8.5v-43h-536v43q63 0 102 8.5t65.5 43t26.5 188.5v78h-411v39l520 915h37v-877q143 5 162.5 61t29.5 93l11 41h41l-17 -272h-227zM487 401v543l-307 -543h307z" />
    <glyph glyph-name="five" unicode="5" horiz-adv-x="956" 
d="M123 190q1 54 59 54q32 0 46 -32t34.5 -69t59 -68.5t120.5 -31.5q111 0 164 98.5t53 251.5q0 253 -76.5 297.5t-140.5 44.5q-195 0 -215 -203h-75l59 697h573l-22 -146h-488l-28 -356q76 92 225 92q72 0 141.5 -33.5t118.5 -91t77 -135.5t28 -210t-116.5 -258
t-266.5 -126t-240 77t-90 148z" />
    <glyph glyph-name="six" unicode="6" horiz-adv-x="956" 
d="M297 500q0 -253 58 -353t120 -100q109 0 144.5 83.5t35.5 179.5q0 176 -35.5 258.5t-139.5 82.5t-183 -94v-57zM487 733q147 0 245.5 -112t98.5 -271t-104 -272t-241 -113t-247 129.5t-110 433.5t106.5 520t292.5 216q95 0 175.5 -51t80.5 -104q0 -54 -51 -54
q-20 0 -37.5 20.5t-58 64.5t-96.5 44t-141 -47.5t-101 -487.5q80 84 188 84z" />
    <glyph glyph-name="seven" unicode="7" horiz-adv-x="956" 
d="M412 1083q-135 0 -170 -26.5t-46.5 -56t-21.5 -72.5l-10 -41h-43l59 342h674v-55l-453 -1113q-23 -57 -43 -83.5t-65 -14.5q-23 8 -42.5 37t7.5 88l487 995h-333z" />
    <glyph glyph-name="eight" unicode="8" horiz-adv-x="956" 
d="M772 985q0 -169 -221 -289q130 -74 206.5 -158.5t76.5 -225.5q0 -140 -105 -243.5t-253.5 -103.5t-251.5 99.5t-103 237.5t69.5 224.5t188.5 147.5q-82 59 -139.5 127.5t-57.5 149.5t23.5 135.5t63.5 93.5t93.5 61.5t147 22.5t178 -78t84.5 -201zM498.5 45
q76.5 0 125 76.5t48.5 178.5q0 177 -232 331q-158 -104 -157 -332q0 -162 69.5 -208t146 -46zM612 956q0 106 -21.5 147.5t-47 61t-65.5 19.5q-71 0 -103.5 -63t-32.5 -136q0 -154 150 -250q120 75 120 221z" />
    <glyph glyph-name="nine" unicode="9" horiz-adv-x="956" 
d="M659 729q0 258 -58 355.5t-119 97.5q-109 0 -145 -84t-36 -180q0 -175 35.5 -257.5t139.5 -82.5t183 94v57zM827 708q0 -154 -24.5 -282.5t-74.5 -231t-125 -166t-172 -63.5t-178 51t-81 105q0 27 14.5 40t35.5 13t39 -19.5t56.5 -63.5t108.5 -44q101 0 160.5 114.5
t70.5 418.5q-84 -84 -190 -84q-145 0 -243.5 111.5t-98.5 272t103 272.5t241 112t212.5 -87t110 -201t35.5 -268z" />
    <glyph glyph-name="colon" unicode=":" horiz-adv-x="686" 
d="M440 471q0 -41 -28.5 -69.5t-69.5 -28.5t-68.5 28.5t-27.5 69.5t27.5 69.5t68.5 28.5t69.5 -28.5t28.5 -69.5zM440 82q0 -41 -28.5 -69.5t-69.5 -28.5t-68.5 28.5t-27.5 69.5t27.5 69.5t68.5 28.5t69.5 -28.5t28.5 -69.5z" />
    <glyph glyph-name="semicolon" unicode=";" horiz-adv-x="686" 
d="M342 -16q-41 0 -68.5 28.5t-27.5 69.5t27.5 69.5t68.5 28.5t76 -31t35 -81q0 -93 -48 -179t-141 -147l-22 25q57 59 81.5 108.5t34.5 108.5h-16zM440 471q0 -41 -28.5 -69.5t-69.5 -28.5t-68.5 28.5t-27.5 69.5t27.5 69.5t68.5 28.5t69.5 -28.5t28.5 -69.5z" />
    <glyph glyph-name="less" unicode="&#x3c;" horiz-adv-x="1024" 
d="M846 102l-676 447l676 444l31 -35l-478 -409l478 -410z" />
    <glyph glyph-name="equal" unicode="=" horiz-adv-x="937" 
d="M170 272v93h598v-93h-598zM170 528v93h598v-93h-598z" />
    <glyph glyph-name="greater" unicode="&#x3e;" horiz-adv-x="1024" 
d="M180 102l-30 37l475 410l-475 409l30 35l674 -444z" />
    <glyph glyph-name="question" unicode="?" horiz-adv-x="1032" 
d="M238 1061q0 -53 88 -53q35 0 58.5 -23.5t23.5 -65.5t-37 -62.5t-66 -20.5q-58 0 -106.5 52.5t-48.5 118.5q0 115 98.5 186t260.5 71t291.5 -95t129.5 -251q0 -226 -211 -334q-94 -47 -213 -64v-192h-90v336q247 0 313 100t66 168q0 126 -94.5 196t-217.5 70t-184 -45
t-61 -92zM559 82q0 -41 -28.5 -69.5t-69.5 -28.5t-68.5 28.5t-27.5 69.5t27.5 69.5t68.5 28.5t69.5 -28.5t28.5 -69.5z" />
    <glyph glyph-name="at" unicode="@" horiz-adv-x="1449" 
d="M824 983q68 0 126 -35h115l-90 -512q-22 -123 62 -123q86 0 178 134.5t92 291.5q0 215 -138.5 339t-337.5 124q-131 0 -243.5 -52t-195.5 -139t-130 -202t-47 -242q0 -256 152.5 -408.5t382.5 -152.5t442 133l22 -39q-228 -163 -473 -163q-137 0 -258 48t-210 132
t-141 198.5t-52 254.5t57.5 271.5t155.5 229.5t229.5 154.5t265.5 56.5q257 0 420.5 -150t163.5 -389q0 -196 -90 -308.5t-158 -153.5t-130 -41t-96 32.5t-42 71.5q-35 -47 -95.5 -80t-115.5 -33t-102 30t-87.5 106.5t-15.5 240.5q28 156 140 265.5t244 109.5zM824 918
q-60 0 -98 -26t-68.5 -68t-53 -98t-39 -152t13.5 -178.5t111 -82.5q57 0 111.5 53.5t70.5 137.5l64 362q-52 52 -112 52z" />
    <glyph glyph-name="A" unicode="A" horiz-adv-x="1263" 
d="M586 995l-213 -493h428zM401 43v-43h-479v43q118 0 153.5 27.5t51.5 62.5t41 88l450 1043h27l453 -1043q25 -53 41 -88t50.5 -62.5t151.5 -27.5v-43h-567v43q129 0 163 35t-3 121l-98 227h-496l-98 -227q-37 -84 -3.5 -120t162.5 -36z" />
    <glyph glyph-name="B" unicode="B" horiz-adv-x="1224" 
d="M1126 344q0 -150 -117 -247t-323 -97h-608v43q63 0 102 8t65.5 43t26.5 189v665q0 155 -26.5 188t-65.5 41.5t-102 8.5v43h551q186 0 290.5 -86.5t104.5 -220.5q0 -80 -44 -146.5t-116 -107.5q119 -37 190.5 -125t71.5 -199zM436 692h182q117 0 171.5 66.5t54.5 163
t-54.5 164t-171.5 67.5h-182v-461zM684 76q191 0 226.5 106.5t35.5 193t-66.5 163.5t-195.5 77h-248v-303q0 -153 26.5 -187t65.5 -42t103 -8h53z" />
    <glyph glyph-name="C" unicode="C" horiz-adv-x="1417" 
d="M145 614.5q0 133.5 49.5 252t135.5 206.5t200.5 139.5t243.5 51.5q219 0 381 -174q55 44 70 116h41v-450h-41q-43 201 -157 314.5t-286 113.5q-225 0 -335.5 -173.5t-110.5 -397.5t111.5 -395t334.5 -171q172 0 286 113.5t157 312.5h41v-450h-41q-8 37 -28.5 69.5
t-41.5 46.5q-166 -174 -381 -174q-129 0 -243.5 51.5t-200.5 139.5t-135.5 206.5t-49.5 252z" />
    <glyph glyph-name="D" unicode="D" horiz-adv-x="1460" 
d="M436 313q0 -153 26.5 -187t63.5 -42t101 -8h8q270 0 377.5 157.5t107.5 449.5t-168 381t-317 89h-199v-840zM78 43q63 0 102 8t65.5 43t26.5 189v665q0 155 -26.5 188t-65.5 41.5t-102 8.5v43h555q343 0 513.5 -172.5t170.5 -442t-170.5 -442t-513.5 -172.5h-555v43z" />
    <glyph glyph-name="E" unicode="E" horiz-adv-x="1193" 
d="M78 43q63 0 102 8t65.5 43t26.5 189v665q0 155 -26.5 188t-65.5 41.5t-102 8.5v43h934l18 -271h-43l-10 41q-22 89 -65 121.5t-173 32.5h-303v-465h103q78 0 124 6t71.5 27.5t33.5 60.5t8 103h43v-469h-43q0 66 -8 103.5t-33.5 59t-72 27.5t-123.5 6h-103v-299
q0 -153 26.5 -187t65.5 -42t103 -8h176q132 0 168.5 27.5t47.5 57t21 70.5l11 41h43l-17 -272h-1003v43z" />
    <glyph glyph-name="F" unicode="F" horiz-adv-x="1097" 
d="M436 688h103q78 0 124 6t71.5 27.5t33.5 60.5t8 103h43v-469h-43q0 66 -8 103.5t-33.5 59t-72 27.5t-123.5 6h-103v-329q0 -152 26.5 -188t65.5 -44t103 -8v-43h-553v43q63 0 102 8t65.5 43t26.5 189v665q0 155 -26.5 188t-65.5 41.5t-102 8.5v43h969l16 -271h-43l-10 41
q-10 41 -21.5 70t-48 56.5t-166.5 27.5h-338v-465z" />
    <glyph glyph-name="G" unicode="G" horiz-adv-x="1484" 
d="M1266 1206v-450h-41q-41 201 -156 314.5t-289 113.5q-225 0 -335.5 -173.5t-110.5 -396.5q0 -370 172 -465.5t312 -95.5t239.5 74t99.5 207q0 66 -43 99.5t-149 33.5v41h536v-41q-63 0 -102 -8t-65.5 -43t-26.5 -189v-155q-119 0 -224.5 -37t-167 -53.5t-165.5 -16.5
t-219 51.5t-201 139.5t-135.5 206.5t-49.5 252t49.5 252t135.5 206.5t200.5 139.5t243.5 51.5q219 0 381 -174q55 44 70 116h41z" />
    <glyph glyph-name="H" unicode="H" horiz-adv-x="1566" 
d="M436 283q0 -152 26.5 -188t65.5 -44t103 -8v-43h-553v43q63 0 102 8t65.5 43t26.5 189v665q0 155 -26.5 188t-65.5 41.5t-102 8.5v43h553v-43q-129 0 -162 -42.5t-33 -195.5v-258h697v258q0 151 -35 194.5t-162 43.5v43h555v-43q-127 0 -162 -41.5t-35 -196.5v-665
q0 -154 28 -189t66.5 -43t102.5 -8v-43h-555v43q63 0 102 8t67 45t28 187v331h-697v-331z" />
    <glyph glyph-name="I" unicode="I" horiz-adv-x="708" 
d="M78 0v43q63 0 102 8t65.5 43t26.5 189v665q0 155 -26.5 188t-65.5 41.5t-102 8.5v43h553v-43q-129 0 -162 -42.5t-33 -195.5v-665q0 -152 26.5 -188t65.5 -44t103 -8v-43h-553z" />
    <glyph glyph-name="J" unicode="J" horiz-adv-x="708" 
d="M78 -395q194 0 194 282v1061q0 155 -26.5 188t-65.5 41.5t-102 8.5v43h553v-43q-129 0 -162 -42.5t-33 -195.5v-1038q0 -200 -107 -283.5t-232 -83.5t-222.5 53t-97.5 142q0 29 20.5 49t50.5 20t50 -20t20 -58t40 -81t120 -43z" />
    <glyph glyph-name="K" unicode="K" horiz-adv-x="1495" 
d="M1505 43v-43h-575v43q102 0 120.5 33t-42.5 86l-519 448l-53 -43v-284q0 -152 26.5 -188t65.5 -44t103 -8v-43h-553v43q63 0 102 8t65.5 43t26.5 189v665q0 155 -26.5 188t-65.5 41.5t-102 8.5v43h553v-43q-129 0 -162 -42.5t-33 -195.5v-286l420 358q98 84 102.5 125
t-94.5 41v43h475v-43q-116 0 -194.5 -38.5t-179.5 -127.5l-359 -307l635 -551q91 -79 167.5 -99t96.5 -20z" />
    <glyph glyph-name="L" unicode="L" horiz-adv-x="1177" 
d="M78 43q63 0 102 8t65.5 43t26.5 189v665q0 155 -26.5 188t-65.5 41.5t-102 8.5v43h553v-43q-129 0 -162 -42.5t-33 -195.5v-635q0 -153 26.5 -187t65.5 -42t103 -8h246q129 0 165.5 27.5t48 57t21.5 70.5l10 41h43l-16 -272h-1071v43z" />
    <glyph glyph-name="M" unicode="M" horiz-adv-x="1689" 
d="M348 283q0 -152 27.5 -188t66.5 -44t103 -8v-43h-467v43q63 0 102 8t65.5 43t26.5 189v665q0 155 -26.5 188t-65.5 41.5t-102 8.5v43h348l434 -998l432 998h322v-43q-127 0 -162 -41.5t-35 -196.5v-665q0 -154 28 -189t66.5 -43t102.5 -8v-43h-553v43q63 0 102 8t65.5 43
t26.5 189v667l-426 -985h-26l-455 1047v-729z" />
    <glyph glyph-name="N" unicode="N" horiz-adv-x="1484" 
d="M1153 948q0 155 -26.5 188t-65.5 41.5t-103 8.5v43h467v-43q-127 0 -161.5 -42.5t-34.5 -195.5v-983h-47l-834 1030v-712q0 -152 27.5 -188t66.5 -44t103 -8v-43h-467v43q63 0 102 8t65.5 43t26.5 189v665q0 155 -26.5 188t-65.5 41.5t-102 8.5v43h289l786 -975v694z" />
    <glyph glyph-name="O" unicode="O" horiz-adv-x="1654" 
d="M462 1010q-122 -174 -122 -397q0 -222 123.5 -394t364.5 -172q132 0 225.5 53.5t178.5 172t85 340.5t-122.5 396.5t-366.5 174.5t-366 -174zM1511 614.5q0 -133.5 -54 -252t-146 -206.5t-217 -139.5t-266.5 -51.5t-265.5 51.5t-216 139.5t-146.5 206.5t-54.5 252
t54.5 252t146.5 206.5t216 139.5t265.5 51.5t266.5 -51.5t217 -139.5t146 -206.5t54 -252z" />
    <glyph glyph-name="P" unicode="P" horiz-adv-x="1105" 
d="M616 612q126 0 193.5 76t67.5 227.5t-96.5 194.5t-164.5 43h-180v-541h180zM618 1229q206 0 323.5 -99.5t117.5 -247t-116.5 -245.5t-324.5 -98h-182v-256q0 -152 26.5 -188t65.5 -44t103 -8v-43h-553v43q63 0 102 8t65.5 43t26.5 189v665q0 155 -26.5 188t-65.5 41.5
t-102 8.5v43h540z" />
    <glyph glyph-name="Q" unicode="Q" horiz-adv-x="1654" 
d="M828 1184q-243 0 -368.5 -175t-125.5 -396t126 -393.5t368 -172.5q132 0 226.5 53.5t181.5 172.5t87 340t-87 342.5t-181.5 175t-226.5 53.5zM145 622q0 126 54.5 244.5t146.5 206.5t216 139.5t265.5 51.5t266.5 -51.5t217 -139.5t146 -206.5t54 -250.5
q0 -257 -177.5 -436.5t-436.5 -210.5q-59 -6 -136 -34.5t-136 -81.5q238 48 406 -54.5t243.5 -130.5t144.5 -28q141 0 222 48t133 150l32 -16q-76 -222 -206 -281t-223 -59t-182 50t-171 110.5t-160 110.5t-151.5 50t-111.5 -20.5t-58.5 -45t-34.5 -46t-42 -25.5t-48.5 14.5
t-20.5 46.5q0 55 96 132t224 114q-246 39 -409 221.5t-163 427.5z" />
    <glyph glyph-name="R" unicode="R" horiz-adv-x="1269" 
d="M1276 0h-338l-406 539h-96v-256q0 -152 26.5 -188t65.5 -44t103 -8v-43h-553v43q63 0 102 8t65.5 43t26.5 189v665q0 155 -26.5 188t-65.5 41.5t-102 8.5v43h540q206 0 323.5 -99.5t117.5 -240.5t-95.5 -236.5t-269.5 -113.5l201 -236q203 -241 381 -260v-43zM616 612
q126 0 193.5 76t67.5 227.5t-96.5 194.5t-164.5 43h-180v-541h180z" />
    <glyph glyph-name="S" unicode="S" horiz-adv-x="1019" 
d="M782 823q-35 359 -313 359q-86 0 -142.5 -52.5t-56.5 -130.5q0 -107 91.5 -163t156.5 -91l197 -100q119 -59 166 -142t47 -168q0 -163 -113 -266.5t-276 -103.5q-89 0 -161.5 30t-103 45t-55.5 21q-47 -41 -59 -96h-41v451h41q6 -102 49 -185q60 -127 160 -155.5
t170 -28.5q111 0 183.5 63.5t72.5 148.5t-64.5 145.5t-171.5 115.5l-197 101q-156 80 -191.5 180t-35.5 160q0 124 95.5 213.5t244.5 89.5q92 0 147.5 -25t102.5 -59q46 41 59 94h41v-451h-43z" />
    <glyph glyph-name="T" unicode="T" horiz-adv-x="1312" 
d="M1006 1149h-269v-866q0 -150 28 -187t66.5 -45t102.5 -8v-43h-555v43q63 0 102 8t66.5 44t27.5 188v866h-268q-127 0 -170.5 -31.5t-66.5 -124.5l-11 -41h-43l19 277h1243l18 -277h-43l-10 41q-22 92 -66 124t-171 32z" />
    <glyph glyph-name="U" unicode="U" horiz-adv-x="1466" 
d="M1141 948q0 151 -35 194.5t-162 43.5v43h479v-43q-127 0 -161.5 -42.5t-34.5 -195.5v-491q0 -233 -140 -362.5t-352 -129.5t-352.5 129t-140.5 363v491q0 154 -34 196t-161 42v43h553v-43q-127 0 -160.5 -41.5t-33.5 -196.5v-502q0 -188 97.5 -288.5t260.5 -100.5
q261 0 319 144.5t58 244.5v502z" />
    <glyph glyph-name="V" unicode="V" horiz-adv-x="1263" 
d="M1339 1186q-119 0 -152.5 -28t-50 -61.5t-40.5 -88.5l-451 -1043h-27l-452 1043q-25 55 -41 88.5t-50 61.5t-153 28v43h567v-43q-129 0 -162.5 -35t3.5 -121l348 -797l344 797q37 84 3 120t-163 36v43h477v-43z" />
    <glyph glyph-name="W" unicode="W" horiz-adv-x="1624" 
d="M-88 1186v43h575v-43q-124 0 -156 -33t-5 -123l223 -706l287 905h30l287 -903l223 704q25 86 -4 121t-139 35v43h461v-43q-125 0 -167.5 -34t-76.5 -144l-332 -1043h-26l-287 907l-289 -907h-29l-329 1043q-36 115 -69.5 140.5t-73.5 31.5t-103 6z" />
    <glyph glyph-name="X" unicode="X" horiz-adv-x="1257" 
d="M444 43v-43h-487v43q137 0 202.5 72.5t92.5 105.5l301 389l-268 398q-55 78 -121 128t-174 50v43h581v-43q-120 0 -139.5 -42t31.5 -114l194 -287l224 287q55 72 36.5 114t-145.5 42v43h485v-43q-150 0 -207 -68.5t-87 -109.5l-261 -336l308 -451q59 -84 123.5 -131
t171.5 -47v-43h-584v43q121 0 141 38.5t-33 117.5l-229 340l-266 -340q-80 -107 -16.5 -131.5t126.5 -24.5z" />
    <glyph glyph-name="Y" unicode="Y" horiz-adv-x="1280" 
d="M723 283q0 -154 26.5 -189t65.5 -43t103 -8v-43h-553v43q63 0 102 8t65.5 43t26.5 189v198l-340 527q-66 103 -129 140.5t-168 37.5v43h584v-43q-121 0 -141 -38.5t30 -117.5l295 -450l299 450q53 84 36 120t-146 36v43h479v-43q-165 0 -215.5 -66.5t-81.5 -111.5
l-338 -512v-213z" />
    <glyph glyph-name="Z" unicode="Z" horiz-adv-x="1177" 
d="M401 1153q-131 0 -167.5 -27.5t-48 -56.5t-21.5 -70l-10 -41h-43l18 271h872v-25l-706 -1128h461q131 0 168 27.5t48 57t21 70.5l11 41h43l-17 -272h-942v47l690 1106h-377z" />
    <glyph glyph-name="bracketleft" unicode="[" horiz-adv-x="733" 
d="M240 -180v1569h413v-66h-280v-1438h280v-65h-413z" />
    <glyph glyph-name="backslash" unicode="\" horiz-adv-x="712" 
d="M711 -37l-787 1266l74 37l786 -1266z" />
    <glyph glyph-name="bracketright" unicode="]" horiz-adv-x="733" 
d="M80 -180v65h282v1438h-282v66h416v-1569h-416z" />
    <glyph glyph-name="asciicircum" unicode="^" horiz-adv-x="993" 
d="M907 692l-37 -30l-372 372l-377 -372l-35 30l412 572z" />
    <glyph glyph-name="underscore" unicode="_" horiz-adv-x="733" 
d="M-2 -90v90h737v-90h-737z" />
    <glyph glyph-name="grave" unicode="`" horiz-adv-x="827" 
d="M41 1167q0 20 14.5 41t42.5 21t47 -12.5t45 -34.5l191 -181l-10 -12l-283 119q-12 6 -29.5 22.5t-17.5 36.5z" />
    <glyph glyph-name="a" unicode="a" horiz-adv-x="907" 
d="M420 502l-103 -219h205zM344 39v-39h-326v39q74 0 105.5 27.5t66.5 111.5l250 531h37l248 -531q38 -86 68 -112.5t96 -26.5v-39h-395v39q88 0 103 26.5t-13 88.5l-31 67h-266l-31 -67q-29 -61 -17.5 -88t105.5 -27z" />
    <glyph glyph-name="b" unicode="b" horiz-adv-x="866" 
d="M641 375q123 -57 123 -191q0 -70 -70.5 -127t-206.5 -57h-399v39q87 0 110 31.5t23 140.5v262q0 107 -18.5 132.5t-45 31.5t-69.5 6v39h367q123 0 185 -51t62 -126t-61 -130zM557 505q0 46 -26.5 81t-84.5 35h-84v-230h84q57 0 84 34t27 80zM616 196.5q0 53.5 -32.5 92.5
t-98.5 39h-123v-158q0 -68 15.5 -87.5t79.5 -19.5h28q66 0 98.5 40t32.5 93.5z" />
    <glyph glyph-name="c" unicode="c" horiz-adv-x="905" 
d="M719 72q-99 -99 -231 -99q-70 0 -142 29t-124 79t-82.5 117.5t-30.5 180.5t112.5 221.5t276.5 108.5q59 0 119.5 -27t99.5 -70q5 8 26 70h39v-281h-41q-25 115 -87 179.5t-144 64.5t-127 -28.5t-71.5 -73.5t-37 -98.5t-10.5 -138t54 -176t180 -91.5q94 0 156.5 64.5
t86.5 179.5h41v-283h-39q-14 54 -24 72z" />
    <glyph glyph-name="d" unicode="d" horiz-adv-x="980" 
d="M88 39q87 0 110 31.5t23 140.5v262q0 107 -18.5 132.5t-45 31.5t-69.5 6v39h367q209 0 314 -94.5t105 -287t-154.5 -246.5t-264.5 -54h-367v39zM657.5 540q-55.5 81 -196.5 81h-99v-445q0 -72 14.5 -92.5t69.5 -20.5h15q142 0 197 82t55 198t-55.5 197z" />
    <glyph glyph-name="e" unicode="e" horiz-adv-x="835" 
d="M475 621h-113v-230q119 0 141.5 16.5t27 41t4.5 63.5h38v-305h-38q0 82 -28 101.5t-145 19.5v-95q0 -108 18.5 -132.5t43.5 -31t63 -6.5h29q100 0 130 15.5t40 34t16 43.5l11 37h30l-12 -193h-643v39q87 0 110 31.5t23 140.5v262q0 107 -18.5 132.5t-45 31.5t-69.5 6v39
h602l15 -193h-33l-10 39q-13 55 -50 74t-137 19z" />
    <glyph glyph-name="f" unicode="f" horiz-adv-x="774" 
d="M362 211q0 -107 18.5 -133.5t45.5 -32.5t70 -6v-39h-408v39q87 0 110 31.5t23 140.5v262q0 107 -18.5 132.5t-45 31.5t-69.5 6v39h625l16 -193h-35l-10 39q-13 56 -48.5 74.5t-137.5 18.5h-136v-230q119 0 141.5 16.5t27 41t4.5 63.5h38v-305h-38q0 82 -28 101.5
t-145 19.5v-117z" />
    <glyph glyph-name="g" unicode="g" horiz-adv-x="980" 
d="M782 682v-281h-41q-25 115 -87 179.5t-144 64.5t-127 -28.5t-71.5 -73.5t-37 -98.5t-10.5 -138t54 -176t180 -91.5q78 0 134 29.5t56 91.5t-27.5 84t-101.5 22v39h387v-39q-87 0 -110 -31.5t-23 -138.5v-61q-47 0 -158 -31t-174 -31t-135 29t-124 79t-82.5 117.5
t-30.5 180.5t112.5 221.5t276.5 108.5q59 0 119.5 -27t99.5 -70q5 8 26 70h39z" />
    <glyph glyph-name="h" unicode="h" horiz-adv-x="1085" 
d="M362 211q0 -107 18.5 -133.5t45.5 -32.5t70 -6v-39h-408v39q87 0 110 31.5t23 140.5v262q0 107 -18.5 132.5t-45 31.5t-69.5 6v39h408v-39q-89 0 -111.5 -32.5t-22.5 -137.5v-80h361v80q0 108 -19.5 133t-45 31t-68.5 6v39h405v-39q-87 0 -110 -31.5t-23 -138.5v-262
q0 -109 18.5 -134.5t45 -31.5t69.5 -6v-39h-405v39q85 0 109 31t24 141v119h-361v-119z" />
    <glyph glyph-name="i" unicode="i" horiz-adv-x="585" 
d="M88 0v39q87 0 110 31.5t23 140.5v262q0 107 -18.5 132.5t-45 31.5t-69.5 6v39h408v-39q-89 0 -111.5 -32.5t-22.5 -137.5v-262q0 -107 18.5 -133.5t45.5 -32.5t70 -6v-39h-408z" />
    <glyph glyph-name="j" unicode="j" horiz-adv-x="585" 
d="M221 473q0 107 -18.5 132.5t-45 31.5t-69.5 6v39h408v-39q-89 0 -111.5 -32.5t-22.5 -137.5v-426q0 -148 -75.5 -222.5t-166.5 -74.5q-90 0 -136.5 28.5t-66 63.5t-11.5 63.5t45 30.5t50 -16t22.5 -40.5t27 -42t52.5 -19.5t76.5 22t41.5 207v426z" />
    <glyph glyph-name="k" unicode="k" horiz-adv-x="1003" 
d="M496 643q-89 0 -111.5 -32.5t-22.5 -137.5v-90l189 149q84 63 86 87t-68 24v39h334v-39q-66 0 -122 -30t-156 -111l-136 -107l265 -213q149 -118 185 -130.5t60 -12.5v-39h-411v39q142 -4 8 111l-201 172l-33 -27v-84q0 -107 18.5 -133.5t45.5 -32.5t70 -6v-39h-408v39
q87 0 110 31.5t23 140.5v262q0 107 -18.5 132.5t-45 31.5t-69.5 6v39h408v-39z" />
    <glyph glyph-name="l" unicode="l" horiz-adv-x="786" 
d="M362 233q0 -108 18.5 -132.5t43.5 -31t63 -6.5h72q102 0 132 15.5t39 34t15 43.5l11 37h32l-14 -193h-686v39q87 0 110 31.5t23 140.5v262q0 107 -18.5 132.5t-45 31.5t-69.5 6v39h408v-39q-89 0 -111.5 -32.5t-22.5 -137.5v-240z" />
    <glyph glyph-name="m" unicode="m" horiz-adv-x="1167" 
d="M686 0v39q87 0 110 31.5t23 140.5v299l-250 -537h-34l-248 533v-295q0 -109 18.5 -134.5t45 -31.5t69.5 -6v-39h-330v39q87 0 110 31.5t23 140.5v262q0 107 -18.5 132.5t-45 31.5t-69.5 6v39h252l244 -522l243 522h248v-39q-87 0 -110 -31.5t-23 -138.5v-262
q0 -109 18.5 -134.5t45 -31.5t69.5 -6v-39h-391z" />
    <glyph glyph-name="n" unicode="n" horiz-adv-x="1030" 
d="M940 643q-87 0 -110 -31.5t-23 -138.5v-498h-43l-477 519v-283q0 -109 18.5 -134.5t45 -31.5t69.5 -6v-39h-330v39q87 0 110 31.5t23 140.5v262q0 107 -18.5 132.5t-45 31.5t-69.5 6v39h203l450 -487v278q0 107 -18 132.5t-45 31.5t-70 6v39h330v-39z" />
    <glyph glyph-name="o" unicode="o" horiz-adv-x="1038" 
d="M711.5 553.5q-62.5 91.5 -192.5 91.5t-192.5 -92.5t-62.5 -210.5t62 -210.5t193 -92.5q130 0 192.5 91.5t62.5 211.5t-62.5 211.5zM928 342q0 -76 -33 -143.5t-88 -117.5t-130 -79t-159 -29t-158.5 29t-130 79t-88 117.5t-32.5 143.5t32.5 142.5t88 116.5t130 79
t158.5 29t159 -29t130 -79t88 -116.5t33 -142.5z" />
    <glyph glyph-name="p" unicode="p" horiz-adv-x="772" 
d="M362 211q0 -107 18.5 -133.5t45.5 -32.5t70 -6v-39h-408v39q87 0 110 31.5t23 140.5v262q0 107 -18.5 132.5t-45 31.5t-69.5 6v39h358q135 0 206 -56.5t71 -140.5t-70.5 -142t-206.5 -58h-84v-74zM578 484q0 54 -32 95.5t-100 41.5h-84v-273h84q68 0 100 41t32 95z" />
    <glyph glyph-name="q" unicode="q" horiz-adv-x="1054" 
d="M848 -186q150 0 215 110l39 -20q-55 -138 -137.5 -171.5t-138.5 -33.5t-107 28.5t-98.5 62.5t-93.5 62.5t-89 28.5t-64.5 -13t-32.5 -28.5t-19 -29t-30 -16.5t-39 13.5t-17 34.5q0 35 55 79t121 67q-129 31 -216 128.5t-87 236.5t120 247.5t289.5 108.5t289.5 -109
t120 -252t-102.5 -248t-256.5 -125q-68 -7 -123 -34q61 0 113.5 -20.5t100 -44t92.5 -43t96 -19.5zM711.5 553.5q-62.5 91.5 -192.5 91.5t-192.5 -92.5t-62.5 -210.5t62 -210.5t193 -92.5q130 0 192.5 91.5t62.5 211.5t-62.5 211.5z" />
    <glyph glyph-name="r" unicode="r" horiz-adv-x="858" 
d="M362 285v-74q0 -107 18.5 -133.5t45.5 -32.5t70 -6v-39h-408v39q87 0 110 31.5t23 140.5v262q0 107 -18.5 132.5t-45 31.5t-69.5 6v39h361q135 0 205.5 -56.5t70.5 -133.5t-49 -131t-146 -70l95 -103q61 -68 112 -103.5t117 -45.5v-39h-229l-228 285h-35zM580 484
q0 54 -32 95.5t-102 41.5h-84v-273h84q70 0 102 41t32 95z" />
    <glyph glyph-name="s" unicode="s" horiz-adv-x="712" 
d="M563 709v-242h-43q-10 72 -52 124t-124 52q-43 0 -77 -22.5t-34 -62.5t34 -65.5t108 -60.5l112 -55q74 -35 106 -86t32 -99q0 -96 -73 -157.5t-177 -61.5q-61 0 -111.5 25t-73.5 45q-24 -24 -32 -70h-39v283h41q12 -102 75.5 -158.5t155.5 -56.5q49 0 84 25.5t35 69.5
q0 78 -131 136l-117 56q-61 29 -102 79.5t-41 120.5t61.5 124.5t157.5 54.5t160 -54q17 13 26 56h39z" />
    <glyph glyph-name="t" unicode="t" horiz-adv-x="825" 
d="M252 621q-102 0 -132 -15.5t-39 -34t-15 -43.5l-11 -39h-35l17 193h754l14 -193h-33l-10 39q-13 56 -49 74.5t-138 18.5h-92v-410q0 -107 18.5 -133.5t45 -32.5t69.5 -6v-39h-405v39q85 0 109 31t24 141v410h-92z" />
    <glyph glyph-name="u" unicode="u" horiz-adv-x="999" 
d="M938 643q-87 0 -110 -31.5t-23 -138.5v-201q0 -147 -84 -222t-214 -75t-220 77.5t-90 219.5v201q0 105 -18.5 131.5t-45.5 32.5t-70 6v39h404v-39q-85 0 -109 -31t-24 -139v-211q0 -102 54 -151.5t140 -49.5t142.5 49.5t56.5 151.5v211q0 111 -18.5 134.5t-44 29.5
t-68.5 6v39h342v-39z" />
    <glyph glyph-name="v" unicode="v" horiz-adv-x="907" 
d="M895 643q-77 0 -107 -26.5t-65 -110.5l-250 -533h-37l-248 533q-36 83 -67 110t-96 27v39h395v-39q-88 0 -103.5 -26.5t13.5 -88.5l164 -348l163 348q29 63 19 89t-107 26v39h326v-39z" />
    <glyph glyph-name="w" unicode="w" horiz-adv-x="1169" 
d="M1149 643q-77 0 -104 -22.5t-40.5 -49t-27.5 -65.5l-193 -533h-36l-168 473l-174 -473h-35l-189 533q-27 79 -58 108t-106 29v39h390v-39q-74 0 -93.5 -24.5t2.5 -90.5l109 -301l168 455h47l162 -459l110 305q23 63 6.5 89t-94.5 26v39h324v-39z" />
    <glyph glyph-name="x" unicode="x" horiz-adv-x="905" 
d="M365 39v-39h-324v39q59 0 102 33.5t109 107.5l135 152l-131 172q-62 83 -100 111t-105 28v39h395v-39q-78 0 -84 -27.5t37 -85.5l78 -100l88 100q55 61 43 87t-88 26v39h326v-39q-63 0 -102 -29.5t-111 -109.5l-115 -129l152 -195q71 -89 108.5 -115t95.5 -26v-39h-395
v39q76 0 84 24.5t-39 88.5l-94 122l-111 -122q-47 -53 -36.5 -83t82.5 -30z" />
    <glyph glyph-name="y" unicode="y" horiz-adv-x="856" 
d="M879 643q-68 0 -108 -28.5t-99 -110.5l-164 -223v-70q0 -110 19.5 -135t45 -31t68.5 -6v-39h-405v39q88 0 110.5 32.5t22.5 139.5v68l-164 225q-61 86 -97.5 112.5t-101.5 26.5v39h393v-39q-78 0 -87 -25.5t36 -87.5l129 -174l127 174q47 63 38 88t-87 25v39h324v-39z
" />
    <glyph glyph-name="z" unicode="z" horiz-adv-x="792" 
d="M102 0v47l394 574h-154q-102 0 -132 -15.5t-39 -34t-15 -43.5l-11 -39h-32l14 193h551v-41l-395 -578h196q102 0 132 15.5t39 34t16 43.5l10 37h33l-15 -193h-592z" />
    <glyph glyph-name="braceleft" unicode="{" horiz-adv-x="733" 
d="M283 978q0 110 31.5 180.5t83 120.5t116 86t131.5 75l35 -43q-57 -39 -155.5 -115.5t-98.5 -273.5q0 -232 -47 -304t-166 -98q119 -26 166 -98t47 -256t51 -254t98.5 -106.5t104.5 -75.5l-35 -43q-68 39 -215 120.5t-147 339.5q0 198 -40 253t-76 72t-81 32v33
q45 16 81 32.5t61.5 51t40 98t14.5 173.5z" />
    <glyph glyph-name="bar" unicode="|" horiz-adv-x="956" 
d="M549 283q0 -152 24.5 -188t56.5 -44t83 -8v-43h-471v43q51 0 82.5 8t56.5 44.5t25 187.5v647q0 144 -33 178.5t-71 39.5t-93 5v41l340 70v-981z" />
    <glyph glyph-name="braceright" unicode="}" horiz-adv-x="733" 
d="M453 234q0 -110 -32 -180t-83 -120.5t-116.5 -86t-133.5 -74.5l-33 43q59 39 155.5 114.5t96.5 274.5q0 231 47 303t166 98q-119 26 -166 98t-47 255t-59.5 267t-192.5 171l33 43q68 -39 216.5 -120.5t148.5 -340.5q0 -203 38.5 -255t75.5 -68.5t82 -32.5v-33
q-45 -14 -82 -31.5t-62.5 -52.5t-38.5 -98.5t-13 -173.5z" />
    <glyph glyph-name="asciitilde" unicode="~" horiz-adv-x="866" 
d="M610 528q84 0 119 129h43q0 -129 -51 -199.5t-137 -70.5q-37 0 -82 23.5t-92.5 52.5t-89 52.5t-75.5 23.5t-67 -39t-45 -88h-43q0 119 52.5 191.5t117.5 72.5t146 -50.5t124 -74t80 -23.5z" />
    <glyph glyph-name="nonbreakingspace" unicode="&#xa0;" horiz-adv-x="477" 
 />
    <glyph glyph-name="exclamdown" unicode="&#xa1;" 
d="M162 0v47q80 0 101.5 31t21.5 141v236q0 104 -29 130.5t-119 26.5v45l269 56v-494q0 -109 18 -134.5t41.5 -31.5t62.5 -6v-47h-366z" />
    <glyph glyph-name="cent" unicode="&#xa2;" 
d="M328 268v250l-189 -250h189zM451 197q0 -97 17 -118.5t40.5 -26.5t60.5 -5v-47h-364v47q78 0 100.5 28.5t22.5 121.5h-297v36l366 490h54v-455q43 2 68.5 22.5t41.5 86.5l8 37h45l-12 -217h-151z" />
    <glyph glyph-name="sterling" unicode="&#xa3;" 
d="M602 220q0 -106 -76.5 -176.5t-186.5 -70.5t-175.5 50t-65.5 93q0 44 43 44q20 0 31.5 -18.5t43 -60.5t112.5 -42q82 0 117.5 50.5t35.5 110.5t-32.5 105t-90.5 55q-6 -6 -13 -17t-21 -30q-16 -37 -46 -37q-29 0 -40 25t16 53l215 226h-188q-115 0 -134 -80l-10 -37h-49
l41 219h459v-53l-170 -203q84 -25 134 -85.5t50 -120.5z" />
    <glyph glyph-name="currency" unicode="&#xa4;" 
d="M86 547v47l283 252q53 49 72.5 89t19.5 98t-39.5 97t-91.5 39q-96 0 -135 -68t22 -155l-57 -53q-63 43 -81 104.5t4.5 117.5t83.5 95t131 39q128 0 205 -58.5t77 -143.5t-41 -137t-86 -93l-191 -166h340l-20 -104h-496z" />
    <glyph glyph-name="yen" unicode="&#xa5;" horiz-adv-x="1280" 
d="M723 385h250v-90h-250v-12q0 -154 26.5 -189t65.5 -43t103 -8v-43h-553v43q63 0 102 8t65.5 43t26.5 189v12h-307v90h307v94h-307v90h250l-283 439q-66 103 -129 140.5t-168 37.5v43h584v-43q-121 0 -141 -38.5t30 -117.5l295 -450l299 450q53 84 36 120t-146 36v43h479
v-43q-165 0 -215.5 -66.5t-81.5 -111.5l-289 -439h201v-90h-250v-94z" />
    <glyph glyph-name="brokenbar" unicode="&#xa6;" horiz-adv-x="432" 
d="M262 0h-92v614h92v-614zM262 836h-92v614h92v-614z" />
    <glyph glyph-name="section" unicode="&#xa7;" 
d="M254 99.5q47 -62.5 105 -62.5t91 49.5t33 109.5q0 59 -37.5 109.5t-93.5 50.5q-55 0 -94 -21.5t-53 -55.5q2 -117 49 -179.5zM333 418q118 0 194.5 -65.5t76.5 -155.5t-70.5 -157t-171.5 -67t-187.5 74t-86.5 244t79 295t208 125q86 0 137 -38t51 -73q0 -16 -12.5 -25.5
t-26.5 -9.5t-52 38t-86 38q-144 0 -177 -266q60 43 124 43z" />
    <glyph glyph-name="dieresis" unicode="&#xa8;" horiz-adv-x="634" 
d="M484 1356q34 0 57.5 -23.5t23.5 -57.5t-23.5 -57.5t-57.5 -23.5t-56 23.5t-22 57.5t22 57.5t56 23.5zM145.5 1356q34.5 0 57 -23.5t22.5 -57.5t-22.5 -57.5t-57 -23.5t-57 23.5t-22.5 57.5t22.5 57.5t57 23.5z" />
    <glyph glyph-name="copyright" unicode="&#xa9;" horiz-adv-x="1398" 
d="M1036 1014v-320h-37q-27 129 -97.5 205t-162.5 76t-145 -35t-86 -87t-47.5 -115.5t-14.5 -163t68.5 -210t210.5 -110.5q106 0 177 77t97 206h37v-322h-35q-10 68 -32 90q-41 -51 -108.5 -86t-144.5 -35t-152 34t-132 92.5t-90 137t-33 211.5t122.5 259t293.5 126
q68 0 135.5 -34.5t108.5 -85.5q20 20 32 90h35zM700.5 1198q-120.5 0 -227 -46t-185.5 -125t-125 -185.5t-46 -227t46 -227t125 -185.5t185.5 -125t227 -46t227 46t185.5 125t125 185.5t46 227t-46 227t-125 185.5t-185.5 125t-227 46zM700.5 1264q135.5 0 253 -51.5
t204.5 -139.5t138.5 -205.5t51.5 -253t-51.5 -253t-138.5 -205.5t-204.5 -139.5t-253 -51.5t-253 51.5t-205.5 139.5t-139.5 205.5t-51.5 253t51.5 253t139.5 205.5t205.5 139.5t253 51.5z" />
    <glyph glyph-name="ordfeminine" unicode="&#xaa;" 
d="M242.5 376.5q37.5 -50.5 93.5 -50.5q55 0 94 22.5t53 57.5q-2 117 -49 178t-105 61t-91 -48t-33 -109t37.5 -111.5zM356 264q-63 0 -111 17.5t-83 48t-56.5 71.5t-21.5 107.5t70.5 133.5t171.5 67t187.5 -74t86.5 -243t-79 -294t-208 -125q-86 0 -137 37t-51 72
q0 16 12.5 26.5t26.5 10.5t26.5 -12.5t41 -39t73.5 -26.5q81 0 120.5 76.5t53.5 189.5q-60 -43 -123 -43z" />
    <glyph glyph-name="guillemotleft" unicode="&#xab;" horiz-adv-x="1366" 
d="M1163 209l-563 340l563 338l23 -39l-357 -299l357 -299zM846 102l-676 447l676 444l31 -35l-478 -409l478 -410z" />
    <glyph glyph-name="logicalnot" unicode="&#xac;" horiz-adv-x="1167" 
d="M940 252h-90v262h-680v90h770v-352z" />
    <glyph glyph-name="registered" unicode="&#xae;" horiz-adv-x="1398" 
d="M1284 614q0 242 -125 367t-231.5 171t-227 46t-227 -46t-185.5 -125t-125 -185.5t-46 -227t46 -227t125 -185.5t185.5 -125t228.5 -46t233.5 49t190.5 135h-204l-256 344h-64v-92q0 -137 21.5 -168t50 -39t74.5 -8v-37h-414v37q93 0 120 39t27 176v295q0 134 -21.5 167.5
t-50 40.5t-75.5 7v37h399q129 0 203 -66t74 -158t-59.5 -153.5t-164.5 -75.5l117 -135q55 -68 125 -121t129 -53q127 164 127 362zM877 784.5q0 65.5 -38 113.5t-116 48h-121v-321h121q78 0 116 47t38 112.5zM700.5 1264q135.5 0 253 -51.5t204.5 -139.5t138.5 -205.5
t51.5 -253t-51.5 -253t-138.5 -205.5t-204.5 -139.5t-253 -51.5t-253 51.5t-205.5 139.5t-139.5 205.5t-51.5 253t51.5 253t139.5 205.5t205.5 139.5t253 51.5z" />
    <glyph glyph-name="macron" unicode="&#xaf;" horiz-adv-x="528" 
d="M45 1272v47h371v-47h-371z" />
    <glyph glyph-name="degree" unicode="&#xb0;" 
d="M193 715q0 -47 40.5 -90t111.5 -43t111 43t40 82t-17.5 61.5t-48 44.5t-123.5 64q-114 -61 -114 -162zM457 1090q0 39 -32 71.5t-80 32.5t-81 -28.5t-33 -73.5t43 -75t88 -52q95 46 95 125zM240 913q-123 76 -123 156t66.5 133t160.5 53t161.5 -45.5t67.5 -110.5
q0 -108 -139 -169q68 -31 122 -75t54 -128t-78 -145.5t-187 -61.5q-108 0 -186.5 58t-78.5 145q0 128 160 190z" />
    <glyph glyph-name="plusminus" unicode="&#xb1;" horiz-adv-x="937" 
d="M836 549v-90h-322v-289h-90v289h-322v90h322v287h90v-287h322zM836 -2h-734v90h734v-90z" />
    <glyph glyph-name="twosuperior" unicode="&#xb2;" 
d="M96 588v45l271 244q53 47 71.5 84t18.5 95t-37.5 94t-87.5 36q-91 0 -129 -65t18 -150l-53 -51q-61 43 -77.5 101t5 112.5t79 92.5t125.5 38q119 0 195 -54.5t76 -137.5t-39.5 -135t-82.5 -89l-183 -162h326l-19 -98h-477z" />
    <glyph glyph-name="threesuperior" unicode="&#xb3;" 
d="M592 786q0 -58 -19.5 -97.5t-54.5 -70t-83 -48t-126 -17.5t-139 46.5t-61 89.5q0 42 41 42q18 0 29 -18.5t41.5 -58.5t108.5 -40q77 0 111.5 50.5t34.5 106.5t-32.5 99t-86.5 54q-10 -10 -30 -45t-48 -35t-38.5 22.5t16.5 51.5l203 212h-176q-47 0 -83 -15t-46 -62
l-11 -35h-45l37 211h443v-47l-162 -193q78 -27 127 -86t49 -117z" />
    <glyph glyph-name="acute" unicode="&#xb4;" horiz-adv-x="464" 
d="M340 1355.5q14 -20.5 14 -46.5t-47 -54l-280 -120l-11 14l191 178q27 23 45 36t46 13t42 -20.5z" />
    <glyph glyph-name="mu" unicode="&#xb5;" horiz-adv-x="1069" 
d="M447 -35q-53 0 -101 19v-84q0 -151 23.5 -187.5t55.5 -44.5t83 -8v-43h-469v43q51 0 83 8t55.5 45.5t23.5 186.5v501q0 149 -23.5 186.5t-55.5 45.5t-83 8v41h307v-399q0 -100 37 -160t135 -60q54 0 129.5 58t75.5 145v135q0 152 -24.5 188t-56.5 44t-83 8v41h307v-383
q0 -151 24.5 -187t56.5 -44.5t83 -8.5v-43l-274 -51q-20 40 -33 131q-72 -80 -147.5 -105.5t-128.5 -25.5z" />
    <glyph glyph-name="paragraph" unicode="&#xb6;" 
d="M260 580q-113 0 -133 -80l-8 -37h-51l41 219h518v-49l-295 -590q-20 -39 -40 -59.5t-47 -12.5t-44 35t16 76l315 498h-272z" />
    <glyph glyph-name="periodcentered" unicode="&#xb7;" 
d="M243 923q38 -51 93 -51t94 21.5t53 56.5q-2 117 -49 179.5t-105 62.5t-91 -49.5t-33 -109t38 -110.5zM356 811q-63 0 -111 17.5t-83 47t-56.5 70.5t-21.5 108.5t70 134t176 66.5q169 0 219.5 -112.5t50.5 -200.5q0 -174 -79 -299t-208 -125q-86 0 -137 38t-51 73
q0 16 12.5 25.5t26.5 9.5t52 -38t86 -38q84 0 123.5 77.5t53.5 188.5q-60 -43 -123 -43z" />
    <glyph glyph-name="cedilla" unicode="&#xb8;" horiz-adv-x="446" 
d="M109 -412q174 58 174 148q0 55 -47.5 70.5t-85 15.5t-74.5 -12v28l221 219h92l-153 -155q61 0 100 -30t55.5 -59.5t16.5 -77.5t-38 -87t-109.5 -73.5t-151.5 -41.5v55z" />
    <glyph glyph-name="onesuperior" unicode="&#xb9;" 
d="M168 588v43q76 0 96.5 30t20.5 136v225q0 101 -28.5 127.5t-113.5 26.5v43l260 53v-475q0 -106 16.5 -130t39 -30t59.5 -6v-43h-350z" />
    <glyph glyph-name="ordmasculine" unicode="&#xba;" 
d="M487 342q0 61 -8 116.5t-25.5 96.5t-45 65.5t-64.5 24.5t-64.5 -24.5t-45 -65.5t-25.5 -96.5t-8 -116.5t8 -116.5t25.5 -97.5t45 -66.5t64.5 -24.5t64.5 24.5t45 66.5t25.5 97.5t8 116.5zM612 342q0 -76 -21.5 -143.5t-57 -117.5t-85 -79t-104.5 -29t-104.5 29t-85 79
t-57 117.5t-21.5 143.5t21.5 142.5t57 116.5t85 80t104.5 30t104.5 -30t85 -80t57 -116.5t21.5 -142.5z" />
    <glyph glyph-name="guillemotright" unicode="&#xbb;" horiz-adv-x="1366" 
d="M203 209l-23 41l357 299l-357 299l23 39l561 -338zM520 102l-31 37l478 410l-478 409l31 35l674 -444z" />
    <glyph glyph-name="onequarter" unicode="&#xbc;" horiz-adv-x="1746" 
d="M201 588v43q78 0 98 29.5t20 136.5v225q0 102 -28.5 128t-112.5 26v43l258 53v-475q0 -109 17.5 -131.5t40 -28.5t59.5 -6v-43h-352zM1319 258v242l-182 -242h182zM1438 190q0 -91 16 -113t39 -27t59 -5v-45h-350v45q74 0 95.5 26.5t21.5 118.5h-285v35l355 469h49v-436
q41 2 65.5 21.5t40.5 85.5l8 32h43l-12 -207h-145zM518 -37l-74 37l785 1266l74 -37z" />
    <glyph glyph-name="onehalf" unicode="&#xbd;" horiz-adv-x="1746" 
d="M201 588v43q78 0 98 29.5t20 136.5v225q0 102 -28.5 128t-112.5 26v43l258 53v-475q0 -109 17.5 -131.5t40 -28.5t59.5 -6v-43h-352zM1462 457q0 143 -145 143q-71 0 -108 -64t20 -151l-55 -51q-61 43 -78 101.5t4.5 111.5t80.5 91t127 38q122 0 196.5 -55t74.5 -138
q0 -82 -41 -133t-82 -88l-182 -164h325l-18 -98h-479v47l272 242q88 73 88 168zM518 -37l-74 37l785 1266l74 -37z" />
    <glyph glyph-name="threequarters" unicode="&#xbe;" horiz-adv-x="1746" 
d="M627 786q0 -104 -74.5 -168.5t-180.5 -64.5t-168.5 47t-62.5 89t41 42q18 0 29.5 -18.5t42 -58.5t109.5 -40q78 0 111.5 50.5t33.5 106.5t-32 99t-85 54q-10 -10 -31 -45q-22 -35 -48 -35t-37 22.5t16 51.5l203 212h-179q-45 0 -80.5 -15t-46.5 -62l-10 -35h-47l39 211
h440v-47l-161 -193q78 -27 128 -86t50 -117zM1303 258v242l-183 -242h183zM1419 190q0 -87 17.5 -111t40 -29t59.5 -5v-45h-352v45q76 0 97.5 27t21.5 118h-285v35l352 469h49v-436q43 2 67.5 21.5t41.5 85.5l8 32h43l-12 -207h-148zM518 -37l-74 37l785 1266l74 -37z" />
    <glyph glyph-name="questiondown" unicode="&#xbf;" horiz-adv-x="1032" 
d="M848 -180q0 53 -88 53q-35 0 -58.5 23.5t-23.5 52.5q0 50 47.5 82t107.5 1.5t81.5 -81.5t21.5 -97q0 -97 -99 -167t-261 -70t-291 94t-129 252q0 225 213 334q92 47 211 63v193h92v-336q-248 0 -313.5 -99.5t-65.5 -168.5q0 -128 92 -197t216 -69t185.5 45t61.5 92z
M721 799q0 -41 -27.5 -70t-68.5 -29t-70 29t-29 70t29 69.5t70 28.5t68.5 -28.5t27.5 -69.5z" />
    <glyph glyph-name="Agrave" unicode="&#xc0;" horiz-adv-x="1263" 
d="M586 995l-213 -493h428zM401 43v-43h-479v43q121 0 164 36q25 19 41 54t41 88l450 1043h27l453 -1043q25 -53 41 -88q29 -64 102 -82q37 -8 100 -8v-43h-567v43q129 0 163 35t-3 121l-98 227h-496l-98 -227q-37 -84 -3 -120t162 -36zM409 1622q28 0 47 -12t46 -35
l190 -180l-10 -13l-283 119q-12 6 -29 23q-36 34 -4 78q14 20 43 20z" />
    <glyph glyph-name="Aacute" unicode="&#xc1;" 
d="M510.5 623q-79.5 -70 -185.5 -70t-164.5 45.5t-58.5 91.5q0 16 10.5 28.5t30.5 12.5t30.5 -18.5t37 -59.5t103.5 -41t117 55.5t40 121t-35 117.5t-92 52t-97 -30.5t-57 -83.5h-67l37 385h399l-20 -99h-316l-14 -161q16 18 54 36.5t86 18.5t92 -18.5t96.5 -68.5t52.5 -147
t-79.5 -167z" />
    <glyph glyph-name="Acircumflex" unicode="&#xc2;" horiz-adv-x="587" 
d="M283 772q69 92 169 92q56 0 81.5 -37t25.5 -63t-14.5 -50t-44.5 -24t-48 17.5t-18 42.5q0 43 -39 43q-31 0 -69.5 -45t-38.5 -123v-80q0 -107 16 -130.5t40 -29.5t60 -6v-45h-352v45q75 0 93 23.5t22 56.5t4 86v73q0 106 -17.5 130t-41 30t-60.5 6v41l211 41
q14 -47 21 -94z" />
    <glyph glyph-name="Atilde" unicode="&#xc3;" horiz-adv-x="1263" 
d="M586 995l-213 -493h428zM401 43v-43h-479v43q118 0 153.5 27.5t51.5 62.5t41 88l450 1043h27l453 -1043q25 -53 41 -88t50.5 -62.5t151.5 -27.5v-43h-567v43q129 0 163 35t-3 121l-98 227h-496l-98 -227q-37 -84 -3.5 -120t162.5 -36zM750 1487q66 0 88 96h32
q0 -96 -37.5 -149.5t-103.5 -53.5q-37 0 -100.5 39t-96 56.5t-58.5 17.5t-49.5 -27.5t-33.5 -66.5h-31q0 90 39 145t89 55t109.5 -38.5t92.5 -56t60 -17.5z" />
    <glyph glyph-name="Adieresis" unicode="&#xc4;" horiz-adv-x="628" 
d="M350 793q-102 0 -139 -107h229q10 33 -11 70t-79 37zM350 311q-126 0 -204 81t-78 198t86 195.5t191 78.5t170 -72.5t38 -173.5h-354q-12 -100 31.5 -166.5t154.5 -66.5q35 0 81 19.5t81 52.5l35 -43q-43 -45 -105.5 -74t-126.5 -29z" />
    <glyph glyph-name="Aring" unicode="&#xc5;" horiz-adv-x="600" 
d="M206 315q-70 0 -112.5 35t-42.5 90q0 95 84 144t232 78q0 78 -16.5 109.5t-76.5 31.5q-23 0 -50 -14.5t-27 -44.5t-17.5 -46t-40 -16t-40 17t-17.5 43q0 52 59 87t153 35t142.5 -48t48.5 -159v-223q0 -49 27 -49q20 0 41 27l29 -41q-45 -52 -105 -52q-88 0 -106 76
q-95 -80 -165 -80zM240 395q51 0 127 68v137q-98 -23 -142.5 -54.5t-44.5 -88.5q0 -29 17.5 -45.5t42.5 -16.5z" />
    <glyph glyph-name="AE" unicode="&#xc6;" horiz-adv-x="1552" 
d="M385 43v-43h-479v43q116 0 157 27.5t67 61.5t54 89l521 1008h665l19 -271h-43l-11 41q-22 89 -65 121.5t-172 32.5h-201v-567h25q78 0 119.5 6t63 27.5t26 60.5t4.5 102h43v-469h-43q0 66 -4.5 104t-26 59.5t-63.5 27.5t-119 6h-25v-197q0 -155 26.5 -188t65.5 -41
t103 -8h73q132 0 168.5 27.5t48 57t21.5 70.5l10 41h43l-16 -272h-901v43q63 0 102 8t65.5 43t26.5 189v227h-315l-160 -311q-43 -86 -19.5 -121t146.5 -35zM733 586v534l-276 -534h276z" />
    <glyph glyph-name="Ccedilla" unicode="&#xc7;" horiz-adv-x="1075" 
d="M352 350q61 -115 195 -133v793q-134 -14 -195 -131.5t-61 -265.5t61 -263zM934 1059v-357h-41q-29 135 -97.5 217t-174.5 93v-795q106 10 174.5 93t97.5 218h41v-358h-39q-16 77 -37 102q-41 -53 -105.5 -89t-131.5 -44v-174h-74v174q-177 16 -299.5 151.5t-122.5 321.5
q0 187 121.5 323.5t300.5 154.5v174h74v-172q68 -8 132 -45t105 -89q19 19 37 101h39z" />
    <glyph glyph-name="Egrave" unicode="&#xc8;" horiz-adv-x="428" 
d="M51 334v45q75 0 93 23.5t22 56.5t4 86v73q0 106 -17.5 130t-41 30t-60.5 6v43l236 39v-321q0 -107 16 -130.5t40 -29.5t60 -6v-45h-352zM299 1069q0 -29 -21.5 -51.5t-50 -22.5t-49 22.5t-20.5 51.5t20.5 50.5t49 21.5t50 -21.5t21.5 -50.5z" />
    <glyph glyph-name="Eacute" unicode="&#xc9;" 
d="M330 846v241l-183 -241h183zM446 776q0 -87 17.5 -111t40 -29t59.5 -5v-43h-352v43q76 0 97.5 26.5t21.5 118.5h-285v37l352 469h49v-436q43 0 68 20.5t41 83.5l8 35h43l-12 -209h-148z" />
    <glyph glyph-name="Ecircumflex" unicode="&#xca;" horiz-adv-x="442" 
d="M264 311q-149 0 -149 172v291h-78v47q70 16 97.5 60.5t35.5 117.5h61v-159h129v-66h-129v-291q0 -100 62 -100q41 0 94 53l37 -33q-37 -45 -81 -68.5t-79 -23.5z" />
    <glyph glyph-name="Edieresis" unicode="&#xcb;" 
d="M354 920q-53 0 -91 -20.5t-52 -53.5q2 -113 47 -173.5t102 -60.5t87 49.5t30 106t-35 104.5t-88 48zM337 979q107 0 183 -61.5t76 -150.5t-69 -151.5t-169 -62.5q-160 0 -210 107.5t-50 191.5q0 169 76 290.5t201 121.5q82 0 132 -37t50 -70q0 -14 -12.5 -24.5
t-26.5 -10.5t-25.5 12.5t-40 38t-71.5 25.5q-133 0 -166 -260q64 41 122 41z" />
    <glyph glyph-name="Igrave" unicode="&#xcc;" horiz-adv-x="681" 
d="M78 0v43q63 0 102 8q74 15 86 109q6 47 6 123v665q0 154 -26 188t-66 42t-102 8v43h553v-43q-63 0 -103 -8q-73 -15 -86 -106q-6 -46 -6 -124v-665q0 -155 33 -197q20 -27 59 -35t103 -8v-43h-553zM109 1560q0 20 14 42q14 20 42 20t47 -12t46 -35l191 -180l-11 -13
l-282 119q-12 7 -30 23t-17 36z" />
    <glyph glyph-name="Iacute" unicode="&#xcd;" horiz-adv-x="483" 
d="M254 311q-37 0 -64.5 14.5t-46 24.5t-29 5t-10.5 -44h-45v228h45q0 -58 43 -112t111 -54q35 0 55.5 20.5t20.5 52.5t-24.5 48t-53.5 32l-82 43q-102 55 -102 167q0 50 49 89t98 39t73.5 -11t38 -18.5t18.5 -4t5 33.5h45v-184h-45q0 47 -29.5 86t-82.5 39q-68 0 -68 -64
q0 -27 22.5 -41t63.5 -36l72 -39q104 -62 104 -144t-53 -126t-129 -44z" />
    <glyph glyph-name="Icircumflex" unicode="&#xce;" horiz-adv-x="763" 
d="M362 793q-84 0 -122.5 -59.5t-38.5 -145.5t39 -145.5t122 -59.5q47 0 85 30.5t57 80.5v186q-18 49 -56 81t-86 32zM508 393q-69 -82 -178 -82q-110 0 -186 81.5t-76 195t76 195t180 81.5t180 -76v222q0 107 -16.5 130t-40 29.5t-60.5 6.5v43l236 41v-703
q0 -107 16 -130.5t39.5 -29.5t60.5 -6v-43l-204 -39q-15 18 -27 84z" />
    <glyph glyph-name="Idieresis" unicode="&#xcf;" horiz-adv-x="739" 
d="M539 588q0 86 -38 145.5t-122 59.5q-49 0 -86 -31t-57 -80v-186q20 -51 57 -82t86 -31q84 0 122 59.5t38 145.5zM236 788q76 76 179 76t180 -81t77 -195.5t-77 -195.5t-193 -81q-117 0 -181 95l-63 -93l-39 -2v699q0 108 -22.5 137t-96.5 29v43l236 41v-472z" />
    <glyph glyph-name="Eth" unicode="&#xd0;" horiz-adv-x="1460" 
d="M35 571v93h237v284q0 155 -26.5 188t-65.5 41.5t-102 8.5v43h555q343 0 513.5 -172.5t170.5 -442t-170.5 -442t-513.5 -172.5h-555v43q63 0 102 8t65.5 43t26.5 189v288h-237zM631 664v-93h-205v-258q0 -153 27.5 -187t66.5 -42t103 -8h10q278 0 386.5 159t108.5 450
t-171 379.5t-324 88.5h-207v-489h205z" />
    <glyph glyph-name="Ntilde" unicode="&#xd1;" 
d="M262 1130q-45 0 -81 -15t-48 -62l-8 -35h-47l39 211h497v-47l-284 -568q-18 -37 -37 -57t-46 -12t-42 33.5t16 72.5l303 479h-262z" />
    <glyph glyph-name="Ograve" unicode="&#xd2;" horiz-adv-x="401" 
d="M27 334v45q74 0 94 29.5t20 136.5v465q0 106 -16 129.5t-39 30t-59 6.5v43l233 41v-715q0 -108 16.5 -131t40 -29t60.5 -6v-45h-350z" />
    <glyph glyph-name="Oacute" unicode="&#xd3;" horiz-adv-x="825" 
d="M481 864q108 0 155.5 -64.5t47.5 -160.5v-94q0 -108 16.5 -131t40 -29t60.5 -6v-45h-352v45q72 0 90 23.5t22 56.5t4 86v86q0 68 -25.5 108.5t-87.5 40.5t-113.5 -40t-51.5 -99v-96q0 -111 14 -133.5t34.5 -27.5t55.5 -5v-45h-340v45q75 0 93 23.5t22 56.5t4 86v73
q0 106 -17.5 130t-41 30t-60.5 6v41l211 41q15 -44 23 -100q88 98 196 98z" />
    <glyph glyph-name="Ocircumflex" unicode="&#xd4;" horiz-adv-x="1153" 
d="M483 864q111 0 148 -102q29 35 86 68.5t119 33.5q102 0 139 -64.5t37 -160.5v-94q0 -109 17.5 -131.5t40 -28.5t58.5 -6v-45h-325v45q61 0 76.5 26.5t15.5 139.5v86q0 68 -22.5 108.5t-74.5 40.5t-100.5 -41.5t-48.5 -97.5v-96q0 -116 11.5 -136t30 -25t50.5 -5v-45h-303
v45q65 0 78.5 25t13.5 141v86q0 68 -21.5 108.5t-73.5 40.5t-100 -41.5t-48 -97.5v-96q0 -113 11 -134.5t29.5 -26.5t51.5 -5v-45h-328v45q75 0 93 23.5t22 56.5t4 86v73q0 106 -17.5 130t-41 30t-60.5 6v41l211 41q17 -60 23 -100q87 98 198 98z" />
    <glyph glyph-name="Otilde" unicode="&#xd5;" horiz-adv-x="1654" 
d="M462 1010q-122 -174 -122 -397q0 -222 123.5 -394t364.5 -172q132 0 225.5 53.5t178.5 172t85 340.5t-122.5 396.5t-366.5 174.5t-366 -174zM1511 614.5q0 -133.5 -54 -252t-146 -206.5t-217 -139.5t-266.5 -51.5t-265.5 51.5t-216 139.5t-146.5 206.5t-54.5 252
t54.5 252t146.5 206.5t216 139.5t265.5 51.5t266.5 -51.5t217 -139.5t146 -206.5t54 -252zM926 1487q66 0 88 96h33q0 -96 -39 -149.5t-91 -53.5t-115 39t-94.5 56.5t-57.5 17.5t-49 -27.5t-34 -66.5h-30q0 90 38.5 145t87.5 55t110 -38.5t93.5 -56t59.5 -17.5z" />
    <glyph glyph-name="Odieresis" unicode="&#xd6;" 
d="M330 1204q-85 0 -102 -64.5t-17 -105.5t35 -89t88 -48t91 20.5t52 53.5q-2 113 -47 173t-100 60zM351 836q-107 0 -183 63t-76 151t69.5 151t168.5 63q162 0 211 -108t49 -192q0 -170 -76 -290.5t-201 -120.5q-82 0 -132 37t-50 69q0 14 12.5 23.5t26.5 9.5t25.5 -11
t39.5 -37t71 -26q133 0 167 259q-64 -41 -122 -41z" />
    <glyph glyph-name="multiply" unicode="&#xd7;" horiz-adv-x="0" 
 />
    <glyph glyph-name="Oslash" unicode="&#xd8;" horiz-adv-x="759" 
d="M543 588q0 86 -41 146.5t-130 60.5t-130 -60.5t-41 -146.5t41 -146.5t130 -60.5t130 60.5t41 146.5zM676 587.5q0 -114.5 -89.5 -195.5t-215.5 -81t-214.5 82t-88.5 194.5t88.5 194.5t214.5 82t215.5 -81t89.5 -195.5z" />
    <glyph glyph-name="Ugrave" unicode="&#xd9;" horiz-adv-x="1533" 
d="M1141 948q0 153 -35 196q-20 26 -59 34t-103 8v43h479v-43q-63 0 -102 -8q-71 -15 -87 -106q-7 -46 -7 -124v-491q0 -233 -141 -362q-141 -130 -352 -130t-351 128q-141 128 -141 364v491q0 155 -26 188q-26 34 -66 42q-39 8 -103 8v43h553v-43q-63 0 -102 -8
q-40 -8 -66 -42t-26 -188v-502q0 -191 98 -290t260 -99q261 0 348 216q29 73 29 173v502zM531 1622q27 0 47 -12t47 -35l190 -180l-10 -13l-283 119q-12 6 -29 23q-35 34 -4 78q14 20 42 20z" />
    <glyph glyph-name="Uacute" unicode="&#xda;" horiz-adv-x="1533" 
d="M1141 948q0 153 -35 196q-20 26 -59 34t-103 8v43h479v-43q-63 0 -102 -8q-71 -15 -87 -106q-7 -46 -7 -124v-491q0 -233 -141 -362q-141 -130 -352 -130t-351 128q-141 128 -141 364v491q0 155 -26 188q-26 34 -66 42q-39 8 -103 8v43h553v-43q-63 0 -102 -8
q-40 -8 -66 -42t-26 -188v-502q0 -191 98 -290t260 -99q261 0 348 216q29 73 29 173v502zM955 1622q29 0 43 -20t14 -47q0 -26 -47 -54l-281 -121l-10 15l190 178q27 23 45 36t46 13z" />
    <glyph glyph-name="Ucircumflex" unicode="&#xdb;" horiz-adv-x="1533" 
d="M1141 948q0 151 -35 194.5t-162 43.5v43h479v-43q-127 0 -161.5 -42.5t-34.5 -195.5v-491q0 -233 -140 -362.5t-352 -129.5t-352.5 129t-140.5 363v491q0 154 -34 196t-161 42v43h553v-43q-127 0 -160.5 -41.5t-33.5 -196.5v-502q0 -188 97.5 -288.5t260.5 -100.5
q261 0 319 144.5t58 244.5v502zM997 1382l-219 156l-219 -156l-24 25l243 264l244 -264z" />
    <glyph glyph-name="Udieresis" unicode="&#xdc;" 
d="M207 942q0 -326 102 -326t138 81.5t36 175.5q0 93 -8 146.5t-25.5 93.5t-43 63.5t-78.5 23.5t-87 -83t-34 -175zM162 658.5q-76 105.5 -76 250.5t76.5 250t182 105t181.5 -105.5t76 -249.5t-75.5 -250t-182 -106t-182.5 105.5z" />
    <glyph glyph-name="Yacute" unicode="&#xdd;" horiz-adv-x="1280" 
d="M723 283q0 -155 33 -197q20 -27 59 -35t103 -8v-43h-553v43q63 0 102 8q72 15 86 109q6 47 6 123v198l-340 527q-68 105 -130 141q-62 37 -167 37v43h584v-43q-121 0 -142 -39q-20 -39 31 -117l295 -450l299 450q53 84 36 120t-146 36v43h479v-43q-165 0 -241 -100
q-26 -34 -56 -78l-338 -512v-213zM892 1624q28 0 42 -20t14 -48q0 -27 -47 -53l-280 -121l-11 15l191 178q27 23 45 36t46 13z" />
    <glyph glyph-name="Thorn" unicode="&#xde;" horiz-adv-x="886" 
d="M518 676q328 0 328 -217q0 -106 -84 -163.5t-244 -57.5h-117q4 -125 29 -154t55.5 -36t77.5 -7v-41h-469v41q51 0 83 8t55.5 44.5t23.5 187.5v327q0 153 -23.5 187t-55.5 42.5t-83 8.5v41h469v-41q-92 0 -116.5 -24.5t-32.5 -57.5t-11 -88h115zM686 456.5
q0 143.5 -168 143.5h-117v-287h117q168 0 168 143.5z" />
    <glyph glyph-name="germandbls" unicode="&#xdf;" horiz-adv-x="1224" 
d="M1155 190q0 -100 -69 -162.5t-175 -62.5q-53 0 -94 20.5t-68.5 34t-42 7t-14.5 -61.5h-41v299h41q0 -78 61.5 -153.5t164.5 -75.5q49 0 81.5 30.5t32.5 71.5t-30.5 70t-83.5 57l-113 62q-76 41 -106.5 98t-30.5 102q0 87 63.5 139t133.5 52q69 0 105 -15.5t56.5 -24.5
t27.5 -4t7 44h43v-238h-43q0 66 -43.5 119t-109.5 53q-116 0 -117 -88q0 -37 28.5 -62.5t95.5 -62.5l99 -53q68 -39 104.5 -90.5t36.5 -104.5zM240 879q0 195 96 290t239 95q82 0 131.5 -35t65.5 -78t2 -78t-56 -35t-56.5 24.5t-25.5 54.5t-29.5 54.5t-67.5 24.5
q-78 0 -116 -70.5t-38 -246.5v-879h-307v43q51 0 83 8t55.5 45.5t23.5 186.5v327h-162v41q103 0 132.5 41t29.5 182v5z" />
    <glyph glyph-name="agrave" unicode="&#xe0;" horiz-adv-x="907" 
d="M420 502l-103 -219h205zM344 39v-39h-326v39q76 0 106 27t66 112l250 531h37l248 -531q38 -87 69 -113t95 -26v-39h-395v39q88 0 103 27t-13 88l-31 67h-266l-31 -67q-30 -61 -18 -88t106 -27zM247 1077q28 0 47 -12t46 -35l190 -180l-10 -12l-282 118q-12 6 -30 23
q-36 33 -4 77q14 20 43 21z" />
    <glyph glyph-name="aacute" unicode="&#xe1;" horiz-adv-x="907" 
d="M420 502l-103 -219h205zM344 39v-39h-326v39q76 0 106 27t66 112l250 531h37l248 -531q38 -87 69 -113t95 -26v-39h-395v39q88 0 103 27t-13 88l-31 67h-266l-31 -67q-30 -61 -18 -88t106 -27zM664 1077q28 -1 43 -21q14 -20 14 -46t-47 -54l-281 -120l-10 14l190 178
q27 23 45 36t46 13z" />
    <glyph glyph-name="acircumflex" unicode="&#xe2;" horiz-adv-x="907" 
d="M420 502l-103 -219h205zM344 39v-39h-326v39q74 0 105.5 27.5t66.5 111.5l250 531h37l248 -531q38 -86 68 -112.5t96 -26.5v-39h-395v39q88 0 103 26.5t-13 88.5l-31 67h-266l-31 -67q-29 -61 -17.5 -88t105.5 -27zM668 844l-219 155l-218 -155l-26 22l244 267l243 -267z
" />
    <glyph glyph-name="atilde" unicode="&#xe3;" horiz-adv-x="907" 
d="M420 502l-103 -219h205zM344 39v-39h-326v39q74 0 105.5 27.5t66.5 111.5l250 531h37l248 -531q38 -86 68 -112.5t96 -26.5v-39h-395v39q88 0 103 26.5t-13 88.5l-31 67h-266l-31 -67q-29 -61 -17.5 -88t105.5 -27zM600 942q63 0 88 98h33q0 -98 -39 -151t-92 -53
t-114.5 38.5t-93.5 56t-58 17.5t-49 -26.5t-33 -65.5h-31q0 88 39 143.5t81 55.5t75.5 -17.5t95 -56.5t98.5 -39z" />
    <glyph glyph-name="adieresis" unicode="&#xe4;" horiz-adv-x="907" 
d="M420 502l-103 -219h205zM344 39v-39h-326v39q76 0 106 27t66 112l250 531h37l248 -531q38 -87 69 -113t95 -26v-39h-395v39q88 0 103 27t-13 88l-31 67h-266l-31 -67q-30 -61 -18 -88t106 -27zM626 997q34 1 58 -23t23 -58q0 -34 -24 -57q-23 -23 -57 -23t-57 24t-23 57
q0 34 23 57t57 23zM287 997q35 1 57 -23t23 -58q0 -34 -23 -57q-24 -23 -58 -23t-57 24t-23 57q0 34 23 57t58 23z" />
    <glyph glyph-name="aring" unicode="&#xe5;" horiz-adv-x="907" 
d="M420 502l-103 -219h205zM344 39v-39h-326v39q76 0 106 27t66 112l250 531h37l248 -531q38 -87 69 -113t95 -26v-39h-395v39q88 0 103 27t-13 88l-31 67h-266l-31 -67q-30 -61 -18 -88t106 -27zM451 1098q-39 0 -67 -28t-28 -66t28 -67q28 -28 67 -28t67 28t27 67
q1 38 -27 66t-67 28zM451 1171q73 0 121 -48q48 -47 48 -119t-48 -121q-50 -49 -122 -49t-119 49q-48 49 -48 121t48 120t120 47z" />
    <glyph glyph-name="ae" unicode="&#xe6;" horiz-adv-x="1173" 
d="M709 621v-281q118 0 140.5 16.5t28 41t5.5 63.5h39v-305h-39q0 80 -28 100t-146 20v-43q0 -109 18 -133t43 -30.5t64 -6.5h30q100 0 130 15.5t40 34t17 43.5l10 37h31l-13 -193h-641v39q89 0 111 31.5t22 140.5v65h-198l-90 -122q-47 -61 -40 -88t99 -27v-39h-326v39
q65 0 95 21.5t52.5 49t53.5 68.5l371 504h450l15 -193h-33l-10 39q-13 55 -50 74t-137 19h-114zM571 340v209l-153 -209h153z" />
    <glyph glyph-name="ccedilla" unicode="&#xe7;" horiz-adv-x="905" 
d="M782 682v-281h-41q-25 115 -87 179.5t-144 64.5t-127 -28.5t-71.5 -73.5t-38 -98.5t-11.5 -136.5t55 -176t181 -93q94 0 156.5 64.5t86.5 179.5h41v-283h-39q-14 54 -24 72q-41 -41 -101.5 -70t-119.5 -29h-15l-69 -71q51 0 103 -36.5t52 -97.5t-33.5 -95.5t-97 -65
t-141.5 -37.5v49q69 23 114.5 51.5t45.5 81.5t-58.5 70t-130.5 -4v26l142 140q-127 28 -214 128t-87 240t112.5 248.5t276.5 108.5q59 0 119.5 -27t99.5 -70q5 8 26 70h39z" />
    <glyph glyph-name="egrave" unicode="&#xe8;" horiz-adv-x="835" 
d="M362 621v-230q120 1 142 17t26 41t5 63h38v-305h-38q1 82 -21 97q-34 24 -152 24v-95q0 -109 18 -133t44 -30q25 -6 63 -7h29q100 -1 130 15t40 34t16 44l11 37h30l-12 -193h-643v39q89 0 111 31t22 141v262q0 107 -18 132t-45 31t-70 7v39h602l15 -193h-33l-10 39
q-13 53 -39 68q-43 24 -148 25h-113zM286 1077q28 0 47 -12t46 -35l190 -180l-10 -12l-283 118q-12 6 -29 23q-35 33 -3 77q14 20 42 21z" />
    <glyph glyph-name="eacute" unicode="&#xe9;" horiz-adv-x="835" 
d="M362 621v-230q120 1 142 17t26 41t5 63h38v-305h-38q1 82 -21 97q-34 24 -152 24v-95q0 -109 18 -133t44 -30q25 -6 63 -7h29q100 -1 130 15t40 34t16 44l11 37h30l-12 -193h-643v39q89 0 111 31t22 141v262q0 107 -18 132t-45 31t-70 7v39h602l15 -193h-33l-10 39
q-13 53 -39 68q-43 24 -148 25h-113zM613 1077q29 -1 43 -21t14 -46t-47 -54l-281 -120l-10 14l190 178q27 23 45 36t46 13z" />
    <glyph glyph-name="ecircumflex" unicode="&#xea;" horiz-adv-x="835" 
d="M475 621h-113v-230q119 0 141.5 16.5t27 41t4.5 63.5h38v-305h-38q0 82 -28 101.5t-145 19.5v-95q0 -108 18.5 -132.5t43.5 -31t63 -6.5h29q100 0 130 15.5t40 34t16 43.5l11 37h30l-12 -193h-643v39q87 0 110 31.5t23 140.5v262q0 107 -18.5 132.5t-45 31.5t-69.5 6v39
h602l15 -193h-33l-10 39q-13 55 -50 74t-137 19zM635 829l-219 156l-217 -156l-27 25l244 264l246 -264z" />
    <glyph glyph-name="edieresis" unicode="&#xeb;" horiz-adv-x="835" 
d="M362 621v-230q120 1 142 17t26 41t5 63h38v-305h-38q1 82 -21 97q-34 24 -152 24v-95q0 -109 18 -133t44 -30q25 -6 63 -7h29q100 -1 130 15t40 34t16 44l11 37h30l-12 -193h-643v39q89 0 111 31t22 141v262q0 107 -18 132t-45 31t-70 7v39h602l15 -193h-33l-10 39
q-13 53 -39 68q-43 24 -148 25h-113zM520 917q0 34 22 57t57 23q33 1 57 -23t24 -58t-24 -57t-58 -23t-56 24t-22 57zM260 997q36 1 58 -23t22 -58t-23 -57t-57 -23t-58 24q-22 24 -22 57q0 34 22 57t58 23z" />
    <glyph glyph-name="igrave" unicode="&#xec;" horiz-adv-x="585" 
d="M88 0v39q89 0 111 31t22 141v262q0 107 -18 132t-45 31t-70 7v39h408v-39q-89 0 -110 -31q-22 -31 -24 -139v-262q0 -108 18 -133q18 -26 46 -32q27 -6 70 -7v-39h-408zM114 1077q28 0 47 -12t46 -35l190 -180l-10 -12l-283 118q-12 6 -29 23q-35 33 -3 77q14 20 42 21z
" />
    <glyph glyph-name="iacute" unicode="&#xed;" horiz-adv-x="585" 
d="M88 0v39q89 0 111 31t22 141v262q0 107 -18 132t-45 31t-70 7v39h408v-39q-89 0 -110 -31q-22 -31 -24 -139v-262q0 -108 18 -133q18 -26 46 -32q27 -6 70 -7v-39h-408zM488 1077q28 -1 42 -21t15 -46q0 -26 -47 -54l-281 -120l-10 14l190 178q27 23 45 36t46 13z" />
    <glyph glyph-name="icircumflex" unicode="&#xee;" horiz-adv-x="585" 
d="M88 0v39q87 0 110 31.5t23 140.5v262q0 107 -18.5 132.5t-45 31.5t-69.5 6v39h408v-39q-89 0 -111.5 -32.5t-22.5 -137.5v-262q0 -107 18.5 -133.5t45.5 -32.5t70 -6v-39h-408zM518 842l-217 155l-219 -155l-25 24l244 264l244 -264z" />
    <glyph glyph-name="idieresis" unicode="&#xef;" horiz-adv-x="585" 
d="M88 0v39q89 0 111 31t22 141v262q0 107 -18 132t-45 31t-70 7v39h408v-39q-89 0 -110 -31q-22 -31 -24 -139v-262q0 -108 18 -133q18 -26 46 -32q27 -6 70 -7v-39h-408zM385 917q1 34 23 57t56 23q34 1 58 -23t23 -58q0 -34 -24 -57q-23 -23 -57 -23t-56 24t-23 57z
M125 997q35 1 57 -23t23 -58q0 -34 -23 -57q-24 -23 -58 -23t-56 24t-23 57q1 34 23 57t57 23z" />
    <glyph glyph-name="eth" unicode="&#xf0;" horiz-adv-x="1142" 
d="M86 408v90h170v110q0 153 -23.5 187t-55.5 42.5t-83 8.5v41h434q249 0 374.5 -123.5t125.5 -319.5q0 -307 -184.5 -375.5t-315.5 -68.5h-434v41q51 0 83 8t55.5 44.5t23.5 187.5v127h-170zM596 498v-90h-195v-177q0 -97 16.5 -121t39 -29t61.5 -5h17q181 0 252 106
t71 306.5t-110.5 262.5t-212.5 62h-134v-315h195z" />
    <glyph glyph-name="ntilde" unicode="&#xf1;" horiz-adv-x="1030" 
d="M940 643q-87 0 -110 -31.5t-23 -138.5v-498h-43l-477 519v-283q0 -109 18.5 -134.5t45 -31.5t69.5 -6v-39h-330v39q87 0 110 31.5t23 140.5v262q0 107 -18.5 132.5t-45 31.5t-69.5 6v39h203l450 -487v278q0 107 -18 132.5t-45 31.5t-70 6v39h330v-39zM764 1036
q0 -98 -38 -150t-91 -52t-114.5 38.5t-93 56t-57.5 17.5t-50.5 -27.5t-34.5 -66.5h-31q0 88 39 143.5t81 55.5t75.5 -17.5t95 -56.5t98.5 -39q65 0 90 98h31z" />
    <glyph glyph-name="ograve" unicode="&#xf2;" horiz-adv-x="1038" 
d="M639 68q135 80 135 275t-135 273q-49 29 -120 29q-130 0 -198 -101q-55 -80 -56 -199t62 -213q63 -93 191 -93q72 0 121 29zM518 -27q-170 0 -291 109q-120 109 -119 260q1 150 120 258q119 109 290 109q170 0 290 -109t120 -259t-120 -259t-290 -109zM244 1016
q0 20 14 40t42 21q28 0 47 -12t46 -35l191 -180l-11 -12l-282 118q-11 6 -29 22q-18 18 -18 38z" />
    <glyph glyph-name="oacute" unicode="&#xf3;" horiz-adv-x="1038" 
d="M639 68q135 80 135 275t-135 273q-49 29 -120 29q-130 0 -198 -101q-55 -80 -56 -199t62 -213q63 -93 191 -93q72 0 121 29zM518 -27q-170 0 -291 109q-120 109 -119 260q1 150 120 258q119 109 290 109q170 0 290 -109t120 -259t-120 -259t-290 -109zM708 1077
q28 -1 42 -21t14 -46t-47 -54l-281 -120l-10 14l190 178q28 23 46 36t46 13z" />
    <glyph glyph-name="ocircumflex" unicode="&#xf4;" horiz-adv-x="1038" 
d="M711.5 553.5q-62.5 91.5 -192.5 91.5t-192.5 -92.5t-62.5 -210.5t62 -210.5t193 -92.5q130 0 192.5 91.5t62.5 211.5t-62.5 211.5zM928 342q0 -76 -33 -143.5t-88 -117.5t-130 -79t-159 -29t-158.5 29t-130 79t-88 117.5t-32.5 143.5t32.5 142.5t88 116.5t130 79
t158.5 29t159 -29t130 -79t88 -116.5t33 -142.5zM705 836l-218 155l-219 -155l-26 24l245 264l244 -264z" />
    <glyph glyph-name="otilde" unicode="&#xf5;" horiz-adv-x="1038" 
d="M711.5 553.5q-62.5 91.5 -192.5 91.5t-192.5 -92.5t-62.5 -210.5t62 -210.5t193 -92.5q130 0 192.5 91.5t62.5 211.5t-62.5 211.5zM928 342q0 -76 -33 -143.5t-88 -117.5t-130 -79t-159 -29t-158.5 29t-130 79t-88 117.5t-32.5 143.5t32.5 142.5t88 116.5t130 79
t158.5 29t159 -29t130 -79t88 -116.5t33 -142.5zM647 940q67 0 88 98h33q0 -98 -38 -150t-91 -52t-142.5 56t-120.5 56q-30 0 -53.5 -27.5t-33.5 -66.5h-31q0 88 39 143.5t81 55.5t75.5 -17.5t95 -56.5t98.5 -39z" />
    <glyph glyph-name="odieresis" unicode="&#xf6;" horiz-adv-x="1038" 
d="M639 68q135 80 135 275t-135 273q-49 29 -120 29q-130 0 -198 -101q-55 -80 -56 -199t62 -213q63 -93 191 -93q72 0 121 29zM518 -27q-170 0 -291 109q-120 109 -119 260q1 150 120 258q119 109 290 109q170 0 290 -109t120 -259t-120 -259t-290 -109zM669 997
q33 1 57 -23t24 -58t-24 -57t-58 -23t-56 24t-22 57q0 34 22 57q23 23 57 23zM330 997q36 1 58 -23t22 -58t-23 -57t-57 -23t-58 24q-22 24 -22 57q0 34 22 57q23 23 58 23z" />
    <glyph glyph-name="divide" unicode="&#xf7;" horiz-adv-x="937" 
d="M567 734q0 -40 -29.5 -69.5t-69.5 -29.5t-67.5 29.5t-27.5 69.5t27.5 70t67.5 30t69.5 -30t29.5 -70zM567 172q0 -41 -29.5 -69.5t-69.5 -28.5t-67.5 28.5t-27.5 69.5t27.5 70.5t67.5 29.5t69.5 -29.5t29.5 -70.5zM170 408v90h598v-90h-598z" />
    <glyph glyph-name="oslash" unicode="&#xf8;" horiz-adv-x="1038" 
d="M519 645q-131 0 -193 -92.5t-62 -217.5t70 -214l311 491q-55 33 -126 33zM682 92.5q92 53.5 92 251.5q0 122 -67 215l-312 -489q55 -31 125 -31t162 53.5zM520 709q86 0 166 -33l62 98l69 -41l-59 -94q78 -51 124 -128t46 -161q0 -159 -120 -268t-290 -109q-90 0 -164 33
l-61 -96l-70 39l60 94q-78 49 -126 128t-48 163t32.5 150.5t88 116.5t130 79t160.5 29z" />
    <glyph glyph-name="ugrave" unicode="&#xf9;" horiz-adv-x="999" 
d="M938 643q-89 0 -111 -31t-22 -139v-201q0 -147 -84 -222t-214 -75t-221 78t-89 219v201q-1 106 -19 131q-18 26 -45 32t-70 7v39h404v-39q-86 0 -110 -31q-23 -31 -23 -139v-211q0 -102 54 -151t140 -49t142 48q56 50 57 152v211q0 111 -18 134t-44 29t-69 7v39h342v-39z
M286 1075q28 0 47 -12t46 -35l190 -180l-10 -12l-283 118q-12 6 -29 23q-35 33 -3 77q14 20 42 21z" />
    <glyph glyph-name="uacute" unicode="&#xfa;" horiz-adv-x="999" 
d="M938 643q-89 0 -111 -31t-22 -139v-201q0 -147 -84 -222t-214 -75t-221 78t-89 219v201q-1 106 -19 131q-18 26 -45 32t-70 7v39h404v-39q-86 0 -110 -31q-23 -31 -23 -139v-211q0 -102 54 -151t140 -49t142 48q56 50 57 152v211q0 111 -18 134t-44 29t-69 7v39h342v-39z
M673 1075q28 -1 42 -21t14 -47t-47 -53l-281 -120l-10 14l191 178q27 23 45 36t46 13z" />
    <glyph glyph-name="ucircumflex" unicode="&#xfb;" horiz-adv-x="999" 
d="M938 643q-87 0 -110 -31.5t-23 -138.5v-201q0 -147 -84 -222t-214 -75t-220 77.5t-90 219.5v201q0 105 -18.5 131.5t-45.5 32.5t-70 6v39h404v-39q-85 0 -109 -31t-24 -139v-211q0 -102 54 -151.5t140 -49.5t142.5 49.5t56.5 151.5v211q0 111 -18.5 134.5t-44 29.5
t-68.5 6v39h342v-39zM711 836l-219 155l-220 -155l-24 24l244 264l243 -264z" />
    <glyph glyph-name="udieresis" unicode="&#xfc;" horiz-adv-x="999" 
d="M938 643q-89 0 -111 -31t-22 -139v-201q0 -147 -84 -222t-214 -75t-221 78t-89 219v201q-1 106 -19 131q-18 26 -45 32t-70 7v39h404v-39q-86 0 -110 -31q-23 -31 -23 -139v-211q0 -102 54 -151t140 -49t142 48q56 50 57 152v211q0 111 -18 134t-44 29t-69 7v39h342v-39z
M604 917q0 34 22 57t57 23q33 1 57 -23t24 -58t-24 -57t-58 -23t-56 24t-22 57zM344 997q36 1 58 -23t22 -58t-23 -57t-57 -23t-58 24q-22 24 -22 57q0 34 22 57t58 23z" />
    <glyph glyph-name="yacute" unicode="&#xfd;" horiz-adv-x="856" 
d="M879 643q-71 0 -108 -28t-99 -111l-164 -223v-70q0 -110 19 -135q19 -24 45 -30t69 -7v-39h-405v39q88 0 110 32q23 32 23 140v68l-164 225q-61 86 -99 113q-38 26 -100 26v39h393v-39q-78 0 -87 -26t36 -87l129 -174l127 174q47 63 38 88t-87 25v39h324v-39zM662 1077
q28 -1 43 -21q14 -20 14 -46t-47 -54l-281 -120l-10 14l190 178q27 23 45 36t46 13z" />
    <glyph glyph-name="thorn" unicode="&#xfe;" horiz-adv-x="1105" 
d="M272 973q0 136 -35.5 174.5t-158.5 38.5v43h553v-43q-123 0 -159 -39t-36 -174h182q204 0 322.5 -100.5t118.5 -246.5t-117.5 -244.5t-323.5 -98.5h-182q0 -152 26.5 -188t65.5 -44t103 -8v-43h-553v43q63 0 102 8t65.5 43t26.5 189v690zM616 356q126 0 193.5 76
t67.5 227.5t-96.5 194.5t-164.5 43h-180v-541h180z" />
    <glyph glyph-name="ydieresis" unicode="&#xff;" horiz-adv-x="856" 
d="M879 643q-71 0 -108 -28t-99 -111l-164 -223v-70q0 -110 19 -135q19 -24 45 -30t69 -7v-39h-405v39q88 0 110 32q23 32 23 140v68l-164 225q-61 86 -99 113q-38 26 -100 26v39h393v-39q-78 0 -87 -26t36 -87l129 -174l127 174q47 63 38 88t-87 25v39h324v-39zM626 997
q34 1 58 -23t23 -58q0 -34 -24 -57q-23 -23 -57 -23t-57 24t-23 57q0 34 23 57t57 23zM287 997q35 1 57 -23t23 -58q0 -34 -23 -57q-24 -23 -58 -23t-57 24t-23 57q0 34 23 57t58 23z" />
    <glyph glyph-name="dotlessi" unicode="&#x131;" horiz-adv-x="739" 
d="M539 588q0 86 -38 145.5t-122 59.5q-49 0 -86 -31t-57 -80v-186q20 -51 57 -82t86 -31q84 0 122 59.5t38 145.5zM236 788q76 76 179 76t180 -81t77 -195.5t-77 -195.5t-193 -81q-117 0 -181 95l-63 -93l-39 -2v699q0 108 -22.5 137t-96.5 29v43l236 41v-472z" />
    <glyph glyph-name="Lslash" unicode="&#x141;" horiz-adv-x="1177" 
d="M272 948q0 155 -26.5 188t-65.5 41.5t-102 8.5v43h553v-43q-129 0 -162 -42.5t-33 -195.5v-184l152 113l53 -60l-205 -151v-353q0 -153 26.5 -187t65.5 -42t103 -8h246q129 0 165.5 27.5t48 57t21.5 70.5l10 41h43l-16 -272h-1071v43q63 0 102 8t65.5 43t26.5 189v262
l-143 -109l-51 60l194 145v307z" />
    <glyph glyph-name="lslash" unicode="&#x142;" horiz-adv-x="907" 
d="M256 608q0 153 -23.5 187t-55.5 42.5t-83 8.5v41h469v-41q-102 0 -132 -43.5t-30 -194.5v-67l166 125l54 -58l-220 -162v-133q0 -151 24 -186t55.5 -43t82.5 -8h72q134 0 177.5 27.5t59.5 103.5l11 41h43l-15 -248h-817v41q51 0 83 8t55.5 44.5t23.5 187.5v55l-23 -17
q-52 -36 -124 -92l-52 58l199 149v174z" />
    <glyph glyph-name="OE" unicode="&#x152;" horiz-adv-x="1912" 
d="M806 47q110 0 187 27v1081q-77 29 -187 29t-203 -53.5t-178 -174t-85 -343.5q0 -222 85 -340.5t178 -172t203 -53.5zM1460 1153h-305v-465h102q78 0 124 6t73 27.5t35 60.5t8 103h43v-469h-43q0 66 -8 103.5t-35 59t-73 27.5t-124 6h-102v-299q0 -153 27.5 -187t66.5 -42
t103 -8h176q129 0 172 32t65 123l11 41h43l-19 -272h-753q-105 -35 -233 -35t-252 51.5t-216 139.5t-146.5 206.5t-54.5 252t54.5 252t146.5 206.5t216 139.5t251 51.5t236 -35h684l16 -271h-43l-10 41q-10 41 -21.5 70t-48 56.5t-166.5 27.5z" />
    <glyph glyph-name="oe" unicode="&#x153;" horiz-adv-x="1269" 
d="M516 -27q-78 0 -152.5 29t-130 79t-88 117.5t-32.5 180.5t120 221.5t289 108.5q82 0 150 -27h458l15 -193h-33l-10 39q-13 55 -50 74t-137 19h-114v-230q118 0 141 16.5t28 41t5 63.5h39v-305h-39q0 81 -29 101t-145 20v-95q0 -110 18.5 -133.5t43 -30t63.5 -6.5h30
q100 0 130 15.5t40.5 34t16.5 43.5l10 37h31l-13 -193h-499q-78 -27 -156 -27zM530 645q-137 0 -201.5 -93.5t-64.5 -209.5t65 -209.5t198 -93.5q74 0 137 41v522q-56 43 -134 43z" />
    <glyph glyph-name="Scaron" unicode="&#x160;" horiz-adv-x="1019" 
d="M119 -35v451h41q6 -102 49 -185q86 -184 330 -184q111 -1 183 63t73 149q0 85 -65 145t-171 116l-197 101q-157 80 -208 228q-65 187 77 326q95 89 244 89q91 0 147 -25t103 -59q46 41 59 94h41v-451h-43q-16 158 -62 225q-46 68 -104 101t-145 33q-88 0 -144 -52
t-57 -131q0 -109 136 -190q47 -29 112 -64l197 -100q119 -59 166 -142t47 -168q0 -166 -114 -268t-275 -102q-120 0 -265 75q-30 15 -55 21q-47 -41 -59 -96h-41zM494 1380l-244 265l24 24l220 -156l219 156l24 -24z" />
    <glyph glyph-name="scaron" unicode="&#x161;" horiz-adv-x="712" 
d="M563 709v-242h-43q-10 72 -52 124t-124 52q-43 -1 -77 -23t-34 -62t34 -66t108 -60l112 -55q74 -35 106 -86t32 -99q0 -97 -72 -157t-155 -61q-127 -2 -208 69q-24 -24 -32 -70h-39v283h41q12 -102 76 -158t155 -57q49 0 84 26q35 25 35 69q0 77 -131 136l-117 56
q-61 29 -102 79q-41 51 -41 121t61 124t158 54t160 -53q17 13 26 56h39zM371 836l-244 264l25 24l219 -155l219 155l24 -24z" />
    <glyph glyph-name="Ydieresis" unicode="&#x178;" horiz-adv-x="1280" 
d="M723 283q0 -155 33 -197q20 -27 59 -35t103 -8v-43h-553v43q63 0 102 8q72 15 86 109q6 47 6 123v198l-340 527q-68 105 -130 141q-62 37 -167 37v43h584v-43q-121 0 -142 -39q-20 -39 31 -117l295 -450l299 450q53 84 36 120t-146 36v43h479v-43q-165 0 -241 -100
q-26 -34 -56 -78l-338 -512v-213zM828 1542q34 0 58 -24t24 -57t-24 -57t-58 -24t-56 24t-22 58t22 56q22 24 56 24zM489 1542q35 0 58 -24t23 -57t-24 -57q-22 -24 -57 -24t-57 24t-22 58t22 56q22 24 57 24z" />
    <glyph glyph-name="Zcaron" unicode="&#x17d;" horiz-adv-x="1177" 
d="M401 1153q-131 0 -180 -37q-25 -18 -36 -47t-21 -70l-10 -41h-43l18 271h872v-25l-706 -1128h461q131 0 180 37q25 18 36 48t21 70l11 41h43l-17 -272h-942v47l690 1106h-377zM555 1380l-244 265l25 24l219 -156l219 156l25 -24z" />
    <glyph glyph-name="zcaron" unicode="&#x17e;" horiz-adv-x="792" 
d="M102 0v47l394 574h-154q-102 1 -132 -15q-28 -16 -38 -34t-16 -44l-11 -39h-32l14 193h551v-41l-395 -578h196q101 -1 131 15t40 34q9 18 16 44l10 37h33l-15 -193h-592zM391 836l-244 264l25 24l219 -155l219 155l25 -24z" />
    <glyph glyph-name="florin" unicode="&#x192;" horiz-adv-x="647" 
d="M387 -160q0 -190 -86 -288.5t-213 -98.5q-86 0 -142.5 35t-80 76t-15 76.5t51.5 39.5t58 -21.5t27.5 -56t34 -56t64.5 -25.5t99.5 29t56.5 290v770h-166v72h166v197q0 193 97 289t241 96q80 0 129 -35t65.5 -78t2 -78t-56.5 -35t-55.5 24.5t-24.5 54.5t-30.5 54.5
t-68.5 24.5q-78 0 -116 -70.5t-38 -246.5v-197h207v-72h-207v-770z" />
    <glyph glyph-name="circumflex" unicode="&#x2c6;" horiz-adv-x="825" 
d="M481 864q108 0 155.5 -64.5t47.5 -160.5v-94q0 -108 16.5 -131t40 -29t60.5 -6v-45h-352v45q72 0 90 23.5t22 56.5t4 86v86q0 68 -25.5 108.5t-87.5 40.5t-113.5 -40t-51.5 -99v-96q0 -111 14 -133.5t34.5 -27.5t55.5 -5v-45h-340v45q75 0 93 23.5t22 56.5t4 86v73
q0 106 -17.5 130t-41 30t-60.5 6v41l211 41q15 -44 23 -100q88 98 196 98z" />
    <glyph glyph-name="caron" unicode="&#x2c7;" horiz-adv-x="696" 
d="M289 1098l-244 264l25 24l219 -155l219 155l24 -24z" />
    <glyph glyph-name="breve" unicode="&#x2d8;" horiz-adv-x="630" 
d="M459 1356q0 -86 -50.5 -135.5t-126 -49.5t-127 49.5t-51.5 135.5h33q16 -43 54.5 -71t90.5 -28t91 28t53 71h33z" />
    <glyph glyph-name="dotaccent" unicode="&#x2d9;" horiz-adv-x="634" 
d="M248 1356q35 0 57.5 -23.5t22.5 -57.5t-22.5 -57.5t-57.5 -23.5t-57.5 23.5t-22.5 57.5t22.5 57.5t57.5 23.5z" />
    <glyph glyph-name="ring" unicode="&#x2da;" horiz-adv-x="456" 
d="M192.5 1296q-38.5 0 -66.5 -27.5t-28 -66.5t28 -66.5t66.5 -27.5t66.5 27.5t28 66.5t-28 66.5t-66.5 27.5zM192.5 1370q71.5 0 120.5 -48t49 -120t-49 -121t-120.5 -49t-119.5 49t-48 121t48 120t119.5 48z" />
    <glyph glyph-name="ogonek" unicode="&#x2db;" horiz-adv-x="454" 
d="M239 -264q-60 0 -101.5 42t-41.5 90q0 86 69 135.5t142 25.5l17 -2l-11 -27h-14q-39 0 -72.5 -25.5t-33.5 -60.5t21.5 -63.5t56.5 -28.5q70 0 91 47l15 31l14 -39l2 -6q-8 -55 -51 -87t-103 -32z" />
    <glyph glyph-name="tilde" unicode="&#x2dc;" horiz-adv-x="1153" 
d="M483 864q111 0 148 -102q29 35 86 68.5t119 33.5q102 0 139 -64.5t37 -160.5v-94q0 -109 17.5 -131.5t40 -28.5t58.5 -6v-45h-325v45q61 0 76.5 26.5t15.5 139.5v86q0 68 -22.5 108.5t-74.5 40.5t-100.5 -41.5t-48.5 -97.5v-96q0 -116 11.5 -136t30 -25t50.5 -5v-45h-303
v45q65 0 78.5 25t13.5 141v86q0 68 -21.5 108.5t-73.5 40.5t-100 -41.5t-48 -97.5v-96q0 -113 11 -134.5t29.5 -26.5t51.5 -5v-45h-328v45q75 0 93 23.5t22 56.5t4 86v73q0 106 -17.5 130t-41 30t-60.5 6v41l211 41q17 -60 23 -100q87 98 198 98z" />
    <glyph glyph-name="hungarumlaut" unicode="&#x2dd;" horiz-adv-x="671" 
d="M651 1324q0 -20 -17.5 -36t-31.5 -22l-280 -121l-11 14l191 178q27 23 46 36t46 13t42 -21t15 -41zM412 1324q0 -20 -17.5 -36t-29.5 -22l-283 -121l-10 14l190 178q27 23 46.5 36t47.5 13t42 -21t14 -41z" />
    <glyph glyph-name="pi" unicode="&#x3c0;" horiz-adv-x="999" 
d="M803 37q-55 -72 -133 -72q-41 0 -71 41t-30 103v460h-172l-39 -460q-8 -78 -36.5 -111t-60.5 -33q-60 0 -99 72l12 47q10 -12 30.5 -36.5t37.5 -24.5q39 0 47 86l39 460h-101q-59 0 -74.5 -26.5t-15.5 -47t6 -38.5l-34 -8q-47 98 -8.5 165.5t132.5 67.5h562q88 0 88 47
t-6 66l36 8q45 -98 6.5 -166t-133.5 -68h-104v-446q0 -86 39 -86q16 0 39.5 17.5t34.5 29.5z" />
    <glyph glyph-name="endash" unicode="&#x2013;" horiz-adv-x="1075" 
d="M-2 375v90h1077v-90h-1077z" />
    <glyph glyph-name="emdash" unicode="&#x2014;" horiz-adv-x="1366" 
d="M-2 375v90h1368v-90h-1368z" />
    <glyph glyph-name="quoteleft" unicode="&#x2018;" horiz-adv-x="514" 
d="M154 1152q0 52 34.5 82t75.5 30t68.5 -30t27.5 -70t-27.5 -69.5t-68.5 -29.5h-8t-8 2q10 -59 34.5 -109.5t82.5 -109.5l-23 -23q-188 125 -188 327z" />
    <glyph glyph-name="quoteright" unicode="&#x2019;" horiz-adv-x="514" 
d="M258 1065h-8q-41 0 -68.5 29.5t-27.5 69.5t27.5 70t68.5 30t75.5 -31t34.5 -82q0 -97 -48.5 -181.5t-139.5 -144.5l-22 23q57 59 81.5 109.5t34.5 109.5q-4 -2 -8 -2z" />
    <glyph glyph-name="quotesinglbase" unicode="&#x201a;" 
d="M487 886.5q0 61.5 -8 117t-25.5 97.5t-45 66.5t-64.5 24.5t-64.5 -24.5t-45 -66.5t-25.5 -97.5t-8 -117t8 -115.5t25.5 -96t45 -66.5t64.5 -24.5t64.5 24.5t45 66.5t25.5 96t8 115.5zM612 887q0 -76 -21.5 -142.5t-57 -116.5t-85 -80t-104.5 -30t-104.5 30t-85 80
t-57 116.5t-21.5 142.5t21.5 143.5t57 117.5t85 78.5t104.5 28.5t104.5 -28.5t85 -78.5t57 -117.5t21.5 -143.5z" />
    <glyph glyph-name="quotedblleft" unicode="&#x201c;" horiz-adv-x="856" 
d="M154 1152q0 52 34.5 82t75.5 30t68.5 -30t27.5 -70t-27.5 -69.5t-68.5 -29.5h-8t-8 2q10 -59 34.5 -109.5t82.5 -109.5l-23 -23q-188 125 -188 327zM496 1129q0 74 34.5 104.5t75.5 30.5t68.5 -30t27.5 -70t-28 -69.5t-54 -29.5t-30 2q16 -116 117 -219l-25 -23
q-88 58 -137 144t-49 160z" />
    <glyph glyph-name="quotedblright" unicode="&#x201d;" horiz-adv-x="856" 
d="M576 1065q-26 0 -53 29.5t-27 69.5t27.5 70t67.5 30t75.5 -31t35.5 -82q0 -97 -48.5 -181.5t-139.5 -144.5l-25 23q59 59 84 109.5t35 109.5q-6 -2 -32 -2zM258 1065h-8q-41 0 -68.5 29.5t-27.5 69.5t27.5 70t68.5 30t75.5 -31t34.5 -82q0 -97 -48.5 -181.5
t-139.5 -144.5l-22 23q57 59 81.5 109.5t34.5 109.5q-4 -2 -8 -2z" />
    <glyph glyph-name="quotedblbase" unicode="&#x201e;" horiz-adv-x="856" 
d="M590 -16q-39 0 -66.5 28.5t-27.5 69.5t27.5 69.5t67.5 28.5t75.5 -31t35.5 -81q0 -95 -47.5 -180t-140.5 -146l-25 25q59 59 84 108.5t35 108.5h-18zM250 -16q-41 0 -68.5 28.5t-27.5 69.5t27.5 69.5t68.5 28.5t75.5 -31t34.5 -81q0 -95 -47.5 -180t-140.5 -146l-22 25
q57 59 81.5 108.5t34.5 108.5h-16z" />
    <glyph glyph-name="dagger" unicode="&#x2020;" horiz-adv-x="917" 
d="M127 906q0 46 38 77t79 16l192 -61l-71 207q-12 45 18.5 82t75.5 37t75.5 -37t18.5 -82l-70 -207l189 61q43 14 81 -16.5t38 -76.5t-38 -76.5t-81 -16.5l-185 59l56 -415l-76 -840h-16l-76 840l57 417l-188 -61q-41 -14 -79 16.5t-38 76.5z" />
    <glyph glyph-name="daggerdbl" unicode="&#x2021;" 
d="M260 1124q-113 0 -133 -77l-8 -37h-51l41 219h518v-49l-295 -590q-20 -39 -40 -59.5t-54 -12.5q-20 8 -37 34t16 77l315 495h-272z" />
    <glyph glyph-name="bullet" unicode="&#x2022;" 
d="M193 170q0 -49 40.5 -91t111.5 -42t111 42t40 82t-17.5 62.5t-46 42.5t-125.5 64q-114 -61 -114 -160zM457 541q0 41 -32 73.5t-80 32.5t-81 -28.5t-33 -72.5t43 -75t88 -53q37 18 66 50t29 73zM240 367q-123 76 -123 152q0 82 67 136t159 54t161 -46t69 -111
q0 -109 -139 -167q176 -70 176 -199q0 -91 -78 -152t-187 -61q-108 0 -186.5 58t-78.5 141q0 84 49 127t111 68z" />
    <glyph glyph-name="ellipsis" unicode="&#x2026;" horiz-adv-x="1835" 
d="M1593 82q0 -41 -29.5 -69.5t-70.5 -28.5t-67.5 28.5t-26.5 69.5t26.5 69.5t67.5 28.5t70.5 -28.5t29.5 -69.5zM995 82q0 -41 -29.5 -69.5t-69.5 -28.5t-67.5 28.5t-27.5 69.5t27.5 69.5t67.5 28.5t69.5 -28.5t29.5 -69.5zM397 82q0 -41 -28.5 -69.5t-69.5 -28.5
t-68.5 28.5t-27.5 69.5t27.5 69.5t68.5 28.5t69.5 -28.5t28.5 -69.5z" />
    <glyph glyph-name="perthousand" unicode="&#x2030;" horiz-adv-x="628" 
d="M350 793q-102 0 -139 -107h229q10 33 -11 70t-79 37zM350 311q-126 0 -204 81t-78 198t86 195.5t191 78.5t170 -72.5t38 -173.5h-354q-12 -100 31.5 -166.5t154.5 -66.5q35 0 81 19.5t81 52.5l35 -43q-43 -45 -105.5 -74t-126.5 -29z" />
    <glyph glyph-name="guilsinglleft" unicode="&#x2039;" 
d="M602 766q0 -105 -76.5 -175.5t-186.5 -70.5t-175.5 50t-65.5 96q0 39 43 39q20 0 31.5 -18.5t43.5 -59.5t113 -41t116.5 51t35.5 111t-32.5 104.5t-90.5 54.5q-12 -16 -33 -50t-48 -34q-28 0 -39 23.5t16 52.5l215 227h-188q-116 0 -134 -79l-10 -37h-49l41 219h459v-55
l-170 -201q84 -27 134 -88t50 -119z" />
    <glyph glyph-name="guilsinglright" unicode="&#x203a;" 
d="M328 815v250l-189 -250h189zM451 743q0 -98 17 -119.5t40.5 -26.5t60.5 -5v-45h-364v45q78 0 100.5 28.5t22.5 122.5h-297v37l366 488h54v-453q43 0 68.5 21.5t41.5 87.5l8 34h45l-12 -215h-151z" />
    <glyph glyph-name="fraction" unicode="&#x2044;" 
d="M162 547v45q80 0 101.5 31t21.5 141v235q0 104 -28.5 132t-119.5 28v45l269 53v-493q0 -109 18 -134.5t41.5 -31.5t62.5 -6v-45h-366z" />
    <glyph glyph-name="trademark" unicode="&#x2122;" 
d="M86 0v47l283 254q53 47 72.5 87t19.5 99.5t-39.5 97.5t-91.5 38q-96 0 -134.5 -66.5t21.5 -157.5l-57 -53q-63 45 -81 106.5t4.5 117t83.5 94t131 38.5q128 0 205 -58.5t77 -141.5q0 -84 -41 -137.5t-86 -92.5l-191 -168h340l-20 -104h-496z" />
    <glyph glyph-name="Omega" unicode="&#x2126;" horiz-adv-x="1177" 
d="M897 784q0 243 -105.5 307t-240.5 64t-203.5 -110.5t-68.5 -251.5t31.5 -209t71.5 -108t101 -58v-418h-333l-13 324h49l7 -41q18 -93 49.5 -124.5t130.5 -31.5h35v223q-133 53 -211 170t-78 254q0 185 134 323t335.5 138t336 -138.5t134.5 -322.5q0 -136 -79.5 -252.5
t-209.5 -169.5v-225h35q101 0 128.5 27.5t35.5 57.5t16 71l6 41h49l-12 -324h-336v418q112 33 158.5 134t46.5 232z" />
    <glyph glyph-name="partialdiff" unicode="&#x2202;" horiz-adv-x="831" 
d="M256 894q0 -50 35 -82t102 -69v271q-55 -4 -96 -37t-41 -83zM614 358q0 58 -42 96t-105 72v-309q63 6 105 44.5t42 96.5zM659 1092v-347h-41q-22 214 -151 259v-302l104 -53q80 -41 121 -106.5t41 -125.5q0 -116 -77 -193t-189 -85v-174h-74v174q-61 10 -109 33t-77 33
q-29 -29 -35 -68h-37v350h41q12 -129 75.5 -192.5t141.5 -75.5v344l-86 45q-66 33 -117 97.5t-51 132.5q0 114 72.5 184t181.5 70v172h74v-181q72 -11 123 -49q24 24 31 58h38z" />
    <glyph glyph-name="Delta" unicode="&#x2206;" horiz-adv-x="1140" 
d="M559 1264h43l447 -1264h-957zM868 88l-317 905l-332 -905h649z" />
    <glyph glyph-name="product" unicode="&#x220f;" horiz-adv-x="1417" 
d="M426 283q0 -152 27.5 -188t66.5 -44t103 -8v-43h-545v43q63 0 102 8t65.5 43t26.5 189v665q0 155 -26.5 188t-65.5 41.5t-102 8.5v43h1261v-43q-127 0 -161.5 -42.5t-34.5 -195.5v-665q0 -152 27.5 -188t66.5 -44t102 -8v-43h-544v43q63 0 102 8t65.5 43t26.5 189v856
h-563v-856z" />
    <glyph glyph-name="summation" unicode="&#x2211;" horiz-adv-x="1224" 
d="M104 1229h988l18 -271h-43l-10 41q-10 41 -21.5 70t-48 56.5t-168.5 27.5h-528l479 -704l-448 -721h548q132 0 168.5 27.5t48 56t21.5 69.5l10 41h43l-18 -270h-1043v35l492 790l-488 717v35z" />
    <glyph glyph-name="minus" unicode="&#x2212;" horiz-adv-x="937" 
d="M170 426v90h598v-90h-598z" />
    <glyph glyph-name="radical" unicode="&#x221a;" horiz-adv-x="1124" 
d="M389 602l170 -420l496 1336h84l-582 -1563h-31l-250 594z" />
    <glyph glyph-name="infinity" unicode="&#x221e;" 
d="M517.5 46.5q-82.5 -73.5 -192.5 -73.5t-170.5 47.5t-60.5 96.5q0 16 11.5 29.5t32.5 13.5t30.5 -19.5t25 -42t42 -42t92.5 -19.5t107.5 56.5t41.5 126t-34.5 122.5t-96.5 53q-125 0 -160 -121h-69l41 408h411l-18 -102h-330l-16 -174q18 20 57 39.5t88 19.5t96.5 -19.5
t100.5 -73.5t53 -153t-82.5 -172.5z" />
    <glyph glyph-name="integral" unicode="&#x222b;" horiz-adv-x="514" 
d="M322 -160q0 -188 -86.5 -287.5t-215.5 -99.5q-86 0 -142 35t-79.5 76t-14.5 76.5t52 39.5t57.5 -21.5t26.5 -56t33 -56t65 -25.5t101 29t57 290v1039q0 195 97 290t239 95q82 0 131 -35t65.5 -78t2 -78t-56.5 -35t-56 24.5t-25.5 54.5t-30 54.5t-67.5 24.5
q-78 0 -115.5 -70.5t-37.5 -246.5v-1039z" />
    <glyph glyph-name="approxequal" unicode="&#x2248;" horiz-adv-x="937" 
d="M741 330q-60 -68 -120 -68t-152 34t-137 34q-73 0 -137 -68v103q60 67 122.5 67t149.5 -33.5t147 -33.5t127 67v-102zM741 602q-60 -67 -122.5 -67t-149.5 33.5t-147 33.5t-127 -67v102q60 68 121.5 68t149.5 -34t147 -34q60 0 128 68v-103z" />
    <glyph glyph-name="notequal" unicode="&#x2260;" horiz-adv-x="937" 
d="M768 635v-90h-197l-114 -166h311v-90h-375l-157 -221l-66 36l131 185h-131v90h195l116 166h-311v90h375l157 223l66 -39l-131 -184h131z" />
    <glyph glyph-name="lessequal" unicode="&#x2264;" horiz-adv-x="937" 
d="M733 209l-631 340l631 338l23 -39l-424 -299l424 -299zM836 -2h-734v90h734v-90z" />
    <glyph glyph-name="greaterequal" unicode="&#x2265;" horiz-adv-x="937" 
d="M102 -2v90h734v-90h-734zM207 209l-25 41l426 299l-426 299l25 39l629 -338z" />
    <glyph glyph-name="lozenge" unicode="&#x25ca;" horiz-adv-x="1011" 
d="M805 606l-293 514l-295 -514l295 -536zM905 604l-393 -698l-393 698l393 678z" />
    <glyph glyph-name="fi" unicode="&#xfb01;" 
d="M517 592q-83 -72 -192 -72t-170 47.5t-61 94.5q0 18 11.5 30.5t32.5 12.5t30.5 -19.5t25 -42t42 -42t92.5 -19.5t107.5 56t41.5 126t-34.5 124t-110.5 54q-47 0 -88 -31.5t-58 -89.5h-69l41 408h411l-18 -103h-330l-16 -176q18 23 57 41.5t88 18.5t96.5 -19.5
t100.5 -73.5t53 -153q0 -100 -83 -172z" />
    <glyph glyph-name="fl" unicode="&#xfb02;" 
d="M254 646q47 -62 106 -62t91 50t32 108.5t-38 109.5t-93 51t-94 -21.5t-53 -56.5q2 -117 49 -179zM333 965q119 0 195 -66t76 -156t-70.5 -156.5t-171.5 -66.5t-187.5 73t-86.5 243t78.5 294.5t208.5 124.5q86 0 137 -36.5t51 -71.5q0 -16 -12.5 -25.5t-26.5 -9.5t-52 38
t-86 38q-144 0 -177 -266q60 43 124 43z" />
    <glyph glyph-name="NUL" horiz-adv-x="0" 
 />
    <glyph glyph-name="DC1" horiz-adv-x="0" 
 />
    <glyph glyph-name="DC2" horiz-adv-x="0" 
 />
    <glyph glyph-name="DC3" horiz-adv-x="0" 
 />
    <glyph glyph-name="DC4" horiz-adv-x="0" 
 />
    <glyph glyph-name="DEL" horiz-adv-x="0" 
 />
    <glyph glyph-name="DLE" horiz-adv-x="0" 
 />
    <glyph glyph-name="HT" horiz-adv-x="0" 
 />
    <glyph glyph-name="LF" horiz-adv-x="0" 
 />
    <glyph glyph-name="RS" horiz-adv-x="0" 
 />
    <glyph glyph-name="US" horiz-adv-x="0" 
 />
    <glyph glyph-name="apple" horiz-adv-x="0" 
 />
    </font>
</defs>
</svg>
