<?xml version="1.0" standalone="no"?>
<!DOCTYPE svg PUBLIC "-//W3C//DTD SVG 1.1//EN" "http://www.w3.org/Graphics/SVG/1.1/DTD/svg11.dtd" >
<svg xmlns="http://www.w3.org/2000/svg">
<metadata>
Created by FontPrep 20130207 at Mon Jan  5 16:01:34 2015
 By Adam Walzer
Copyright (C) 2004 Hoefler &#38; Frere-Jones Typography, Inc. www.typography.com
</metadata>
<defs>
<font id="97085aa593e967884c9fc9802430ddb6" horiz-adv-x='1024' >
  <font-face 
    font-family="WhitneyHTF-SemiBold"
    font-weight="700"
    font-stretch="normal"
    units-per-em="2048"
    panose-1="0 0 0 0 0 0 0 0 0 0"
    ascent="1638"
    descent="-410"
    x-height="989"
    cap-height="1413"
    bbox="-162 -410 2034 1952"
    underline-thickness="40"
    underline-position="-252"
    unicode-range="U+0020-FB02"
  />
<missing-glyph horiz-adv-x="1024" 
 />
    <glyph glyph-name=".notdef" horiz-adv-x="1024" 
 />
    <glyph glyph-name=".null" horiz-adv-x="0" 
 />
    <glyph glyph-name="nonmarkingreturn" horiz-adv-x="681" 
 />
    <glyph glyph-name="space" unicode=" " horiz-adv-x="438" 
 />
    <glyph glyph-name="exclam" unicode="!" horiz-adv-x="581" 
d="M424 0h-268v299h268v-299zM442 1413l-73 -926l-154 -34l-76 960h303z" />
    <glyph glyph-name="quotedbl" unicode="&#x22;" horiz-adv-x="952" 
d="M401 1384l-69 -520l-154 35l-65 485h288zM840 1384l-72 -520l-152 35l-67 485h291z" />
    <glyph glyph-name="numbersign" unicode="#" horiz-adv-x="1366" 
d="M551 860l-53 -336h317l51 336h-315zM80 322v206h250l51 328h-229l-35 207h297l53 326h170l-51 -326h313l51 338l164 -37l-47 -301h217v-207h-250l-51 -328h234l32 -206h-299l-51 -326h-170l51 326h-313l-53 -338l-164 36l49 302h-219z" />
    <glyph glyph-name="dollar" unicode="$" horiz-adv-x="1101" 
d="M541 1200q-213 0 -213 -162q0 -68 40 -108t146 -78l53 348h-26zM547 186q246 0 246 189q0 72 -40 119t-151 86l-59 -394h4zM1016 380q0 -178 -130 -283t-356 -105h-10l-37 -242l-141 31q2 14 6 37q4 24 11 72t12 81l4 33q-166 25 -303 94l32 211q160 -90 312 -112l63 424
q-199 67 -285 151t-88 253q0 169 123 268t338 100h21l24 153l144 -33l-21 -135q127 -25 228 -75l-35 -211q-109 66 -232 92l-57 -373q199 -68 288 -160q89 -93 89 -271z" />
    <glyph glyph-name="percent" unicode="%" horiz-adv-x="1837" 
d="M1414 133q75 -1 113 69t38 188t-39 188t-114 70t-113 -70q-37 -68 -37 -186t38 -188t114 -71zM1751 391q0 -188 -96 -298q-95 -109 -241 -109t-243 109q-96 110 -96 298t96 298q95 110 241 110t242 -110t97 -298zM573 993q0 119 -37 189q-38 70 -114 70t-114 -70
t-38 -187t39 -187t113 -71q151 0 151 256zM1442 1360l-885 -1374l-162 39l883 1374zM422 1401q146 0 242 -109t96 -298t-96 -299q-96 -109 -242 -109t-242 109q-96 110 -96 298t96 298t242 110z" />
    <glyph glyph-name="ampersand" unicode="&#x26;" horiz-adv-x="1376" 
d="M817 305l-319 334q-178 -102 -179 -250q0 -92 66 -150t172 -59q149 0 260 125zM63 358q0 268 302 426q-68 76 -99 146t-30 162q0 154 108 250t300 98q194 0 355 -88l-38 -236q-176 106 -312 107q-76 0 -117 -39t-40 -101q0 -88 112 -206l340 -361q53 133 78 318l215 -48
q-41 -258 -141 -438l293 -315l-273 -45l-166 170q-172 -182 -406 -182t-357 100q-124 100 -124 282z" />
    <glyph glyph-name="quotesingle" unicode="'" horiz-adv-x="518" 
d="M406 1384l-70 -520l-158 35l-65 485h293z" />
    <glyph glyph-name="parenleft" unicode="(" horiz-adv-x="833" 
d="M381 634q0 -218 90 -397t299 -382l-207 -48q-227 186 -339 379t-111 451q0 547 563 850l29 -191q-166 -132 -245 -288t-79 -374z" />
    <glyph glyph-name="parenright" unicode=")" horiz-adv-x="833" 
d="M719 647q0 -545 -561 -850l-31 191q166 133 246 290q80 156 80 374q-1 218 -91 398t-299 382l207 47q227 -188 338 -381t111 -451z" />
    <glyph glyph-name="asterisk" unicode="*" horiz-adv-x="858" 
d="M784 1141l-221 -123l109 -232l-60 -38l-184 172l-184 -172l-58 38l107 232l-219 123l20 65l252 -26l45 243h74l45 -243l252 26z" />
    <glyph glyph-name="plus" unicode="+" horiz-adv-x="1171" 
d="M1061 594h-373v-385h-205v385h-372v197h372v385h205v-385h373v-197z" />
    <glyph glyph-name="comma" unicode="," horiz-adv-x="497" 
d="M426 299l-233 -588l-142 35l94 553h281z" />
    <glyph glyph-name="hyphen" unicode="-" horiz-adv-x="724" 
d="M629 471h-533v236h533v-236z" />
    <glyph glyph-name="period" unicode="." horiz-adv-x="497" 
d="M383 0h-268v299h268v-299z" />
    <glyph glyph-name="slash" unicode="/" horiz-adv-x="1091" 
d="M1059 1386l-924 -1646l-211 45l924 1647z" />
    <glyph glyph-name="zero" unicode="0" horiz-adv-x="1284" 
d="M930 692q0 246 -74 377t-213 131t-215 -131t-76 -377t76 -377t215 -131t213 131t74 377zM1194 692q0 -340 -150 -529t-402 -189t-402 188q-150 190 -150 530t150 530t402 189q252 1 402 -189t150 -530z" />
    <glyph glyph-name="one" unicode="1" horiz-adv-x="782" 
d="M614 0h-262v1130l-282 -108l-29 207l342 157h231v-1386z" />
    <glyph glyph-name="two" unicode="2" horiz-adv-x="1112" 
d="M86 0v193l496 505q86 90 123 155t36 136q0 193 -215 193q-180 0 -372 -154l-33 234q191 147 417 147t345 -105t118 -288q0 -130 -58 -230t-195 -235l-336 -334h581l33 -217h-940z" />
    <glyph glyph-name="three" unicode="3" horiz-adv-x="1083" 
d="M999 383q0 -190 -139 -300q-140 -110 -376 -110t-418 109l36 225q180 -113 379 -112q121 0 189 51t67 147q0 225 -340 225h-73l-33 205h117q305 0 305 197q-1 80 -59 125t-171 45q-193 0 -362 -123l-33 217q178 127 412 127t355 -102q120 -102 120 -260q0 -236 -250 -322
q274 -82 274 -344z" />
    <glyph glyph-name="four" unicode="4" horiz-adv-x="1226" 
d="M729 485v635l-426 -635h426zM1182 295h-207v-295h-246v295h-668v174l615 917h299v-901h207v-190z" />
    <glyph glyph-name="five" unicode="5" horiz-adv-x="1107" 
d="M1028 433q0 -211 -150 -336q-150 -124 -382 -124t-418 101l39 229q178 -109 370 -108q129 0 210 61q81 60 81 172t-66 171q-67 58 -187 58t-216 -41l-176 39l49 729h772l35 -221h-600l-24 -323q102 29 208 28q207 0 331 -112t124 -323z" />
    <glyph glyph-name="six" unicode="6" horiz-adv-x="1167" 
d="M848 428q0 233 -242 234q-141 -1 -276 -101q2 -180 78 -281q76 -102 192 -102t182 68t66 182zM690 864q182 0 295 -112t113 -314q0 -203 -140 -334t-364 -131q-223 0 -365 153q-141 153 -141 433q0 350 209 562t565 292l33 -219q-467 -110 -551 -436q164 106 346 106z
" />
    <glyph glyph-name="seven" unicode="7" horiz-adv-x="1095" 
d="M1012 1384v-202l-535 -1196l-252 49l508 1124h-635l-32 225h946z" />
    <glyph glyph-name="eight" unicode="8" horiz-adv-x="1183" 
d="M131 1044q0 166 130 266t339 101q209 0 333 -98t124 -252q0 -197 -226 -332q139 -69 205 -151t66 -213q0 -170 -139 -281t-375 -111t-371 111t-135 274q0 224 268 367q-219 119 -219 319zM594 168q114 0 186 54q70 54 70 146t-66 144q-66 53 -252 131
q-201 -109 -200 -266q0 -97 74 -153t188 -56zM813 1049q0 80 -58 127q-57 47 -161 47t-162 -49t-57 -125q0 -77 59 -127t213 -111q166 102 166 238z" />
    <glyph glyph-name="nine" unicode="9" horiz-adv-x="1167" 
d="M838 811q0 187 -76 291t-193 104t-183 -68t-67 -190q0 -244 242 -243q144 0 277 98v8zM477 504q-182 0 -295 112q-112 112 -112 321q0 210 139 342t363 132t366 -153t141 -433q0 -352 -214 -567t-578 -287l-33 219q469 94 563 416q-158 -102 -340 -102z" />
    <glyph glyph-name="colon" unicode=":" horiz-adv-x="516" 
d="M391 0h-268v297h268v-297zM391 694h-268v295h268v-295z" />
    <glyph glyph-name="semicolon" unicode=";" horiz-adv-x="516" 
d="M420 297l-234 -586l-143 35l96 551h281zM406 694h-269v295h269v-295z" />
    <glyph glyph-name="less" unicode="&#x3c;" horiz-adv-x="1171" 
d="M1032 150l-915 454v176l915 455v-221l-667 -320l667 -321v-223z" />
    <glyph glyph-name="equal" unicode="=" horiz-adv-x="1208" 
d="M1061 352h-911v205h911v-205zM1061 827h-911v205h911v-205z" />
    <glyph glyph-name="greater" unicode="&#x3e;" horiz-adv-x="1171" 
d="M1055 604l-916 -454v221l668 319l-668 322v223l916 -455v-176z" />
    <glyph glyph-name="question" unicode="?" horiz-adv-x="1048" 
d="M502 1210q-195 0 -396 -155l-34 237q205 147 456 148q203 0 321 -100t118 -271q-1 -170 -101 -271t-311 -177l-12 -142l-150 -33l-24 326l63 25q150 53 212 108t62 136t-54 125q-56 44 -150 44zM592 0h-270v299h270v-299z" />
    <glyph glyph-name="at" unicode="@" horiz-adv-x="1710" 
d="M676 98q-84 0 -148 69q-63 69 -63 198q0 245 135 401t322 156q152 0 303 -58l-66 -428q-8 -53 -8 -107t33 -87t96 -33q108 0 178 112t70 308q0 291 -163 443t-429 153q-310 0 -532 -242t-222 -598q0 -303 162 -451t422 -149q260 0 455 100l12 -73q-197 -98 -461 -99
q-317 0 -499 173q-181 173 -181 497q0 244 113 455t309 336q197 125 430 124q304 0 488 -179t184 -488q0 -244 -102 -388t-283 -145q-96 0 -168 45q-71 45 -96 123q-78 -88 -143 -128q-64 -40 -148 -40zM909 764q-96 0 -169 -106t-72 -263q0 -127 88 -127q45 0 89 34
q43 34 111 114l54 332q-53 16 -101 16z" />
    <glyph glyph-name="A" unicode="A" horiz-adv-x="1423" 
d="M899 580l-192 544l-193 -544h385zM1380 35l-270 -49l-135 372h-535l-129 -358h-268l530 1419h289z" />
    <glyph glyph-name="B" unicode="B" horiz-adv-x="1159" 
d="M827 420q0 219 -276 219h-141v-432h145q131 0 202 54q70 55 70 159zM778 1024q0 182 -231 182h-137v-375h125q119 1 181 51t62 142zM1087 412q0 -204 -139 -308t-393 -104h-405v1413h411q231 0 350 -97t119 -269q0 -209 -205 -295q262 -82 262 -340z" />
    <glyph glyph-name="C" unicode="C" horiz-adv-x="1280" 
d="M764 -25q-307 0 -489 200q-181 200 -181 530q0 329 184 531t484 202q227 0 395 -103l-39 -256q-166 125 -348 125t-291 -133t-109 -364t113 -364q113 -132 296 -132t364 119l37 -234q-190 -121 -416 -121z" />
    <glyph glyph-name="D" unicode="D" horiz-adv-x="1441" 
d="M1067 704q0 242 -126 364t-345 122h-176v-967h172q227 0 351 120t124 361zM1343 709q1 -321 -195 -515t-550 -194h-448v1413h448q360 0 552 -191t193 -513z" />
    <glyph glyph-name="E" unicode="E" horiz-adv-x="1060" 
d="M991 0h-841v1413h821v-229h-553v-332h426l37 -234h-463v-389h573v-229z" />
    <glyph glyph-name="F" unicode="F" horiz-adv-x="1005" 
d="M940 1178h-520v-359h397l39 -237h-436v-582h-270v1413h790v-235z" />
    <glyph glyph-name="G" unicode="G" horiz-adv-x="1411" 
d="M94 704q0 332 186 534t504 202q242 0 430 -113l-38 -252q-186 133 -390 133t-309 -135q-106 -135 -106 -367t109 -368q110 -135 319 -135q129 0 237 57v313h-286l-33 218h567v-674q-221 -143 -496 -144q-330 0 -512 199t-182 532z" />
    <glyph glyph-name="H" unicode="H" horiz-adv-x="1443" 
d="M1294 0h-272v614h-600v-614h-272v1413h272v-557h600v557h272v-1413z" />
    <glyph glyph-name="I" unicode="I" horiz-adv-x="589" 
d="M432 0h-272v1413h272v-1413z" />
    <glyph glyph-name="J" unicode="J" horiz-adv-x="813" 
d="M676 389q0 -207 -117 -305t-317 -98q-80 0 -162 14l-37 236q76 -20 162 -21q201 0 201 209v989h270v-1024z" />
    <glyph glyph-name="K" unicode="K" horiz-adv-x="1288" 
d="M422 0h-272v1413h272v-620l520 620h311l-561 -653l588 -723l-289 -51l-569 702v-688z" />
    <glyph glyph-name="L" unicode="L" horiz-adv-x="976" 
d="M150 0v1413h272v-1173h471l37 -240h-780z" />
    <glyph glyph-name="M" unicode="M" horiz-adv-x="1832" 
d="M1724 0h-270l-76 1032l-356 -1036h-238l-358 1036l-72 -1032h-243l108 1413h344l359 -1067l356 1067h338z" />
    <glyph glyph-name="N" unicode="N" horiz-adv-x="1441" 
d="M1292 0h-225l-666 973v-973h-251v1413h256l634 -926v926h252v-1413z" />
    <glyph glyph-name="O" unicode="O" horiz-adv-x="1515" 
d="M1147 707q-1 233 -105 370t-284 137t-284 -137t-103 -370q0 -233 103 -371q102 -138 284 -137q182 -1 286 137t103 371zM1421 709q0 -330 -181 -533t-482 -203t-483 202q-181 202 -181 531q0 330 182 532t484 202t482 -200q179 -200 179 -531z" />
    <glyph glyph-name="P" unicode="P" horiz-adv-x="1136" 
d="M815 973q0 223 -266 223h-129v-457h119q276 1 276 234zM563 1413q246 1 382 -111t136 -329t-145 -335t-395 -118h-121v-520h-270v1413h413z" />
    <glyph glyph-name="Q" unicode="Q" horiz-adv-x="1515" 
d="M1147 705q-1 231 -105 370t-284 139t-284 -138t-103 -370q0 -232 104 -374q103 -142 283 -144q180 0 284 143t105 374zM1421 719q0 -240 -102 -409t-281 -244l367 -125l-51 -234l-779 285q-481 174 -481 713q0 331 182 533t484 202t481 -198q180 -198 180 -523z" />
    <glyph glyph-name="R" unicode="R" horiz-adv-x="1214" 
d="M420 541v-541h-270v1413h438q240 1 373 -109t133 -315q0 -295 -283 -397l377 -555l-277 -51l-368 555h-123zM827 974q0 108 -66 165q-67 57 -194 57h-149v-448h137q127 0 200 59q72 59 72 167z" />
    <glyph glyph-name="S" unicode="S" horiz-adv-x="1091" 
d="M1010 403q0 -201 -132 -311t-356 -108q-224 0 -432 98l41 248q213 -125 408 -125q96 0 153 45q58 45 58 125t-50 126q-50 47 -234 123q-185 76 -270 164t-85 259t127 277q128 106 332 106t370 -87l-41 -245q-168 111 -334 110q-96 0 -145 -42t-49 -110t48 -110
q48 -43 193 -104q222 -92 310 -184t88 -255z" />
    <glyph glyph-name="T" unicode="T" horiz-adv-x="1239" 
d="M752 1178v-1178h-273v1178h-420v235h1098l39 -235h-444z" />
    <glyph glyph-name="U" unicode="U" horiz-adv-x="1409" 
d="M1276 553q0 -276 -157 -427t-418 -151t-413 150t-153 422v866h271v-852q0 -166 76 -258t222 -92q148 0 224 89t76 255v858h272v-860z" />
    <glyph glyph-name="V" unicode="V" horiz-adv-x="1402" 
d="M1360 1413l-531 -1419h-266l-520 1384l287 49l377 -1083l370 1069h283z" />
    <glyph glyph-name="W" unicode="W" horiz-adv-x="2054" 
d="M2001 1413l-406 -1413h-258l-313 1028l-313 -1028h-256l-396 1376l283 51l266 -1011l295 997h273l294 -997l259 997h272z" />
    <glyph glyph-name="X" unicode="X" horiz-adv-x="1329" 
d="M506 727l-422 649l285 51l303 -491l289 477h286l-428 -665l465 -711l-285 -51l-344 551l-82 -136q-84 -133 -167 -266l-82 -135h-285z" />
    <glyph glyph-name="Y" unicode="Y" horiz-adv-x="1339" 
d="M799 0h-273v539l-493 843l282 45l359 -639l346 625h291l-512 -872v-541z" />
    <glyph glyph-name="Z" unicode="Z" horiz-adv-x="1247" 
d="M90 0v199l731 991h-665l-35 223h1030v-199l-731 -991h715l34 -223h-1079z" />
    <glyph glyph-name="bracketleft" unicode="[" horiz-adv-x="847" 
d="M162 -213v1626h592v-164h-355v-1296h338l27 -166h-602z" />
    <glyph glyph-name="backslash" unicode="\" horiz-adv-x="1091" 
d="M1167 -217l-211 -45l-923 1646l209 46z" />
    <glyph glyph-name="bracketright" unicode="]" horiz-adv-x="847" 
d="M684 -213h-592v166h357v1296h-340l-27 164h602v-1626z" />
    <glyph glyph-name="asciicircum" unicode="^" 
d="M774 1141l-141 -29l-168 141l-162 -133h-156l205 295h230z" />
    <glyph glyph-name="underscore" unicode="_" 
d="M934 -213h-938v143h938v-143z" />
    <glyph glyph-name="grave" unicode="`" 
d="M674 1120h-162l-289 254l301 56z" />
    <glyph glyph-name="a" unicode="a" horiz-adv-x="1030" 
d="M313 281q0 -53 32 -84t89 -31q126 0 232 106v222q-199 -25 -276 -79t-77 -134zM911 0h-211l-20 129q-141 -150 -330 -149q-127 0 -204 74t-76 200q0 176 144 264t452 119v29q0 147 -170 147q-150 0 -330 -80l-31 197q203 80 395 80t287 -78q94 -78 94 -254v-678z" />
    <glyph glyph-name="b" unicode="b" horiz-adv-x="1099" 
d="M776 508q0 139 -51 212t-137 73q-109 0 -217 -129v-449q74 -27 155 -27q250 1 250 320zM658 1010q160 0 262 -124q104 -124 104 -377t-132 -387t-352 -134t-415 65v1387l246 39v-600q127 131 287 131z" />
    <glyph glyph-name="c" unicode="c" horiz-adv-x="942" 
d="M532 -18q-200 0 -329 135t-129 377t135 379t327 137t324 -84l-35 -221q-123 92 -246 92t-191 -79t-66 -224q0 -145 71 -224q72 -78 198 -78t247 95l32 -209q-138 -96 -338 -96z" />
    <glyph glyph-name="d" unicode="d" horiz-adv-x="1107" 
d="M545 803q-99 0 -161 -82q-62 -83 -62 -231t52 -220t138 -71q116 0 225 135v426q-92 43 -192 43zM983 0h-211l-20 137q-131 -157 -299 -157t-273 123q-104 124 -104 375t123 386t309 135q123 0 229 -36v477l246 39v-1479z" />
    <glyph glyph-name="e" unicode="e" horiz-adv-x="1028" 
d="M518 840q-76 0 -129 -62t-67 -178h393q-25 240 -197 240zM584 170q164 0 340 123l28 -193q-174 -120 -394 -120t-352 129t-132 376t126 385t332 140q206 0 314 -140t108 -364l-2 -60h-635q18 -276 267 -276z" />
    <glyph glyph-name="f" unicode="f" horiz-adv-x="667" 
d="M426 1135v-146h188l31 -201h-219v-788h-244v788h-143v201h143v170q0 301 342 301q51 0 101 -8l32 -201q-49 8 -102 9q-129 0 -129 -125z" />
    <glyph glyph-name="g" unicode="g" horiz-adv-x="1062" 
d="M887 666q0 -156 -115 -248t-280 -92q-43 0 -80 6q-41 -30 -41 -54q1 -24 33 -35t151 -28l127 -12q162 -23 246 -79t84 -165q0 -154 -148 -243t-365 -89q-216 -1 -347 63q-132 64 -132 187t187 229q-57 45 -57 107q0 82 124 158q-186 88 -186 288q0 158 114 254
q114 97 284 97t280 -92l242 86l32 -197l-180 -12q27 -55 27 -129zM488 479q78 1 126 53t48 133t-48 134t-128 53q-79 0 -125 -54t-46 -136t47 -132q47 -51 126 -51zM338 49q-104 -74 -104 -140q0 -65 69 -101q70 -36 202 -36t206 39q73 38 73 87q0 48 -38 72t-128 38
l-133 17q-69 8 -147 24z" />
    <glyph glyph-name="h" unicode="h" horiz-adv-x="1089" 
d="M969 0h-246v647q0 145 -127 146q-106 0 -225 -125v-668h-246v1440l246 39v-615q158 146 305 146t220 -79t73 -218v-713z" />
    <glyph glyph-name="i" unicode="i" horiz-adv-x="516" 
d="M381 0h-246v989h246v-989zM406 1294q0 -61 -42 -100t-104 -39t-104 39q-43 39 -43 100q0 60 43 102t104 42t104 -41q42 -42 42 -103z" />
    <glyph glyph-name="j" unicode="j" horiz-adv-x="518" 
d="M381 -76q0 -297 -305 -297q-74 0 -96 8l-31 201q31 -8 78 -8q109 0 108 117v1044h246v-1065zM406 1294q0 -61 -42 -100t-104 -39t-104 39q-43 39 -43 100q0 60 43 102t104 42t104 -41q42 -42 42 -103z" />
    <glyph glyph-name="k" unicode="k" horiz-adv-x="1009" 
d="M371 0h-246v1440l246 39v-899l323 409h277l-365 -442l387 -524l-260 -37l-362 503v-489z" />
    <glyph glyph-name="l" unicode="l" horiz-adv-x="516" 
d="M381 0h-246v1440l246 39v-1479z" />
    <glyph glyph-name="m" unicode="m" horiz-adv-x="1665" 
d="M1544 0h-246v647q0 145 -120 146q-100 0 -220 -123v-670h-245v647q0 145 -123 146q-100 0 -219 -123v-670h-246v989h209l22 -139q168 160 326 160q193 0 254 -160q160 160 330 160q137 0 208 -78t70 -219v-713z" />
    <glyph glyph-name="n" unicode="n" horiz-adv-x="1089" 
d="M969 0h-246v647q0 145 -127 146q-106 0 -225 -125v-668h-246v989h209l22 -139q168 160 318 160t222 -79q73 -79 73 -218v-713z" />
    <glyph glyph-name="o" unicode="o" horiz-adv-x="1079" 
d="M538 807q-108 0 -166 -86t-58 -226q0 -139 58 -227q60 -88 168 -88t167 86t59 226q0 141 -60 228t-168 87zM1006 494q0 -238 -132 -376t-336 -138q-206 0 -335 138t-129 376t130 376t336 140q206 0 336 -139t130 -377z" />
    <glyph glyph-name="p" unicode="p" horiz-adv-x="1107" 
d="M784 498q0 148 -52 222q-52 73 -138 73q-115 0 -223 -140v-424q88 -43 189 -43t163 82q61 82 61 230zM657 1010q167 0 271 -125t104 -375t-124 -385t-308 -135q-127 0 -229 39v-373l-246 -37v1370h209l22 -135q135 156 301 156z" />
    <glyph glyph-name="q" unicode="q" horiz-adv-x="1099" 
d="M573 801q-252 0 -251 -320q0 -139 52 -211t138 -71q108 0 217 127v446q-80 29 -156 29zM440 -20q-158 0 -261 123q-103 124 -103 377t132 387t351 134t416 -65v-1280l-246 -37v492q-131 -131 -289 -131z" />
    <glyph glyph-name="r" unicode="r" horiz-adv-x="751" 
d="M371 0h-246v989h209l31 -198q119 209 317 219l39 -244q-113 -8 -205 -62t-145 -137v-567z" />
    <glyph glyph-name="s" unicode="s" horiz-adv-x="927" 
d="M858 285q0 -141 -103 -223t-304 -80q-201 0 -377 96l32 205q178 -117 352 -117t173 102q0 51 -41 80q-42 29 -194 67q-152 39 -229 105t-77 196t97 211t280 81t334 -70l-33 -205q-160 90 -305 90t-146 -90q0 -41 38 -67t147 -54q200 -50 278 -118t78 -209z" />
    <glyph glyph-name="t" unicode="t" horiz-adv-x="716" 
d="M502 -16q-156 0 -241 68t-85 229v507h-139v201h139v314l242 36v-350h203l30 -201h-233v-466q0 -123 131 -123q47 0 78 8l30 -207q-78 -16 -155 -16z" />
    <glyph glyph-name="u" unicode="u" horiz-adv-x="1089" 
d="M965 0h-209l-23 139q-168 -160 -330 -159q-137 0 -209 78t-73 221v710h246v-647q0 -143 125 -143q109 0 227 123v667h246v-989z" />
    <glyph glyph-name="v" unicode="v" horiz-adv-x="1003" 
d="M971 989l-350 -993h-240l-346 975l258 33l221 -703l213 688h244z" />
    <glyph glyph-name="w" unicode="w" horiz-adv-x="1480" 
d="M1442 989l-297 -989h-219l-187 655l-184 -655h-219l-295 971l246 33l176 -660l180 645h217l178 -645l172 645h232z" />
    <glyph glyph-name="x" unicode="x" horiz-adv-x="991" 
d="M946 18l-250 -32l-211 344l-196 -330h-244l317 498l-299 473l250 33l189 -316l184 301h242l-301 -471z" />
    <glyph glyph-name="y" unicode="y" horiz-adv-x="1015" 
d="M219 -373q-53 0 -90 11l-33 202q57 -14 115 -14q115 0 160 104l22 66l-358 975l256 33l229 -705l221 690h244l-375 -1042q-63 -178 -153 -249t-238 -71z" />
    <glyph glyph-name="z" unicode="z" horiz-adv-x="942" 
d="M66 0v188l491 605h-438l-33 196h768v-188l-494 -604h486l33 -197h-813z" />
    <glyph glyph-name="braceleft" unicode="{" horiz-adv-x="1005" 
d="M645 -213q-151 0 -229 70t-78 198q0 47 14 139t15 138q0 188 -211 188h-64l-24 162h90q209 0 209 186q-1 46 -15 138t-14 139q0 129 78 199t229 69h268v-164h-198q-135 0 -135 -123q0 -41 13 -129t13 -133q0 -117 -56 -177t-165 -85v-4q109 -23 165 -84t56 -178
q0 -45 -13 -133t-13 -129q0 -121 133 -121h182l27 -166h-277z" />
    <glyph glyph-name="bar" unicode="|" horiz-adv-x="579" 
d="M395 -348l-211 -33v1827l211 33v-1827z" />
    <glyph glyph-name="braceright" unicode="}" horiz-adv-x="1005" 
d="M848 520q-209 0 -209 -188q0 -47 14 -137t15 -140q0 -129 -78 -199t-230 -69h-268v166h199q137 0 137 119q0 41 -14 130t-15 134q1 117 57 178t165 84v4q-109 25 -165 85t-57 177q0 45 15 135q14 90 14 131q0 119 -137 119h-182l-27 164h278q154 0 231 -70t77 -198
q0 -45 -14 -137t-15 -140q0 -186 211 -186h63l25 -162h-90z" />
    <glyph glyph-name="asciitilde" unicode="~" horiz-adv-x="837" 
d="M565 449q-55 0 -149 46t-129 46q-45 0 -66 -99l-131 29q29 258 182 258q54 0 150 -45t129 -45q41 0 65 98l132 -28q-33 -260 -183 -260z" />
    <glyph glyph-name="nbspace" unicode="&#xa0;" horiz-adv-x="219" 
 />
    <glyph glyph-name="exclamdown" unicode="&#xa1;" horiz-adv-x="581" 
d="M442 0h-303l74 926l154 35zM424 1114h-268v299h268v-299z" />
    <glyph glyph-name="cent" unicode="&#xa2;" horiz-adv-x="999" 
d="M473 410l90 587q-117 -8 -180 -86t-64 -221q0 -219 154 -280zM86 688q0 240 138 374t356 134h6l32 207l144 -31l-29 -190q96 -20 170 -66l-31 -211q-94 63 -180 80l-92 -598q150 0 285 92l26 -196q-149 -97 -333 -97l-33 -206l-144 32l31 191q-162 39 -254 166t-92 319z
" />
    <glyph glyph-name="sterling" unicode="&#xa3;" horiz-adv-x="1112" 
d="M829 1411q104 0 197 -25l-33 -223q-71 21 -157 21t-140 -48t-92 -161l-57 -184h303l35 -211h-406l-114 -365h632l37 -215h-940v174l129 406h-129v211h197l82 258q59 190 168 276t288 86z" />
    <glyph glyph-name="currency" unicode="&#xa4;" horiz-adv-x="1228" 
d="M53 786v152h191q53 217 198 344q146 127 354 127t359 -92l-37 -225q-150 100 -282 100q-250 0 -328 -254h432l25 -152h-484q-4 -61 -4 -104t2 -70h473v-151h-448q76 -266 330 -266q154 0 307 102l37 -215q-176 -106 -390 -106t-359 127q-144 128 -191 358h-172l-23 151
h174q-2 25 -2 69t4 105h-166z" />
    <glyph glyph-name="yen" unicode="&#xa5;" horiz-adv-x="1277" 
d="M760 459v-146h327v-147h-327v-166h-256v166h-316l-22 147h338v146h-328v147h289l-432 748l270 45l340 -637l328 622h276l-450 -778h278l23 -147h-338z" />
    <glyph glyph-name="brokenbar" unicode="&#xa6;" horiz-adv-x="1024" 
d="M51 -410v2048h922v-2048h-922z" />
    <glyph glyph-name="section" unicode="&#xa7;" horiz-adv-x="1122" 
d="M78 643q0 102 65 199l187 -33q-35 -59 -35 -109t37 -76t141 -51l135 -30q160 -37 237 -97t77 -184q0 -123 -98 -201q-98 -77 -271 -77q-172 0 -320 59l31 186q154 -72 297 -71q63 0 97 26t34 64q0 40 -32 62t-109 38l-180 43q-160 37 -227 93q-66 57 -66 159zM1042 740
q0 -103 -63 -197l-186 32q70 132 -3 185q-38 27 -143 51l-133 31q-160 37 -236 97t-77 183q0 123 98 201t270 78t318 -60l-31 -186q-150 72 -295 72q-63 0 -97 -25q-34 -24 -34 -64t32 -63t107 -39l183 -43q158 -37 224 -93t66 -160z" />
    <glyph glyph-name="dieresis" unicode="&#xa8;" 
d="M389 1126h-235v236h235v-236zM776 1126h-235v236h235v-236z" />
    <glyph glyph-name="copyright" unicode="&#xa9;" horiz-adv-x="1636" 
d="M850 295q-182 0 -291 115t-109 302t111 303t287 115q129 0 246 -63l-27 -170q-103 76 -207 76t-162 -71q-58 -72 -59 -190q0 -118 60 -188q59 -70 163 -70t219 76l27 -159q-125 -76 -258 -76zM1436 707q0 309 -174 484t-444 175t-444 -175q-173 -175 -173 -484t174 -485
t444 -175q270 0 444 175q173 176 173 485zM1526 709q0 -328 -198 -532t-512 -204t-510 202t-195 530q-1 327 197 531t512 204t510 -202t196 -529z" />
    <glyph glyph-name="ordfeminine" unicode="&#xaa;" horiz-adv-x="800" 
d="M500 915v132q-229 -27 -230 -129q0 -72 78 -72t152 69zM111 455v135h557l22 -135h-579zM672 729h-150l-12 80q-98 -92 -219 -92q-86 0 -137 49t-52 131q0 117 96 175t302 77v16q0 94 -115 95q-94 0 -219 -56l-21 135q123 55 261 55t202 -52q63 -52 64 -166v-447z" />
    <glyph glyph-name="guillemotleft" unicode="&#xab;" horiz-adv-x="1124" 
d="M588 989l-260 -493l247 -471l-176 -39l-342 510l334 493h197zM1040 989l-260 -493l250 -471l-180 -39l-338 510l332 493h196z" />
    <glyph glyph-name="logicalnot" unicode="&#xac;" horiz-adv-x="1171" 
d="M1061 588h-950v209h950v-209z" />
    <glyph glyph-name="registered" unicode="&#xae;" horiz-adv-x="1153" 
d="M569 999q88 0 88 75t-86 75h-55v-150h53zM516 918v-201h-117v526h181q92 0 143 -42t51 -118q0 -106 -100 -145l141 -207l-121 -20l-139 207h-39zM975 964q0 196 -114 308t-286 112q-173 0 -285 -112t-112 -308t113 -309t285 -113t286 114q113 112 113 308zM1040 964
q0 -212 -130 -344t-336 -132t-334 130q-128 132 -129 344q0 212 131 345q132 133 336 133t333 -132t129 -344z" />
    <glyph glyph-name="macron" unicode="&#xaf;" 
d="M743 1161h-557v180h557v-180z" />
    <glyph glyph-name="degree" unicode="&#xb0;" horiz-adv-x="892" 
d="M637 1042q0 88 -54 146q-55 58 -137 59q-82 0 -136 -58q-54 -59 -54 -147t53 -143t137 -55t138 55q53 55 53 143zM799 1043q1 -153 -99 -251t-254 -98t-252 98t-100 252q0 152 100 252t252 100q154 0 254 -100t99 -253z" />
    <glyph glyph-name="plusminus" unicode="&#xb1;" horiz-adv-x="1226" 
d="M1182 295h-207v-295h-242v295h-672v182l617 918l235 -54l-583 -852h403v328l242 51v-379h207v-194z" />
    <glyph glyph-name="twosuperior" unicode="&#xb2;" horiz-adv-x="1024" 
d="M51 -410v2048h922v-2048h-922z" />
    <glyph glyph-name="threesuperior" unicode="&#xb3;" horiz-adv-x="1024" 
d="M51 -410v2048h922v-2048h-922z" />
    <glyph glyph-name="acute" unicode="&#xb4;" 
d="M705 1374l-287 -254h-162l152 310z" />
    <glyph glyph-name="mu" unicode="&#xb5;" horiz-adv-x="1171" 
d="M893 240l-309 315l-310 -313l-139 139l314 309l-316 309l146 146l309 -316l309 314l139 -139l-313 -310l315 -309z" />
    <glyph glyph-name="paragraph" unicode="&#xb6;" horiz-adv-x="1112" 
d="M956 0h-174v1245h-139v-315l-72 -430q-235 10 -367 123t-132 321t135 325q135 116 371 115h378v-1384z" />
    <glyph glyph-name="periodcentered" unicode="&#xb7;" horiz-adv-x="497" 
d="M383 438h-268v299h268v-299z" />
    <glyph glyph-name="cedilla" unicode="&#xb8;" 
d="M664 -154l-269 -219h-162l134 277z" />
    <glyph glyph-name="onesuperior" unicode="&#xb9;" horiz-adv-x="1024" 
d="M51 -410v2048h922v-2048h-922z" />
    <glyph glyph-name="ordmasculine" unicode="&#xba;" horiz-adv-x="804" 
d="M545 1055q0 88 -38 142t-106 54q-69 0 -105 -54t-36 -142q0 -87 37 -143t105 -56t106 56q37 56 37 143zM106 455v135h578l23 -135h-601zM402 1395q140 0 230 -92t89 -249q0 -157 -89 -248q-90 -91 -230 -91t-228 91t-88 248t88 249t228 92z" />
    <glyph glyph-name="guillemotright" unicode="&#xbb;" horiz-adv-x="1124" 
d="M614 494l-333 -494h-199l262 494l-250 473l178 37zM1065 494l-332 -494h-196l260 494l-250 473l178 37z" />
    <glyph glyph-name="onequarter" unicode="&#xbc;" horiz-adv-x="1024" 
d="M51 -410v2048h922v-2048h-922z" />
    <glyph glyph-name="onehalf" unicode="&#xbd;" horiz-adv-x="1024" 
d="M51 -410v2048h922v-2048h-922z" />
    <glyph glyph-name="threequarters" unicode="&#xbe;" horiz-adv-x="1024" 
d="M51 -410v2048h922v-2048h-922z" />
    <glyph glyph-name="questiondown" unicode="&#xbf;" horiz-adv-x="1048" 
d="M342 372q0 -81 55 -125t150 -44q195 0 395 155l35 -237q-205 -147 -457 -148q-202 1 -320 101t-118 270t100 272t312 177l12 141l149 33l25 -326l-64 -25q-154 -59 -214 -111t-60 -133zM457 1413h270v-299h-270v299z" />
    <glyph glyph-name="Agrave" unicode="&#xc0;" horiz-adv-x="1423" 
d="M797 1524h-162l-289 254l301 55zM899 580l-192 544l-193 -544h385zM1380 35l-270 -49l-135 372h-535l-129 -358h-268l530 1419h289z" />
    <glyph glyph-name="Aacute" unicode="&#xc1;" horiz-adv-x="1423" 
d="M899 580l-192 544l-193 -544h385zM1380 35l-270 -49l-135 372h-535l-129 -358h-268l530 1419h289zM1083 1778l-286 -254h-162l151 309z" />
    <glyph glyph-name="Acircumflex" unicode="&#xc2;" horiz-adv-x="1423" 
d="M1022 1526l-141 -29l-168 141l-162 -133h-156l205 295h229zM899 580l-192 544l-193 -544h385zM1380 35l-270 -49l-135 372h-535l-129 -358h-268l530 1419h289z" />
    <glyph glyph-name="Atilde" unicode="&#xc3;" horiz-adv-x="1423" 
d="M860 1528q-55 0 -150 45t-128 45q-45 0 -66 -98l-133 28q33 260 182 260q55 0 149 -46t130 -46q45 0 65 99l133 -29q-33 -258 -182 -258zM899 580l-192 544l-193 -544h385zM1380 35l-270 -49l-135 372h-535l-129 -358h-268l530 1419h289z" />
    <glyph glyph-name="Adieresis" unicode="&#xc4;" horiz-adv-x="1423" 
d="M637 1530h-236v235h236v-235zM1024 1530h-236v235h236v-235zM899 580l-192 544l-193 -544h385zM1380 35l-270 -49l-135 372h-535l-129 -358h-268l530 1419h289z" />
    <glyph glyph-name="Aring" unicode="&#xc5;" horiz-adv-x="1423" 
d="M823 1735q0 51 -30 86q-31 35 -80 35t-80 -36q-31 -34 -31 -85t31 -86t80 -35t80 35q30 35 30 86zM954 1734q0 -93 -65 -154q-67 -60 -177 -60t-176 60t-65 154q0 94 67 155q68 63 176 63t174 -62t66 -156zM899 580l-192 544l-193 -544h385zM1380 35l-270 -49l-135 372
h-535l-129 -358h-268l530 1419h289z" />
    <glyph glyph-name="AE" unicode="&#xc6;" horiz-adv-x="1830" 
d="M924 580v645l-336 -645h336zM1759 0h-835v358h-445l-192 -358h-283l754 1413h981v-229h-555v-332h428l37 -234h-465v-389h575v-229z" />
    <glyph glyph-name="Ccedilla" unicode="&#xc7;" horiz-adv-x="1280" 
d="M893 -166l-268 -219h-162l133 276zM764 -25q-307 0 -489 200q-181 200 -181 530q0 329 184 531t484 202q227 0 395 -103l-39 -256q-166 125 -348 125t-291 -133t-109 -364t113 -364q113 -132 296 -132t364 119l37 -234q-190 -121 -416 -121z" />
    <glyph glyph-name="Egrave" unicode="&#xc8;" horiz-adv-x="1060" 
d="M686 1524h-162l-288 254l301 55zM991 0h-841v1413h821v-229h-553v-332h426l37 -234h-463v-389h573v-229z" />
    <glyph glyph-name="Eacute" unicode="&#xc9;" horiz-adv-x="1060" 
d="M854 1778l-287 -254h-161l151 309zM991 0h-841v1413h821v-229h-553v-332h426l37 -234h-463v-389h573v-229z" />
    <glyph glyph-name="Ecircumflex" unicode="&#xca;" horiz-adv-x="1060" 
d="M860 1544l-141 -28l-168 141l-162 -133h-156l205 295h230zM991 0h-841v1413h821v-229h-553v-332h426l37 -234h-463v-389h573v-229z" />
    <glyph glyph-name="Edieresis" unicode="&#xcb;" horiz-adv-x="1060" 
d="M475 1530h-235v235h235v-235zM862 1530h-235v235h235v-235zM991 0h-841v1413h821v-229h-553v-332h426l37 -234h-463v-389h573v-229z" />
    <glyph glyph-name="Igrave" unicode="&#xcc;" horiz-adv-x="589" 
d="M385 1524h-162l-289 254l302 55zM432 0h-272v1413h272v-1413z" />
    <glyph glyph-name="Iacute" unicode="&#xcd;" horiz-adv-x="589" 
d="M432 0h-272v1413h272v-1413zM657 1778l-286 -254h-162l151 309z" />
    <glyph glyph-name="Icircumflex" unicode="&#xce;" horiz-adv-x="589" 
d="M606 1526l-141 -29l-168 141l-162 -133h-155l204 295h230zM432 0h-272v1413h272v-1413z" />
    <glyph glyph-name="Idieresis" unicode="&#xcf;" horiz-adv-x="589" 
d="M221 1530h-235v235h235v-235zM608 1530h-235v235h235v-235zM432 0h-272v1413h272v-1413z" />
    <glyph glyph-name="Eth" unicode="&#xd0;" horiz-adv-x="1499" 
d="M1128 704q0 242 -127 364t-346 122h-180v-344h305v-232h-305v-391h178q225 0 351 120q124 120 124 361zM1403 709q0 -321 -197 -515t-549 -194h-446v614h-143l-39 234h182v565h446q360 0 553 -191t193 -513z" />
    <glyph glyph-name="Ntilde" unicode="&#xd1;" horiz-adv-x="1441" 
d="M872 1497q-55 0 -150 45t-128 45q-45 0 -66 -98l-133 29q33 260 183 260q55 0 149 -46t129 -46q45 0 66 98l133 -29q-33 -258 -183 -258zM1292 0h-225l-666 973v-973h-251v1413h256l634 -926v926h252v-1413z" />
    <glyph glyph-name="Ograve" unicode="&#xd2;" horiz-adv-x="1515" 
d="M860 1542h-162l-288 254l301 55zM1147 707q-1 233 -105 370t-284 137t-284 -137t-103 -370q0 -233 103 -371q102 -138 284 -137q182 -1 286 137t103 371zM1421 709q0 -330 -181 -533t-482 -203t-483 202q-181 202 -181 531q0 330 182 532t484 202t482 -200
q179 -200 179 -531z" />
    <glyph glyph-name="Oacute" unicode="&#xd3;" horiz-adv-x="1515" 
d="M1147 707q-1 233 -105 370t-284 137t-284 -137t-103 -370q0 -233 103 -371q102 -138 284 -137q182 -1 286 137t103 371zM1421 709q0 -330 -181 -533t-482 -203t-483 202q-181 202 -181 531q0 330 182 532t484 202t482 -200q179 -200 179 -531zM1090 1796l-287 -254h-162
l152 309z" />
    <glyph glyph-name="Ocircumflex" unicode="&#xd4;" horiz-adv-x="1515" 
d="M1067 1554l-141 -28l-168 141l-162 -133h-156l205 295h229zM1147 707q-1 233 -105 370t-284 137t-284 -137t-103 -370q0 -233 103 -371q102 -138 284 -137q182 -1 286 137t103 371zM1421 709q0 -330 -181 -533t-482 -203t-483 202q-181 202 -181 531q0 330 182 532
t484 202t482 -200q179 -200 179 -531z" />
    <glyph glyph-name="Otilde" unicode="&#xd5;" horiz-adv-x="1515" 
d="M905 1552q-55 0 -150 45t-128 45q-45 0 -66 -98l-133 29q33 260 182 260q56 0 150 -46t129 -46q45 0 65 98l133 -29q-33 -258 -182 -258zM1147 707q-1 233 -105 370t-284 137t-284 -137t-103 -370q0 -233 103 -371q102 -138 284 -137q182 -1 286 137t103 371zM1421 709
q0 -330 -181 -533t-482 -203t-483 202q-181 202 -181 531q0 330 182 532t484 202t482 -200q179 -200 179 -531z" />
    <glyph glyph-name="Odieresis" unicode="&#xd6;" horiz-adv-x="1515" 
d="M682 1548h-236v236h236v-236zM1069 1548h-235v236h235v-236zM1147 707q-1 233 -105 370t-284 137t-284 -137t-103 -370q0 -233 103 -371q102 -138 284 -137q182 -1 286 137t103 371zM1421 709q0 -330 -181 -533t-482 -203t-483 202q-181 202 -181 531q0 330 182 532
t484 202t482 -200q179 -200 179 -531z" />
    <glyph glyph-name="multiply" unicode="&#xd7;" horiz-adv-x="1024" 
d="M51 -410v2048h922v-2048h-922z" />
    <glyph glyph-name="Oslash" unicode="&#xd8;" horiz-adv-x="1515" 
d="M1151 707q0 168 -55 284l-580 -710q100 -90 242 -91q182 0 288 140t105 377zM758 1223q-182 -1 -286 -141t-105 -375q0 -170 57 -285l577 711q-100 90 -243 90zM1421 690q0 -310 -182 -514q-182 -203 -481 -203q-223 0 -391 123l-97 -114l-190 41l162 198
q-148 195 -148 505t182 512t482 202q227 0 395 -123l94 115l191 -41l-162 -201q145 -190 145 -500z" />
    <glyph glyph-name="Ugrave" unicode="&#xd9;" horiz-adv-x="1409" 
d="M819 1485h-162l-288 254l301 55zM1276 553q0 -276 -157 -427t-418 -151t-413 150t-153 422v866h271v-852q0 -166 76 -258t222 -92q148 0 224 89t76 255v858h272v-860z" />
    <glyph glyph-name="Uacute" unicode="&#xda;" horiz-adv-x="1409" 
d="M1276 553q0 -276 -157 -427t-418 -151t-413 150t-153 422v866h271v-852q0 -166 76 -258t222 -92q148 0 224 89t76 255v858h272v-860zM1038 1739l-286 -254h-162l151 309z" />
    <glyph glyph-name="Ucircumflex" unicode="&#xdb;" horiz-adv-x="1409" 
d="M1014 1513l-142 -28l-167 141l-162 -133h-156l205 295h229zM1276 553q0 -276 -157 -427t-418 -151t-413 150t-153 422v866h271v-852q0 -166 76 -258t222 -92q148 0 224 89t76 255v858h272v-860z" />
    <glyph glyph-name="Udieresis" unicode="&#xdc;" horiz-adv-x="1409" 
d="M629 1499h-236v236h236v-236zM1016 1499h-236v236h236v-236zM1276 553q0 -276 -157 -427t-418 -151t-413 150t-153 422v866h271v-852q0 -166 76 -258t222 -92q148 0 224 89t76 255v858h272v-860z" />
    <glyph glyph-name="Yacute" unicode="&#xdd;" horiz-adv-x="1339" 
d="M1018 1729l-287 -254h-162l152 309zM799 0h-273v539l-493 843l282 45l359 -639l346 625h291l-512 -872v-541z" />
    <glyph glyph-name="Thorn" unicode="&#xde;" horiz-adv-x="1144" 
d="M815 729q0 223 -266 223h-129v-458h119q276 -1 276 235zM563 1169q244 1 381 -111t137 -329t-145 -335t-395 -118h-121v-276h-270v1413h270v-244h143z" />
    <glyph glyph-name="germandbls" unicode="&#xdf;" horiz-adv-x="1255" 
d="M825 174q138 0 138 132q0 68 -74 129q-74 62 -291 118l-27 174q147 203 148 369q0 82 -38 126t-108 44q-71 0 -109 -49t-38 -136v-1081h-246v788h-141v201h141v72q0 193 104 296t290 103t286 -92t101 -256q-1 -113 -47 -204t-136 -197q218 -61 318 -155t100 -251
q0 -155 -96 -239t-257 -84t-302 75l32 203q133 -86 252 -86z" />
    <glyph glyph-name="agrave" unicode="&#xe0;" horiz-adv-x="1030" 
d="M621 1120h-162l-289 254l301 56zM313 281q0 -53 32 -84t89 -31q126 0 232 106v222q-199 -25 -276 -79t-77 -134zM911 0h-211l-20 129q-141 -150 -330 -149q-127 0 -204 74t-76 200q0 176 144 264t452 119v29q0 147 -170 147q-150 0 -330 -80l-31 197q203 80 395 80
t287 -78q94 -78 94 -254v-678z" />
    <glyph glyph-name="aacute" unicode="&#xe1;" horiz-adv-x="1030" 
d="M844 1374l-287 -254h-162l152 310zM313 281q0 -53 32 -84t89 -31q126 0 232 106v222q-199 -25 -276 -79t-77 -134zM911 0h-211l-20 129q-141 -150 -330 -149q-127 0 -204 74t-76 200q0 176 144 264t452 119v29q0 147 -170 147q-150 0 -330 -80l-31 197q203 80 395 80
t287 -78q94 -78 94 -254v-678z" />
    <glyph glyph-name="acircumflex" unicode="&#xe2;" horiz-adv-x="1030" 
d="M819 1141l-141 -29l-168 141l-162 -133h-155l204 295h230zM313 281q0 -53 32 -84t89 -31q126 0 232 106v222q-199 -25 -276 -79t-77 -134zM911 0h-211l-20 129q-141 -150 -330 -149q-127 0 -204 74t-76 200q0 176 144 264t452 119v29q0 147 -170 147q-150 0 -330 -80
l-31 197q203 80 395 80t287 -78q94 -78 94 -254v-678z" />
    <glyph glyph-name="atilde" unicode="&#xe3;" horiz-adv-x="1030" 
d="M666 1124q-54 0 -150 45t-129 45q-45 0 -65 -98l-134 29q33 260 183 260q55 0 149 -46t129 -46q45 0 66 98l133 -29q-33 -258 -182 -258zM313 281q0 -53 32 -84t89 -31q126 0 232 106v222q-199 -25 -276 -79t-77 -134zM911 0h-211l-20 129q-141 -150 -330 -149
q-127 0 -204 74t-76 200q0 176 144 264t452 119v29q0 147 -170 147q-150 0 -330 -80l-31 197q203 80 395 80t287 -78q94 -78 94 -254v-678z" />
    <glyph glyph-name="adieresis" unicode="&#xe4;" horiz-adv-x="1030" 
d="M442 1126h-235v236h235v-236zM829 1126h-235v236h235v-236zM313 281q0 -53 32 -84t89 -31q126 0 232 106v222q-199 -25 -276 -79t-77 -134zM911 0h-211l-20 129q-141 -150 -330 -149q-127 0 -204 74t-76 200q0 176 144 264t452 119v29q0 147 -170 147q-150 0 -330 -80
l-31 197q203 80 395 80t287 -78q94 -78 94 -254v-678z" />
    <glyph glyph-name="aring" unicode="&#xe5;" horiz-adv-x="1030" 
d="M621 1331q0 51 -31 86t-80 35t-80 -35t-31 -86t31 -86t80 -35t80 35t31 86zM268 1330q0 94 67 156t175 62t176 -62q66 -62 66 -156q0 -93 -66 -153q-66 -61 -176 -61t-176 60t-66 154zM313 281q0 -53 32 -84t89 -31q126 0 232 106v222q-199 -25 -276 -79t-77 -134zM911 0
h-211l-20 129q-141 -150 -330 -149q-127 0 -204 74t-76 200q0 176 144 264t452 119v29q0 147 -170 147q-150 0 -330 -80l-31 197q203 80 395 80t287 -78q94 -78 94 -254v-678z" />
    <glyph glyph-name="ae" unicode="&#xe6;" horiz-adv-x="1607" 
d="M651 489v3q-338 -45 -338 -209q0 -55 36 -86t100 -31q120 0 235 106q-33 113 -33 217zM1100 840q-78 0 -131 -62t-68 -178h393q-25 240 -194 240zM1532 506q0 -45 -2 -60h-633q18 -276 266 -276q164 0 340 123l29 -193q-174 -120 -408 -120t-362 153q-174 -154 -375 -153
q-141 0 -229 70t-88 204q0 170 140 261t443 120v31q0 80 -38 114t-119 33q-150 0 -330 -80l-31 197q203 80 353 80t220 -32q71 -32 111 -104q109 136 305 136t302 -140t106 -364z" />
    <glyph glyph-name="ccedilla" unicode="&#xe7;" horiz-adv-x="942" 
d="M709 -166l-269 -219h-161l133 276zM532 -18q-200 0 -329 135t-129 377t135 379t327 137t324 -84l-35 -221q-123 92 -246 92t-191 -79t-66 -224q0 -145 71 -224q72 -78 198 -78t247 95l32 -209q-138 -96 -338 -96z" />
    <glyph glyph-name="egrave" unicode="&#xe8;" horiz-adv-x="1028" 
d="M612 1120h-161l-289 254l301 56zM518 840q-76 0 -129 -62t-67 -178h393q-25 240 -197 240zM584 170q164 0 340 123l28 -193q-174 -120 -394 -120t-352 129t-132 376t126 385t332 140q206 0 314 -140t108 -364l-2 -60h-635q18 -276 267 -276z" />
    <glyph glyph-name="eacute" unicode="&#xe9;" horiz-adv-x="1028" 
d="M860 1374l-287 -254h-161l151 310zM518 840q-76 0 -129 -62t-67 -178h393q-25 240 -197 240zM584 170q164 0 340 123l28 -193q-174 -120 -394 -120t-352 129t-132 376t126 385t332 140q206 0 314 -140t108 -364l-2 -60h-635q18 -276 267 -276z" />
    <glyph glyph-name="ecircumflex" unicode="&#xea;" horiz-adv-x="1028" 
d="M831 1141l-141 -29l-168 141l-162 -133h-155l205 295h229zM518 840q-76 0 -129 -62t-67 -178h393q-25 240 -197 240zM584 170q164 0 340 123l28 -193q-174 -120 -394 -120t-352 129t-132 376t126 385t332 140q206 0 314 -140t108 -364l-2 -60h-635q18 -276 267 -276z" />
    <glyph glyph-name="edieresis" unicode="&#xeb;" horiz-adv-x="1028" 
d="M446 1126h-235v236h235v-236zM834 1126h-236v236h236v-236zM518 840q-76 0 -129 -62t-67 -178h393q-25 240 -197 240zM584 170q164 0 340 123l28 -193q-174 -120 -394 -120t-352 129t-132 376t126 385t332 140q206 0 314 -140t108 -364l-2 -60h-635q18 -276 267 -276z
" />
    <glyph glyph-name="igrave" unicode="&#xec;" horiz-adv-x="516" 
d="M387 0h-246v989h246v-989zM352 1120h-143l-250 254l264 56z" />
    <glyph glyph-name="iacute" unicode="&#xed;" horiz-adv-x="516" 
d="M387 0h-246v989h246v-989zM567 1374l-250 -254h-139l127 310z" />
    <glyph glyph-name="icircumflex" unicode="&#xee;" horiz-adv-x="516" 
d="M387 0h-246v989h246v-989zM541 1141l-127 -29l-152 141l-145 -133h-142l187 295h205z" />
    <glyph glyph-name="idieresis" unicode="&#xef;" horiz-adv-x="516" 
d="M387 0h-246v989h246v-989zM197 1126h-207v236h207v-236zM530 1126h-208v236h208v-236z" />
    <glyph glyph-name="eth" unicode="&#xf0;" horiz-adv-x="1103" 
d="M549 735q-113 0 -173 -78q-60 -77 -60 -205t60 -203q62 -75 170 -75t174 112t66 306v41q-123 102 -237 102zM1024 625q0 -340 -174 -521q-123 -124 -323 -124q-201 0 -327 126t-126 338q0 214 114 350q115 136 285 136t297 -105q-31 180 -170 297l-61 -88h-172l114 168
q-92 49 -202 80l30 197q168 -41 293 -107l70 107l168 -33l-109 -154q293 -229 293 -667z" />
    <glyph glyph-name="ntilde" unicode="&#xf1;" horiz-adv-x="1089" 
d="M700 1124q-55 0 -150 45t-128 45q-45 0 -66 -98l-133 29q33 260 183 260q55 0 149 -46t129 -46q45 0 66 98l133 -29q-33 -258 -183 -258zM969 0h-246v647q0 145 -127 146q-106 0 -225 -125v-668h-246v989h209l22 -139q168 160 318 160t222 -79q73 -79 73 -218v-713z" />
    <glyph glyph-name="ograve" unicode="&#xf2;" horiz-adv-x="1079" 
d="M625 1120h-162l-289 254l301 56zM538 807q-108 0 -166 -86t-58 -226q0 -139 58 -227q60 -88 168 -88t167 86t59 226q0 141 -60 228t-168 87zM1006 494q0 -238 -132 -376t-336 -138q-206 0 -335 138t-129 376t130 376t336 140q206 0 336 -139t130 -377z" />
    <glyph glyph-name="oacute" unicode="&#xf3;" horiz-adv-x="1079" 
d="M538 807q-108 0 -166 -86t-58 -226q0 -139 58 -227q60 -88 168 -88t167 86t59 226q0 141 -60 228t-168 87zM1006 494q0 -238 -132 -376t-336 -138q-206 0 -335 138t-129 376t130 376t336 140q206 0 336 -139t130 -377zM899 1374l-287 -254h-161l151 310z" />
    <glyph glyph-name="ocircumflex" unicode="&#xf4;" horiz-adv-x="1079" 
d="M846 1141l-141 -29l-168 141l-162 -133h-156l205 295h229zM538 807q-108 0 -166 -86t-58 -226q0 -139 58 -227q60 -88 168 -88t167 86t59 226q0 141 -60 228t-168 87zM1006 494q0 -238 -132 -376t-336 -138q-206 0 -335 138t-129 376t130 376t336 140q206 0 336 -139
t130 -377z" />
    <glyph glyph-name="otilde" unicode="&#xf5;" horiz-adv-x="1079" 
d="M686 1124q-55 0 -150 45t-128 45q-45 0 -66 -98l-133 29q33 260 182 260q55 0 149 -46t130 -46q45 0 65 98l133 -29q-33 -258 -182 -258zM538 807q-108 0 -166 -86t-58 -226q0 -139 58 -227q60 -88 168 -88t167 86t59 226q0 141 -60 228t-168 87zM1006 494
q0 -238 -132 -376t-336 -138q-206 0 -335 138t-129 376t130 376t336 140q206 0 336 -139t130 -377z" />
    <glyph glyph-name="odieresis" unicode="&#xf6;" horiz-adv-x="1079" 
d="M461 1126h-236v236h236v-236zM848 1126h-236v236h236v-236zM538 807q-108 0 -166 -86t-58 -226q0 -139 58 -227q60 -88 168 -88t167 86t59 226q0 141 -60 228t-168 87zM1006 494q0 -238 -132 -376t-336 -138q-206 0 -335 138t-129 376t130 376t336 140q206 0 336 -139
t130 -377z" />
    <glyph glyph-name="divide" unicode="&#xf7;" horiz-adv-x="1171" 
d="M705 180h-238v244h238v-244zM1061 596h-950v192h950v-192zM705 961h-238v243h238v-243z" />
    <glyph glyph-name="oslash" unicode="&#xf8;" horiz-adv-x="1079" 
d="M539 172q111 0 172 88t61 234q0 91 -27 159l-342 -432q59 -49 136 -49zM526 817q-98 0 -158 -88t-61 -235q0 -88 25 -158l342 432q-50 49 -148 49zM541 -20q-150 0 -267 77l-59 -73l-158 34l115 140q-98 132 -98 352t130 360t333 140q154 0 268 -78l59 74l158 -35
l-113 -142q99 -135 99 -353t-132 -357t-335 -139z" />
    <glyph glyph-name="ugrave" unicode="&#xf9;" horiz-adv-x="1089" 
d="M631 1120h-162l-289 254l301 56zM965 0h-209l-23 139q-168 -160 -330 -159q-137 0 -209 78t-73 221v710h246v-647q0 -143 125 -143q109 0 227 123v667h246v-989z" />
    <glyph glyph-name="uacute" unicode="&#xfa;" horiz-adv-x="1089" 
d="M870 1374l-286 -254h-162l151 310zM965 0h-209l-23 139q-168 -160 -330 -159q-137 0 -209 78t-73 221v710h246v-647q0 -143 125 -143q109 0 227 123v667h246v-989z" />
    <glyph glyph-name="ucircumflex" unicode="&#xfb;" horiz-adv-x="1089" 
d="M854 1141l-141 -29l-168 141l-162 -133h-156l205 295h230zM965 0h-209l-23 139q-168 -160 -330 -159q-137 0 -209 78t-73 221v710h246v-647q0 -143 125 -143q109 0 227 123v667h246v-989z" />
    <glyph glyph-name="udieresis" unicode="&#xfc;" horiz-adv-x="1089" 
d="M471 1126h-235v236h235v-236zM858 1126h-235v236h235v-236zM965 0h-209l-23 139q-168 -160 -330 -159q-137 0 -209 78t-73 221v710h246v-647q0 -143 125 -143q109 0 227 123v667h246v-989z" />
    <glyph glyph-name="yacute" unicode="&#xfd;" horiz-adv-x="1015" 
d="M874 1356l-286 -254h-162l152 309zM219 -373q-53 0 -90 11l-33 202q57 -14 115 -14q115 0 160 104l22 66l-358 975l256 33l229 -705l221 690h244l-375 -1042q-63 -178 -153 -249t-238 -71z" />
    <glyph glyph-name="thorn" unicode="&#xfe;" horiz-adv-x="1107" 
d="M784 498q0 148 -52 222q-52 73 -138 73q-115 0 -223 -140v-424q88 -43 189 -43t163 82q61 82 61 230zM1032 510q0 -250 -124 -385t-308 -135q-127 0 -229 39v-373l-246 -37v1821l246 39v-611q133 142 293 142t264 -125t104 -375z" />
    <glyph glyph-name="ydieresis" unicode="&#xff;" horiz-adv-x="1015" 
d="M440 1126h-235v236h235v-236zM827 1126h-235v236h235v-236zM219 -373q-53 0 -90 11l-33 202q57 -14 115 -14q115 0 160 104l22 66l-358 975l256 33l229 -705l221 690h244l-375 -1042q-63 -178 -153 -249t-238 -71z" />
    <glyph glyph-name="dotlessi" unicode="&#x131;" horiz-adv-x="516" 
d="M387 0h-246v989h246v-989z" />
    <glyph glyph-name="Lslash" unicode="&#x141;" horiz-adv-x="1034" 
d="M211 0v598l-145 -35l-37 228l182 45v577h268v-508l303 74v-234l-303 -73v-432h471l39 -240h-778z" />
    <glyph glyph-name="lslash" unicode="&#x142;" horiz-adv-x="636" 
d="M440 0h-243v625l-146 -37l-37 223l183 43v586l243 39v-561l166 40v-229l-166 -43v-686z" />
    <glyph glyph-name="OE" unicode="&#x152;" horiz-adv-x="1822" 
d="M913 223v967h-65q-227 0 -351 -120t-124 -360t127 -363q127 -124 346 -124h67zM1751 0h-907q-360 0 -553 191t-193 513t196 516t550 193h887v-229h-551v-332h426l34 -234h-460v-389h571v-229z" />
    <glyph glyph-name="oe" unicode="&#x153;" horiz-adv-x="1722" 
d="M538 807q-108 0 -166 -86t-58 -226q0 -139 58 -227q60 -88 168 -88t167 86t59 226q0 141 -60 228t-168 87zM1212 840q-78 0 -131 -62t-67 -178h393q-25 240 -195 240zM1647 506q0 -31 -5 -60h-632q18 -276 266 -276q164 0 340 123l29 -193q-174 -121 -390 -120
q-256 0 -372 184q-121 -184 -353 -184q-200 0 -328 139t-128 376t129 375t332 140q242 0 352 -185q117 185 331 185t322 -140t107 -364z" />
    <glyph glyph-name="Scaron" unicode="&#x160;" horiz-adv-x="1091" 
d="M872 1837l-204 -295h-230l-192 275l141 28l168 -141l162 133h155zM1010 403q0 -201 -132 -311t-356 -108q-224 0 -432 98l41 248q213 -125 408 -125q96 0 153 45q58 45 58 125t-50 126q-50 47 -234 123q-185 76 -270 164t-85 259t127 277q128 106 332 106t370 -87
l-41 -245q-168 111 -334 110q-96 0 -145 -42t-49 -110t48 -110q48 -43 193 -104q222 -92 310 -184t88 -255z" />
    <glyph glyph-name="scaron" unicode="&#x161;" horiz-adv-x="927" 
d="M782 1415l-204 -295h-230l-192 275l141 28l168 -141l162 133h155zM858 285q0 -141 -103 -223t-304 -80q-201 0 -377 96l32 205q178 -117 352 -117t173 102q0 51 -41 80q-42 29 -194 67q-152 39 -229 105t-77 196t97 211t280 81t334 -70l-33 -205q-160 90 -305 90
t-146 -90q0 -41 38 -67t147 -54q200 -50 278 -118t78 -209z" />
    <glyph glyph-name="Ydieresis" unicode="&#x178;" horiz-adv-x="1339" 
d="M596 1499h-236v236h236v-236zM983 1499h-235v236h235v-236zM799 0h-273v539l-493 843l282 45l359 -639l346 625h291l-512 -872v-541z" />
    <glyph glyph-name="Zcaron" unicode="&#x17d;" horiz-adv-x="1247" 
d="M954 1819l-204 -295h-230l-192 274l141 29l168 -141l162 133h155zM90 0v199l731 991h-665l-35 223h1030v-199l-731 -991h715l34 -223h-1079z" />
    <glyph glyph-name="zcaron" unicode="&#x17e;" horiz-adv-x="942" 
d="M788 1415l-204 -295h-230l-192 275l141 28l168 -141l162 133h155zM66 0v188l491 605h-438l-33 196h768v-188l-494 -604h486l33 -197h-813z" />
    <glyph glyph-name="florin" unicode="&#x192;" horiz-adv-x="845" 
d="M664 1401q78 0 127 -6v-209q-74 6 -97 6q-70 0 -106 -35t-47 -115l-19 -110h191v-205h-224l-114 -727h-256l114 727h-147l31 205h147l25 151q27 172 115 245q89 73 260 73z" />
    <glyph glyph-name="circumflex" unicode="&#x2c6;" 
d="M774 1141l-141 -29l-168 141l-162 -133h-156l205 295h230z" />
    <glyph glyph-name="caron" unicode="&#x2c7;" 
d="M782 1415l-204 -295h-230l-192 275l141 28l168 -141l162 133h155z" />
    <glyph glyph-name="breve" unicode="&#x2d8;" 
d="M467 1120q-129 0 -204 75t-91 210l150 29q24 -140 144 -140t140 127h154q-12 -145 -88 -223t-205 -78z" />
    <glyph glyph-name="dotaccent" unicode="&#x2d9;" 
d="M586 1126h-242v236h242v-236z" />
    <glyph glyph-name="ring" unicode="&#x2da;" 
d="M575 1331q0 51 -30 86q-31 35 -80 35t-80 -35t-31 -86t31 -86t80 -35t80 35q30 35 30 86zM223 1330q0 94 67 156q68 62 176 62t174 -62t67 -156q0 -93 -66 -153q-67 -61 -177 -61t-176 60t-65 154z" />
    <glyph glyph-name="ogonek" unicode="&#x2db;" 
d="M696 -373h-161l-271 219l299 58z" />
    <glyph glyph-name="tilde" unicode="&#x2dc;" 
d="M612 1124q-55 0 -150 45t-128 45q-45 0 -66 -98l-133 29q33 260 182 260q55 0 149 -46t130 -46q45 0 66 98l133 -29q-33 -258 -183 -258z" />
    <glyph glyph-name="hungarumlaut" unicode="&#x2dd;" 
d="M489 1378l-278 -252h-137l147 304zM856 1378l-281 -252h-135l148 304z" />
    <glyph glyph-name="Delta" unicode="&#x394;" horiz-adv-x="1024" 
d="M51 -410v2048h922v-2048h-922z" />
    <glyph glyph-name="Omega" unicode="&#x3a9;" horiz-adv-x="1333" 
d="M426 1135v-146h188l31 -201h-219v-788h-244v788h-143v201h143v170q0 301 342 301q51 0 101 -8l32 -201q-49 8 -102 9q-129 0 -129 -125zM1094 1135v-146h188l33 -201h-221v-788h-244v788h-143v201h143v170q0 301 342 301q51 0 100 -8l33 -201q-49 8 -104 9
q-127 0 -127 -125z" />
    <glyph glyph-name="pi" unicode="&#x3c0;" horiz-adv-x="1636" 
d="M969 849q0 60 -37 92t-107 32h-71v-248h69q68 0 107 32t39 92zM840 1114q141 0 223 -68t82 -195q0 -126 -85 -197t-233 -70h-73v-277h-181v807h267zM1436 707q0 309 -174 484t-444 175t-444 -175q-173 -175 -173 -484t174 -485t444 -175q270 0 444 175q173 176 173 485z
M1526 709q0 -328 -198 -532t-512 -204t-510 202t-195 530q-1 327 197 531t512 204t510 -202t196 -529z" />
    <glyph glyph-name="endash" unicode="&#x2013;" 
d="M831 473h-733v229h733v-229z" />
    <glyph glyph-name="emdash" unicode="&#x2014;" horiz-adv-x="1859" 
d="M1761 475h-1663v225h1663v-225z" />
    <glyph glyph-name="quoteleft" unicode="&#x2018;" horiz-adv-x="497" 
d="M399 1397l-51 -529h-280l186 562z" />
    <glyph glyph-name="quoteright" unicode="&#x2019;" horiz-adv-x="497" 
d="M430 1413l-188 -561l-146 35l54 526h280z" />
    <glyph glyph-name="quotesinglbase" unicode="&#x201a;" horiz-adv-x="497" 
d="M416 299l-187 -561l-145 33l51 528h281z" />
    <glyph glyph-name="quotedblleft" unicode="&#x201c;" horiz-adv-x="911" 
d="M815 1397l-53 -529h-277l187 562zM397 1397l-51 -529h-278l186 562z" />
    <glyph glyph-name="quotedblright" unicode="&#x201d;" horiz-adv-x="911" 
d="M844 1413l-187 -561l-143 35l51 526h279zM426 1413l-186 -561l-144 35l54 526h276z" />
    <glyph glyph-name="quotedblbase" unicode="&#x201e;" horiz-adv-x="911" 
d="M831 299l-188 -561l-141 33l51 528h278zM414 299l-187 -561l-143 33l51 528h279z" />
    <glyph glyph-name="dagger" unicode="&#x2020;" horiz-adv-x="1036" 
d="M612 29l-63 -262h-64l-61 262v542l57 244h72l59 -244v-542zM86 791v208h72l278 -71v-68l-278 -69h-72zM948 791h-71l-277 69v68l277 71h71v-208zM410 1413h217v-162l-74 -276h-72l-71 276v162z" />
    <glyph glyph-name="daggerdbl" unicode="&#x2021;" horiz-adv-x="1073" 
d="M645 -373h-217v162l74 279h69l74 -279v-162zM104 47v201h74l277 -68v-67l-277 -66h-74zM967 47h-72l-277 66v67l277 68h72v-201zM637 471l-66 -244h-69l-66 244v100l66 244h69l66 -244v-100zM104 795v200h74l277 -67v-68l-277 -65h-74zM967 795h-72l-277 65v68l277 67h72
v-200zM428 1413h217v-162l-74 -276h-69l-74 276v162z" />
    <glyph glyph-name="bullet" unicode="&#x2022;" horiz-adv-x="923" 
d="M772 707l-43 -287l-266 -43l-264 43l-47 287l47 286l264 41l266 -41z" />
    <glyph glyph-name="ellipsis" unicode="&#x2026;" horiz-adv-x="1540" 
d="M393 0h-266v297h266v-297zM903 0h-266v297h266v-297zM1415 0h-266v297h266v-297z" />
    <glyph glyph-name="perthousand" unicode="&#x2030;" horiz-adv-x="1636" 
d="M801 983h-76v-246h74q143 0 143 123q0 57 -36 90t-105 33zM725 602v-285h-178v807h262q143 0 226 -68t83 -188q0 -162 -147 -225l217 -299l-189 -37l-206 295h-68zM1436 707q0 309 -174 484t-444 175t-444 -175q-173 -175 -173 -484t174 -485t444 -175q270 0 444 175
q173 176 173 485zM1526 709q0 -328 -198 -532t-512 -204t-510 202t-195 530q-1 327 197 531t512 204t510 -202t196 -529z" />
    <glyph glyph-name="guilsinglleft" unicode="&#x2039;" horiz-adv-x="671" 
d="M588 989l-260 -493l247 -471l-176 -39l-342 510l334 493h197z" />
    <glyph glyph-name="guilsinglright" unicode="&#x203a;" horiz-adv-x="671" 
d="M614 494l-333 -494h-199l262 494l-250 473l178 37z" />
    <glyph glyph-name="fraction" unicode="&#x2044;" horiz-adv-x="925" 
d="M1096 1569l-1100 -1790l-158 37l1100 1790z" />
    <glyph glyph-name="trademark" unicode="&#x2122;" horiz-adv-x="1648" 
d="M432 1282v-575h-158v575h-215v131h578l20 -131h-225zM1556 707h-159l-35 464l-166 -466h-135l-166 466l-37 -464h-141l53 706h197l174 -495l172 495h188z" />
    <glyph glyph-name="partialdiff" unicode="&#x2202;" horiz-adv-x="1533" 
d="M1149 711q-1 229 -105 366t-285 137t-285 -137t-105 -371q0 -234 104 -372t287 -137q150 0 246 90l-320 241l287 62l131 -105q45 91 45 226zM756 -23q-301 0 -482 200q-180 200 -180 529q0 330 181 532t485 202t481 -201q178 -201 178 -524q0 -223 -92 -396l133 -98
l-49 -250l-215 170q-180 -164 -440 -164z" />
    <glyph glyph-name="product" unicode="&#x220f;" horiz-adv-x="1024" 
d="M51 -410v2048h922v-2048h-922z" />
    <glyph glyph-name="summation" unicode="&#x2211;" horiz-adv-x="2078" 
d="M2034 1413l-484 -1419h-262l-252 696l-256 -696h-256l-479 1384l279 49l354 -1075l246 664l-127 364l278 50l355 -1078l329 1061h275z" />
    <glyph glyph-name="minus" unicode="&#x2212;" horiz-adv-x="1024" 
d="M51 -410v2048h922v-2048h-922z" />
    <glyph glyph-name="radical" unicode="&#x221a;" horiz-adv-x="1851" 
d="M426 1135v-146h188l31 -201h-219v-788h-244v788h-143v201h143v170q0 301 342 301q51 0 101 -8l32 -201q-49 8 -102 9q-129 0 -129 -125zM1094 1135v-146h188l33 -201h-221v-788h-244v788h-143v201h143v170q0 301 342 301q51 0 100 -8l33 -201q-49 8 -104 9
q-127 0 -127 -125zM1716 0h-246v1440l246 39v-1479z" />
    <glyph glyph-name="infinity" unicode="&#x221e;" horiz-adv-x="1030" 
d="M313 281q0 -53 32 -84t89 -31q126 0 232 106v222q-199 -25 -276 -79t-77 -134zM911 0h-211l-20 129q-141 -150 -330 -149q-127 0 -204 74t-76 200q0 176 144 264t452 119v29q0 147 -170 147q-150 0 -330 -80l-31 197q203 80 395 80t287 -78q94 -78 94 -254v-678z" />
    <glyph glyph-name="integral" unicode="&#x222b;" horiz-adv-x="1099" 
d="M573 801q-252 0 -251 -309q0 -133 52 -204t149 -71t206 127v428q-80 29 -156 29zM975 39q0 -199 -116 -305t-329 -106t-395 73l37 203q158 -84 328 -84q229 0 229 209v104q-133 -129 -289 -129t-261 122q-103 122 -103 366t132 377q132 132 351 132t416 -65v-897z" />
    <glyph glyph-name="approxequal" unicode="&#x2248;" horiz-adv-x="1851" 
d="M1716 0h-246v989h246v-989zM426 1135v-146h188l31 -201h-219v-788h-244v788h-143v201h143v170q0 301 342 301q51 0 101 -8l32 -201q-49 8 -102 9q-129 0 -129 -125zM1094 1135v-146h188l33 -201h-221v-788h-244v788h-143v201h143v170q0 301 342 301q51 0 100 -8l33 -201
q-49 8 -104 9q-127 0 -127 -125zM1737 1297q0 -60 -41 -99q-40 -39 -102 -39t-103 39t-41 99q0 61 41 101t102 40t103 -40q41 -41 41 -101z" />
    <glyph glyph-name="notequal" unicode="&#x2260;" horiz-adv-x="1083" 
d="M997 412q0 -199 -135 -319q-134 -120 -374 -120t-420 109l36 225q182 -115 375 -114q123 0 192 57t68 162q0 213 -336 213h-92l-28 170l366 372h-528l-35 217h881v-196l-385 -383q415 -47 415 -393z" />
    <glyph glyph-name="lessequal" unicode="&#x2264;" horiz-adv-x="1808" 
d="M1659 0h-256v1016l-397 -1022h-226l-397 1022v-1016h-233v1413h354l403 -1063l406 1063h346v-1413z" />
    <glyph glyph-name="greaterequal" unicode="&#x2265;" horiz-adv-x="1423" 
d="M141 444v969h271v-930q0 -262 237 -262q170 0 355 152v1040h272v-1413h-225l-25 145q-223 -161 -435 -161t-331 112t-119 348z" />
    <glyph glyph-name="lozenge" unicode="&#x25ca;" horiz-adv-x="1648" 
d="M598 899q0 -91 -66 -147t-178 -56q-111 0 -217 54l21 141q115 -70 202 -70q41 -1 68 19t27 55t-24 57t-111 60t-130 84t-43 131q0 86 66 141t170 55t184 -45l-20 -139q-99 59 -155 59q-104 0 -101 -63q-1 -33 21 -53t81 -47q115 -47 160 -95t45 -141zM1556 707h-159
l-35 464l-166 -466h-135l-166 466l-37 -464h-141l53 706h197l174 -495l172 495h188z" />
    <glyph glyph-name="apple" unicode="&#xf8ff;" horiz-adv-x="1421" 
d="M598 884q0 -92 68 -90q32 0 51 50h2l24 -49l23 16l-33 61q20 47 27 80l-27 6q-4 -18 -18 -61l-33 64q47 43 47 77q0 72 -55 72q-25 0 -41 -19q-17 -19 -17 -45t29 -79q-47 -37 -47 -83zM872 580q-31 0 -30 34q0 12 9 24t22 11q13 0 23 -11q10 -10 9 -24q1 -14 -9 -24
t-24 -10zM999 612h-24v35h22q20 0 21 -16q-1 -19 -19 -19zM664 823q-35 1 -35 47t30 76l41 -80q-12 -43 -36 -43zM645 1056q0 30 29 29q27 -1 27 -35t-31 -69q-25 45 -25 75zM494 662l30 -97h17l20 70h2l23 -70h16l29 97h-17l-20 -72h-2l-21 72h-16l-23 -72h-2l-20 72h-16z
M270 662v-95h17v66l51 -66h14v95h-16v-66l-51 66h-15zM395 662v-95h68v15h-51v26h45v15h-45v24h51v15h-68zM750 567h16v35l37 60h-19l-26 -46l-27 46h-18l37 -60v-35zM874 565q22 0 34 15q32 34 0 68q-14 16 -36 16q-20 0 -33 -16t-13 -34q0 -20 12 -34q14 -14 36 -15z
M1034 626q0 34 -33 36h-43v-95h17v31h24l21 -31h18l-24 35q20 6 20 24zM1071 662v-95h16v27l15 14l33 -41h18l-39 54l37 41h-21l-43 -50v50h-16zM985 799q63 0 64 73v281h-33v-281q0 -45 -33 -45q-20 0 -41 13v-33q16 -8 43 -8zM377 1153v-352h31v162h96v-162h31v352h-31
v-162h-96v162h-31zM819 1153v-352h31v160h78v28h-78v135h88v29h-119zM1319 -410h-426l-16 29h-334l-17 -29h-424v621q29 0 48 19q18 19 18 46q0 26 -20 46t-46 20v1135h205l62 161h684l59 -161h207v-1887z" />
    <glyph glyph-name="fi" unicode="&#xfb01;" horiz-adv-x="1185" 
d="M1049 0h-246v989h246v-989zM426 1135v-146h188l31 -201h-219v-788h-244v788h-143v201h143v170q0 301 342 301q51 0 101 -8l32 -201q-49 8 -102 9q-129 0 -129 -125zM782 1297q0 61 41 101t103 40t102 -40q41 -40 41 -101q0 -60 -41 -99t-102 -39t-103 39q-41 39 -41 99z
" />
    <glyph glyph-name="fl" unicode="&#xfb02;" horiz-adv-x="1185" 
d="M426 1135v-146h188l31 -201h-219v-788h-244v788h-143v201h143v170q0 301 342 301q51 0 101 -8l32 -201q-49 8 -102 9q-129 0 -129 -125zM1049 0h-246v1440l246 39v-1479z" />
    <glyph glyph-name="NUL" horiz-adv-x="0" 
 />
    </font>
</defs>
</svg>
