<?xml version="1.0" standalone="no"?>
<!DOCTYPE svg PUBLIC "-//W3C//DTD SVG 1.1//EN" "http://www.w3.org/Graphics/SVG/1.1/DTD/svg11.dtd" >
<svg xmlns="http://www.w3.org/2000/svg">
<metadata>
Created by FontPrep 20130207 at Mon Jan  5 16:01:27 2015
 By Adam Walzer
Copyright (C) 2004 Hoefler &#38; Frere-Jones Typography, Inc. www.typography.com
</metadata>
<defs>
<font id="45c56487efed5ac88e1aa3bad7dfef10" horiz-adv-x='1024' >
  <font-face 
    font-family="WhitneyHTF-BookItalicSC"
    font-weight="500"
    font-style="italic"
    font-stretch="normal"
    units-per-em="2048"
    panose-1="0 0 0 0 0 0 0 0 0 0"
    ascent="1638"
    descent="-410"
    x-height="1036"
    cap-height="1413"
    bbox="-195 -410 2269 1912"
    underline-thickness="40"
    underline-position="-252"
    slope="-12"
    unicode-range="U+0020-FB02"
  />
<missing-glyph horiz-adv-x="1024" 
 />
    <glyph glyph-name=".notdef" horiz-adv-x="1024" 
 />
    <glyph glyph-name=".null" horiz-adv-x="0" 
 />
    <glyph glyph-name="nonmarkingreturn" horiz-adv-x="681" 
 />
    <glyph glyph-name="space" unicode=" " horiz-adv-x="442" 
 />
    <glyph glyph-name="exclam" unicode="!" horiz-adv-x="536" 
d="M303 201l-33 -201h-157l30 201h160zM498 1413l-195 -1003l-96 -21l127 1024h164z" />
    <glyph glyph-name="quotedbl" unicode="&#x22;" horiz-adv-x="782" 
d="M444 1384l-104 -378l-74 18l15 360h163zM788 1384l-104 -378l-74 18l15 360h163z" />
    <glyph glyph-name="numbersign" unicode="#" horiz-adv-x="1112" 
d="M731 678h-287l-61 -318h287zM1049 776v-102h-211l-60 -312h213l17 -100h-250l-49 -260h-111l49 260h-280l-52 -272l-104 30l45 242h-190v100h208l62 312h-213l-21 102h250l51 258l64 -258h278l54 268l106 -24l-47 -244h191z" />
    <glyph glyph-name="dollar" unicode="$" horiz-adv-x="839" 
d="M610 276q0 78 -40 120t-121 81l-119 -383h32q117 0 183 51q65 53 65 131zM475 958q-98 0 -154 -47t-57 -118q0 -96 146 -168l102 331q-14 2 -37 2zM727 305q0 -147 -102 -228t-269 -81q-35 0 -53 2l-63 -209l-88 21l63 202q-113 25 -205 84l31 111q100 -70 207 -98
l125 401q-109 50 -165 110t-56 170t91 187q91 76 240 76q37 0 56 -2l41 127l84 -21l-39 -119q90 -20 166 -57l-35 -111q-88 53 -162 72l-111 -350q119 -53 181 -121t63 -166z" />
    <glyph glyph-name="percent" unicode="%" horiz-adv-x="1329" 
d="M469 788q0 92 -28 133q-28 40 -72 40q-68 0 -110 -81q-42 -82 -42 -174t28 -132t70 -39q68 1 111 81t43 172zM366 1042q204 0 203 -256q0 -126 -74 -230q-75 -103 -175 -103q-202 -1 -203 255q0 124 73 230q74 104 176 104zM981 72q68 0 110 80t42 172q0 172 -101 172
q-66 0 -108 -81t-43 -173q0 -170 100 -170zM780 244q0 126 74 230t175 104t153 -64t51 -191q0 -125 -74 -229t-175 -104q-204 0 -204 254zM1130 1018l-813 -1028l-98 22l815 1028z" />
    <glyph glyph-name="ampersand" unicode="&#x26;" horiz-adv-x="1024" 
d="M162 248q0 -74 50 -119t128 -45q151 0 270 141l-219 271q-229 -84 -229 -248zM33 233q0 227 297 342q-78 104 -78 211t81 187t215 80t255 -66l-41 -113q-127 72 -209 72t-128 -44t-46 -120t76 -172l225 -280q66 104 119 276l108 -26q-63 -199 -159 -338l178 -224
l-127 -28l-127 157q-152 -164 -348 -163q-131 0 -211 68t-80 181z" />
    <glyph glyph-name="quotesingle" unicode="'" horiz-adv-x="438" 
d="M444 1384l-104 -378l-74 18l15 360h163z" />
    <glyph glyph-name="parenleft" unicode="(" horiz-adv-x="593" 
d="M236 360q0 -130 49 -240t164 -237l-109 -24q-119 121 -178 235t-60 258q0 455 496 729l-4 -116q-358 -227 -358 -605z" />
    <glyph glyph-name="parenright" unicode=")" horiz-adv-x="593" 
d="M524 580q0 -455 -493 -727l6 110q356 231 356 608q0 131 -50 240t-165 238l115 26q115 -121 173 -235t58 -260z" />
    <glyph glyph-name="asterisk" unicode="*" horiz-adv-x="821" 
d="M813 1180l-240 -105l134 -229l-37 -25l-172 199l-176 -199l-35 25l131 229l-236 105l13 41l254 -54l24 258h47l25 -258l254 54z" />
    <glyph glyph-name="plus" unicode="+" horiz-adv-x="1167" 
d="M1047 461h-408l-64 -414h-118l65 414h-407l16 110h408l65 414h117l-64 -414h406z" />
    <glyph glyph-name="comma" unicode="," horiz-adv-x="438" 
d="M291 201l-271 -473l-69 18l176 455h164z" />
    <glyph glyph-name="hyphen" unicode="-" horiz-adv-x="737" 
d="M639 647l-18 -135h-496l16 135h498z" />
    <glyph glyph-name="period" unicode="." horiz-adv-x="438" 
d="M254 201l-33 -201h-160l33 201h160z" />
    <glyph glyph-name="slash" unicode="/" horiz-adv-x="821" 
d="M918 1098l-906 -1219l-121 23l906 1220z" />
    <glyph glyph-name="zero" unicode="0" horiz-adv-x="1071" 
d="M852 618q0 142 -72 232t-184 90q-162 0 -270 -155t-107 -369q0 -142 72 -230t184 -88q161 0 269 152t108 368zM985 627q0 -256 -148 -451t-368 -194q-172 0 -278 121q-105 122 -105 307q0 258 146 452t368 195q172 0 278 -123t107 -307z" />
    <glyph glyph-name="one" unicode="1" horiz-adv-x="618" 
d="M342 0h-131l145 915l-241 -94l-4 113l282 115h113z" />
    <glyph glyph-name="two" unicode="2" horiz-adv-x="913" 
d="M510 938q-156 0 -334 -119l-2 125q174 109 334 109t248 -71t88 -192t-96 -224t-248 -216l-310 -237h566l-2 -113h-752l16 109l420 327q122 95 177 151t72 98q17 41 17 103t-52 106q-54 44 -142 44z" />
    <glyph glyph-name="three" unicode="3" 
d="M770 98q0 -201 -190 -339t-465 -138q-82 0 -156 12v119q88 -16 166 -16q221 0 367 104q145 104 145 254q0 98 -74 154t-209 57q-43 0 -94 -10l-29 -6l-8 104l86 17q166 35 283 124t117 216q1 90 -61 140t-171 50q-170 0 -356 -123v125q180 111 352 111t270 -77
q99 -77 99 -212q0 -134 -93 -234t-231 -151q116 -25 184 -97t68 -184z" />
    <glyph glyph-name="four" unicode="4" horiz-adv-x="1114" 
d="M657 131l123 774l-608 -774h485zM985 20h-225l-60 -376l-125 -27l64 403h-637l16 95l742 938h162l-146 -922h225z" />
    <glyph glyph-name="five" unicode="5" horiz-adv-x="954" 
d="M811 156q0 -227 -200 -381t-484 -154q-92 0 -160 12v121q102 -16 172 -16q240 0 388 119t149 290q0 105 -67 165t-175 60t-227 -48l-103 28l136 682h649v-119h-555l-94 -469q102 39 211 39q160 -1 260 -85t100 -244z" />
    <glyph glyph-name="six" unicode="6" horiz-adv-x="1091" 
d="M866 464q0 286 -272 286q-136 0 -332 -123q-10 -72 -10 -133q0 -188 73 -296t209 -108t234 114q98 116 98 260zM997 492q0 -211 -140 -362q-141 -150 -331 -150t-298 132t-107 363q0 361 226 617t614 333v-125q-265 -57 -435 -203t-233 -352q188 115 349 115t258 -98
t97 -270z" />
    <glyph glyph-name="seven" unicode="7" horiz-adv-x="962" 
d="M137 915v121h819l-18 -100l-748 -1319l-120 31l725 1267h-658z" />
    <glyph glyph-name="eight" unicode="8" horiz-adv-x="1064" 
d="M821 364q0 112 -66 184q-67 73 -247 154q-305 -127 -305 -354q0 -114 86 -186t220 -72t223 81t89 193zM879 1096q0 100 -69 160q-70 60 -188 60t-190 -73q-72 -74 -72 -169t56 -162t205 -138q258 125 258 322zM954 385q0 -170 -130 -289t-326 -119q-196 1 -312 103
q-115 102 -114 258q0 262 329 420q-174 117 -174 299q0 153 115 261t289 108t276 -91q102 -90 103 -229q0 -233 -283 -383q117 -67 172 -147t55 -191z" />
    <glyph glyph-name="nine" unicode="9" horiz-adv-x="1091" 
d="M560 944q-136 0 -235 -119t-99 -265t68 -218t200 -72t329 115q14 74 15 160q0 187 -71 293t-207 106zM971 563q-1 -358 -231 -616t-617 -338v127q256 53 426 193t239 335q-193 -104 -346 -103t-252 99q-98 98 -98 270q0 215 142 370t333 155q191 1 297 -131t107 -361z
" />
    <glyph glyph-name="colon" unicode=":" horiz-adv-x="456" 
d="M264 201l-31 -201h-159l30 201h160zM383 969l-31 -199h-159l30 199h160z" />
    <glyph glyph-name="semicolon" unicode=";" horiz-adv-x="456" 
d="M281 201l-271 -473l-69 18l176 455h164zM393 969l-31 -199h-159l30 199h160z" />
    <glyph glyph-name="less" unicode="&#x3c;" horiz-adv-x="1167" 
d="M938 6l-823 457l16 106l971 457l-23 -137l-817 -377l696 -379z" />
    <glyph glyph-name="equal" unicode="=" horiz-adv-x="1236" 
d="M1034 229h-921l20 123h922zM1106 680h-922l21 123h921z" />
    <glyph glyph-name="greater" unicode="&#x3e;" horiz-adv-x="1167" 
d="M240 1026l823 -457l-16 -106l-971 -457l22 137l817 377l-698 379z" />
    <glyph glyph-name="question" unicode="?" horiz-adv-x="940" 
d="M453 201l-33 -201h-156l31 201h158zM807 1100q1 108 -63 162t-171 55q-168 0 -368 -133v135q183 121 367 121t279 -85t95 -239t-101 -257t-335 -204l-59 -245l-95 -21l33 342l49 21q199 80 284 160t85 188z" />
    <glyph glyph-name="at" unicode="@" horiz-adv-x="1697" 
d="M680 96q-80 0 -141 71t-62 193q0 238 138 395t321 156q119 0 252 -57l-74 -432q-10 -72 -10 -124t35 -88q35 -38 106 -38q117 0 197 124t80 341q0 276 -157 429t-427 153q-320 0 -540 -237t-220 -605q0 -297 160 -451t422 -154t454 99l11 -59q-197 -98 -483 -98t-462 172
q-175 173 -176 489q0 387 242 646t598 259q303 0 475 -173t172 -468q0 -246 -103 -394t-259 -149q-104 0 -169 54t-75 147q-90 -105 -157 -153q-68 -48 -148 -48zM924 809q-128 0 -226 -122t-98 -303t119 -181q53 0 115 49q61 49 159 170l64 360q-66 27 -133 27z" />
    <glyph glyph-name="A" unicode="A" horiz-adv-x="1314" 
d="M920 578l-136 665l-346 -665h482zM1176 16l-136 -30l-96 471h-567l-236 -457h-145l754 1421h124z" />
    <glyph glyph-name="B" unicode="B" horiz-adv-x="1077" 
d="M829 415q0 133 -86 201t-241 68h-156l-92 -567h207q170 0 269 83t99 215zM520 799q150 -1 249 77t99 192q0 228 -254 228h-172l-77 -497h155zM621 1413q183 -1 285 -83t102 -222t-74 -229q-74 -90 -195 -136q229 -92 229 -302q0 -209 -142 -325q-144 -116 -380 -116h-346
l226 1413h295z" />
    <glyph glyph-name="C" unicode="C" horiz-adv-x="1187" 
d="M268 584q0 -228 108 -356t293 -128t357 123v-139q-172 -109 -390 -109t-364 160q-145 160 -145 440q0 347 200 605t496 258q224 0 369 -125l-35 -144q-154 143 -340 144q-237 0 -393 -216t-156 -513z" />
    <glyph glyph-name="D" unicode="D" horiz-adv-x="1318" 
d="M1112 823q0 225 -119 347t-350 122h-199l-186 -1171h211q268 0 446 174q197 192 197 528zM1257 831q0 -379 -235 -610q-221 -221 -565 -221h-357l226 1413h333q287 0 443 -155t155 -427z" />
    <glyph glyph-name="E" unicode="E" horiz-adv-x="966" 
d="M797 801v-123h-451l-88 -557h571l-18 -121h-711l226 1413h690l-21 -121h-551l-77 -491h430z" />
    <glyph glyph-name="F" unicode="F" horiz-adv-x="913" 
d="M776 778v-123h-434l-102 -655h-140l226 1413h663l-20 -121h-525l-82 -514h414z" />
    <glyph glyph-name="G" unicode="G" horiz-adv-x="1304" 
d="M658 -25q-230 0 -382 165t-151 433q0 225 91 423t256 320q164 122 382 122t369 -121l-35 -143q-152 139 -376 139t-384 -217t-160 -514q0 -224 115 -354t289 -130t301 76l71 444h-333v123h489l-104 -641q-208 -125 -438 -125z" />
    <glyph glyph-name="H" unicode="H" horiz-adv-x="1349" 
d="M1317 1413l-223 -1413h-138l107 678h-717l-106 -678h-140l226 1413h137l-96 -612h716l97 612h137z" />
    <glyph glyph-name="I" unicode="I" horiz-adv-x="524" 
d="M477 1413l-225 -1413h-137l225 1413h137z" />
    <glyph glyph-name="J" unicode="J" horiz-adv-x="718" 
d="M694 1413l-166 -1053q-59 -373 -385 -372q-49 0 -147 16v129q82 -23 145 -22q104 0 167 59q62 59 85 197l164 1046h137z" />
    <glyph glyph-name="K" unicode="K" horiz-adv-x="1165" 
d="M1233 1413l-731 -663l551 -732l-144 -32l-555 743l-114 -729h-140l226 1413h137l-103 -643l699 643h174z" />
    <glyph glyph-name="L" unicode="L" horiz-adv-x="894" 
d="M764 0h-664l226 1413h137l-207 -1292h508v-121z" />
    <glyph glyph-name="M" unicode="M" horiz-adv-x="1763" 
d="M1653 1413l-113 -1413h-133l98 1206l-655 -1214h-96l-273 1214l-282 -1206h-127l336 1413h167l261 -1218l645 1218h172z" />
    <glyph glyph-name="N" unicode="N" horiz-adv-x="1347" 
d="M1317 1413l-225 -1413h-84l-590 1200l-189 -1200h-129l226 1413h131l555 -1132l178 1132h127z" />
    <glyph glyph-name="O" unicode="O" horiz-adv-x="1413" 
d="M1208 823q0 225 -107 361q-108 135 -292 135q-227 0 -383 -211t-156 -518q0 -224 108 -360t290 -136q227 0 384 210q156 210 156 519zM1352 827q0 -356 -201 -605t-489 -249q-250 0 -393 171q-142 171 -142 442q0 356 201 605t487 249q253 0 395 -172t142 -441z" />
    <glyph glyph-name="P" unicode="P" horiz-adv-x="1030" 
d="M895 1034q0 258 -307 258h-144l-90 -573h162q182 0 281 88q98 88 98 227zM590 1413q442 -1 442 -379q0 -190 -145 -314t-393 -124h-160l-94 -596h-140l226 1413h264z" />
    <glyph glyph-name="Q" unicode="Q" horiz-adv-x="1413" 
d="M1208 823q0 225 -107 361q-108 135 -292 135q-227 0 -383 -211t-156 -518q0 -226 108 -362t290 -136q227 0 384 211q156 211 156 520zM127 586q0 356 201 605t487 249q252 0 394 -171t143 -438q0 -313 -154 -542t-397 -291l368 -162l-36 -133l-619 283q-201 90 -294 231
t-93 369z" />
    <glyph glyph-name="R" unicode="R" horiz-adv-x="1105" 
d="M895 1055q0 238 -299 237h-152l-86 -549h162q176 0 276 85q99 86 99 227zM598 1413q204 0 320 -88t116 -257t-103 -282t-282 -145l346 -625l-141 -30l-356 639h-160l-98 -625h-140l226 1413h272z" />
    <glyph glyph-name="S" unicode="S" horiz-adv-x="1003" 
d="M356 1078q0 -91 52 -150t202 -147q150 -87 216 -177t67 -213q0 -186 -130 -298q-130 -111 -337 -111t-375 112l33 135q176 -129 365 -129q131 0 217 76t86 182t-46 164q-46 59 -198 150q-152 92 -220 174t-69 203q0 167 117 275q116 108 300 108t329 -89l-33 -135
q-152 104 -292 104t-212 -71q-72 -72 -72 -163z" />
    <glyph glyph-name="T" unicode="T" horiz-adv-x="1107" 
d="M1188 1292h-434l-203 -1292h-139l204 1292h-428l21 121h979v-121z" />
    <glyph glyph-name="U" unicode="U" horiz-adv-x="1347" 
d="M164 430q0 78 12 154l131 829h137l-133 -848q-10 -68 -10 -125q0 -162 88 -251t257 -89q170 0 274 106t135 308l143 899h137l-145 -924q-39 -247 -185 -379q-145 -132 -367 -132t-348 117q-126 118 -126 335z" />
    <glyph glyph-name="V" unicode="V" horiz-adv-x="1298" 
d="M1374 1413l-751 -1421h-111l-299 1405l137 30l248 -1237l629 1223h147z" />
    <glyph glyph-name="W" unicode="W" horiz-adv-x="2013" 
d="M2075 1413l-641 -1413h-111l-203 1208l-585 -1208h-111l-188 1397l143 30l143 -1196l563 1182h138l188 -1182l516 1182h148z" />
    <glyph glyph-name="X" unicode="X" horiz-adv-x="1222" 
d="M1255 1413l-530 -674l348 -721l-141 -30l-299 641l-486 -629h-157l588 741l-318 654l139 28l267 -573l432 563h157z" />
    <glyph glyph-name="Y" unicode="Y" horiz-adv-x="1206" 
d="M1298 1413l-610 -825l-92 -588h-137l92 586l-344 813l141 28l291 -716l504 702h155z" />
    <glyph glyph-name="Z" unicode="Z" horiz-adv-x="1171" 
d="M995 119v-119h-958l14 96l961 1198h-715v119h903l-14 -96l-959 -1198h768z" />
    <glyph glyph-name="bracketleft" unicode="[" horiz-adv-x="618" 
d="M446 -66v-90h-393l191 1192h385l-15 -90h-266l-162 -1012h260z" />
    <glyph glyph-name="backslash" unicode="\" horiz-adv-x="798" 
d="M88 1098l111 24l520 -1220l-115 -23z" />
    <glyph glyph-name="bracketright" unicode="]" horiz-adv-x="618" 
d="M174 946v90h393l-188 -1192h-387l14 90h268l160 1012h-260z" />
    <glyph glyph-name="asciicircum" unicode="^" horiz-adv-x="956" 
d="M848 1202l-72 -14l-170 174l-213 -168h-92l262 297h125z" />
    <glyph glyph-name="underscore" unicode="_" horiz-adv-x="944" 
d="M854 -106l-16 -109h-953l19 109h950z" />
    <glyph glyph-name="grave" unicode="`" 
d="M748 1194h-91l-237 272l176 39z" />
    <glyph glyph-name="a" unicode="a" horiz-adv-x="1062" 
d="M279 303l-158 -303h-139l563 1049h149l230 -1033l-127 -30l-68 317h-450zM705 420l-105 491h-2l-258 -491h365z" />
    <glyph glyph-name="b" unicode="b" horiz-adv-x="954" 
d="M705 322q0 166 -244 165h-172l-60 -372h199q125 -1 201 55t76 152zM733 782q0 139 -205 140h-172l-51 -324h182q111 0 179 50q67 50 67 134zM836 319q0 -147 -118 -233t-300 -86h-338l164 1036h288q158 0 244 -61t86 -165t-57 -169q-57 -66 -143 -98q174 -56 174 -224z
" />
    <glyph glyph-name="c" unicode="c" horiz-adv-x="960" 
d="M92 426q0 258 156 443t383 186q176 0 297 -92l-37 -129q-111 104 -271 104t-275 -150q-114 -150 -114 -333t81 -270t219 -87t274 86v-125q-131 -77 -305 -77t-291 118t-117 326z" />
    <glyph glyph-name="d" unicode="d" horiz-adv-x="1105" 
d="M874 594q0 158 -93 240t-263 81h-158l-124 -794h135q219 0 361 132t142 341zM1014 602q0 -260 -184 -431t-472 -171h-278l164 1036h282q231 0 360 -116q128 -117 128 -318z" />
    <glyph glyph-name="e" unicode="e" horiz-adv-x="882" 
d="M700 600v-121h-409l-58 -358h494l-18 -121h-631l166 1036h614l-18 -121h-482l-49 -315h391z" />
    <glyph glyph-name="f" unicode="f" horiz-adv-x="821" 
d="M674 584v-119h-385l-74 -465h-135l164 1036h587l-18 -121h-453l-53 -331h367z" />
    <glyph glyph-name="g" unicode="g" horiz-adv-x="1058" 
d="M512 -18q-186 0 -302 118t-116 328q0 258 157 442t396 185q188 0 316 -94l-37 -130q-127 107 -296 107t-283 -148t-114 -333t82 -273q83 -88 213 -88t230 58l45 280h-250v121h397l-73 -469q-178 -104 -365 -104z" />
    <glyph glyph-name="h" unicode="h" horiz-adv-x="1122" 
d="M1044 1036l-165 -1036h-136l76 479h-528l-78 -479h-135l166 1036h135l-70 -434h529l69 434h137z" />
    <glyph glyph-name="i" unicode="i" horiz-adv-x="479" 
d="M225 0h-135l164 1036h135z" />
    <glyph glyph-name="j" unicode="j" horiz-adv-x="614" 
d="M420 270q-41 -281 -316 -280q-78 0 -114 6v119q62 -9 126 -9t110 44t61 139l116 747h138z" />
    <glyph glyph-name="k" unicode="k" horiz-adv-x="960" 
d="M297 522l-84 -522h-135l166 1036h135l-76 -471l514 471h170l-545 -493l410 -525l-143 -30q-410 534 -412 534z" />
    <glyph glyph-name="l" unicode="l" horiz-adv-x="778" 
d="M629 0h-549l164 1036h135l-146 -917h396v-119z" />
    <glyph glyph-name="m" unicode="m" horiz-adv-x="1466" 
d="M1247 0h-135l74 887l-477 -893h-123l-203 893l-205 -887h-125l246 1036h178l193 -884l473 884h186z" />
    <glyph glyph-name="n" unicode="n" horiz-adv-x="1124" 
d="M881 0h-111l-434 844l-131 -844h-125l164 1036h133l416 -813l127 813h124z" />
    <glyph glyph-name="o" unicode="o" horiz-adv-x="1136" 
d="M911 602q0 162 -78 250q-79 88 -231 88t-264 -144t-113 -362q0 -162 81 -250q80 -88 230 -88t262 144t113 362zM1044 604q0 -264 -156 -443t-362 -179t-320 124t-114 326q0 264 155 444t363 179q208 0 320 -124q114 -124 114 -327z" />
    <glyph glyph-name="p" unicode="p" horiz-adv-x="886" 
d="M717 741q0 178 -228 179h-129l-63 -402h139q135 0 208 60t73 163zM500 1036q350 0 350 -294q0 -152 -116 -246t-312 -95h-143l-66 -401h-133l164 1036h256z" />
    <glyph glyph-name="q" unicode="q" horiz-adv-x="1138" 
d="M911 608q0 158 -78 245q-79 87 -231 87t-264 -144t-113 -362q0 -162 81 -251q80 -89 230 -89t262 146t113 368zM1044 595q0 -212 -108 -370t-281 -215l277 -108l-35 -119l-465 192q-110 45 -180 95t-115 142q-45 91 -45 220q0 266 156 444t362 179q206 0 320 -124
t114 -336z" />
    <glyph glyph-name="r" unicode="r" horiz-adv-x="960" 
d="M512 1036q166 0 260 -72t94 -199q0 -128 -80 -212t-206 -115l251 -420l-141 -30l-254 434h-155l-68 -422h-133l164 1036h268zM729 750q0 168 -225 168h-146l-61 -386h154q125 0 201 59t77 159z" />
    <glyph glyph-name="s" unicode="s" horiz-adv-x="864" 
d="M748 295q0 -131 -109 -220t-285 -89t-346 92l39 123q166 -98 336 -99q106 0 171 54q64 54 64 120t-41 107q-42 41 -172 97q-131 56 -193 118t-62 173q0 112 102 196t254 84t295 -76l-41 -125q-135 84 -277 84q-88 0 -146 -48t-58 -110t43 -99q42 -38 172 -94t192 -121
t62 -167z" />
    <glyph glyph-name="t" unicode="t" horiz-adv-x="907" 
d="M926 915h-344l-146 -915h-137l145 915h-338l19 121h801v-121z" />
    <glyph glyph-name="u" unicode="u" horiz-adv-x="1101" 
d="M496 -18q-171 0 -269 87t-98 240q0 53 10 115l97 612h135l-99 -616q-8 -61 -8 -101q0 -100 62 -160q62 -61 177 -61q117 0 191 76t97 217l102 645h137l-106 -657q-31 -195 -144 -296t-284 -101z" />
    <glyph glyph-name="v" unicode="v" horiz-adv-x="1038" 
d="M1065 1036l-573 -1052h-123l-234 1038l133 29l191 -897l461 882h145z" />
    <glyph glyph-name="w" unicode="w" horiz-adv-x="1544" 
d="M1556 1036l-471 -1042h-127l-133 868l-409 -868h-129l-140 1026l136 31l100 -877l403 864h134l129 -864l370 862h137z" />
    <glyph glyph-name="x" unicode="x" horiz-adv-x="987" 
d="M422 543l-248 477l133 31l203 -414l309 399h160l-406 -497l271 -523l-133 -28l-228 454l-348 -442h-158z" />
    <glyph glyph-name="y" unicode="y" horiz-adv-x="966" 
d="M1004 1036l-472 -616l-65 -420h-135l65 418l-270 604l135 29l217 -512l369 497h156z" />
    <glyph glyph-name="z" unicode="z" horiz-adv-x="942" 
d="M766 0h-764l14 96l736 826h-545v114h727l-16 -96l-734 -827h582v-113z" />
    <glyph glyph-name="braceleft" unicode="{" horiz-adv-x="720" 
d="M578 1036h149l-12 -88h-133q-133 0 -138 -139l-2 -141q-2 -106 -50 -158t-142 -74v-2q129 -27 129 -137q0 -43 -30 -149t-30 -138q0 -78 107 -78h121v-88h-160q-184 0 -184 150q0 43 29 147q30 104 30 146q0 111 -141 110h-41v86h59q92 0 139 45q46 45 46 150l4 137
q4 221 250 221z" />
    <glyph glyph-name="bar" unicode="|" horiz-adv-x="544" 
d="M334 -367l-123 -20v1847l123 21v-1848z" />
    <glyph glyph-name="braceright" unicode="}" horiz-adv-x="720" 
d="M344 580q0 40 30 148t29 140q0 78 -104 78h-119v90h158q184 0 184 -149q0 -43 -30 -151t-31 -146q0 -111 143 -111h39v-86h-57q-92 0 -137 -43t-48 -147l-4 -137q-4 -221 -252 -222h-149l14 88h131q137 0 138 140l2 141q2 105 50 155t142 70v2q-129 31 -129 140z" />
    <glyph glyph-name="asciitilde" unicode="~" horiz-adv-x="825" 
d="M553 463q-59 0 -144 52t-122 52q-47 0 -90 -108l-91 18q70 213 195 213q59 0 146 -53t120 -53q49 0 90 110l91 -20q-68 -211 -195 -211z" />
    <glyph glyph-name="nbspace" unicode="&#xa0;" horiz-adv-x="221" 
 />
    <glyph glyph-name="exclamdown" unicode="&#xa1;" horiz-adv-x="536" 
d="M399 1024l-125 -1024h-163l194 1004zM496 1413l-33 -201h-158l33 201h158z" />
    <glyph glyph-name="cent" unicode="&#xa2;" 
d="M592 913q-160 0 -262 -140q-102 -139 -102 -331t130 -270zM506 135q135 0 280 92v-112q-150 -90 -292 -90q-27 0 -76 8l-70 -226l-98 21l72 231q-102 47 -162 145t-62 230q0 240 146 415t364 175h17l69 219l99 -22q-66 -211 -68 -211q98 -25 172 -92l-39 -113
q-78 72 -168 96l-237 -762q16 -4 53 -4z" />
    <glyph glyph-name="sterling" unicode="&#xa3;" horiz-adv-x="907" 
d="M764 0h-719l14 94l172 367h-139l17 110h174l110 234q113 247 317 249q98 0 169 -22l-27 -108q-68 20 -136 20t-116 -39q-47 -39 -90 -129l-98 -205h286v-110h-338l-165 -352h569v-109z" />
    <glyph glyph-name="currency" unicode="&#xa4;" horiz-adv-x="1040" 
d="M706 1055q184 0 304 -101l-37 -123q-125 111 -263 111t-238 -104t-136 -267h430v-112h-447v-35q0 -156 78 -244t216 -88t276 92v-121q-139 -81 -310 -81t-283 116t-112 316l2 45h-135l19 112h131q43 209 182 347t323 137z" />
    <glyph glyph-name="yen" unicode="&#xa5;" horiz-adv-x="950" 
d="M776 449v-111h-264l-53 -338h-127l53 338h-258l16 111h236l-262 573l129 25l231 -523l387 512h144l-459 -587h227z" />
    <glyph glyph-name="brokenbar" unicode="&#xa6;" horiz-adv-x="1024" 
d="M51 -410v2048h922v-2048h-922z" />
    <glyph glyph-name="section" unicode="&#xa7;" horiz-adv-x="1054" 
d="M135 656q0 98 84 198l111 -31q-70 -86 -70 -164q0 -45 36 -75t132 -60l137 -41q129 -39 191 -92t61 -159q0 -106 -92 -178q-92 -70 -249 -70t-314 71l37 113q150 -78 299 -78q88 0 141 40t53 97t-42 89t-138 61l-129 39q-129 41 -189 92q-60 50 -59 148zM987 726
q0 -98 -86 -196l-108 31q68 84 67 164q0 45 -35 76t-131 59l-137 41q-129 39 -190 92t-61 160t91 177q92 70 247 71q155 0 317 -72l-37 -112q-152 78 -299 77q-91 0 -143 -40t-52 -97t41 -89t137 -60l131 -39q129 -41 189 -92q59 -53 59 -151z" />
    <glyph glyph-name="dieresis" unicode="&#xa8;" 
d="M492 1206h-170l30 183h168zM842 1206h-168l31 183h167z" />
    <glyph glyph-name="copyright" unicode="&#xa9;" horiz-adv-x="1650" 
d="M864 297q-152 0 -254 116t-102 300t103 301t268 116q125 0 241 -73l-18 -111q-112 84 -228 84t-187 -87t-71 -229t72 -230t189 -89q117 0 239 92l17 -104q-117 -86 -269 -86zM1493 707q0 305 -176 489t-461 184t-459 -184t-174 -489t177 -489t461 -185q284 1 458 185
t174 489zM859 1440q316 0 511 -204t195 -528q0 -325 -196 -530t-511 -205t-510 204q-194 204 -194 529q0 326 194 530t511 204z" />
    <glyph glyph-name="ordfeminine" unicode="&#xaa;" horiz-adv-x="751" 
d="M512 1307q-96 0 -223 -60v92q127 53 235 54q238 0 201 -222l-49 -278l-4 -158h-88l-4 99q-132 -111 -222 -111t-139 43t-49 117q0 233 446 264l7 29q20 131 -111 131zM276 889q0 -82 86 -82t218 115l24 151q-328 -27 -328 -184zM637 481h-522l14 97h508v-97z" />
    <glyph glyph-name="guillemotleft" unicode="&#xab;" horiz-adv-x="1069" 
d="M623 1008l-385 -516l221 -478l-107 -24l-268 512l418 506h121zM1038 1008l-383 -516l222 -478l-109 -24l-266 512l413 506h123z" />
    <glyph glyph-name="logicalnot" unicode="&#xac;" horiz-adv-x="1167" 
d="M1047 459h-932l16 114h932z" />
    <glyph glyph-name="registered" unicode="&#xae;" horiz-adv-x="1159" 
d="M641 991q113 0 113 89t-109 89h-67v-178h63zM580 930v-219h-76v528h143q84 0 133 -41t49 -113q0 -115 -112 -145l157 -217l-79 -18l-160 225h-55zM1065 956q0 193 -116 312q-116 118 -295 118t-294 -118q-114 -118 -114 -310q0 -194 114 -312t295 -118q180 0 295 118
t115 310zM190 957q0 210 130 343q130 134 336 134q204 0 333 -134t129 -343q0 -210 -129 -343t-335 -133t-335 133t-129 343z" />
    <glyph glyph-name="macron" unicode="&#xaf;" 
d="M842 1251h-506l18 123h506z" />
    <glyph glyph-name="degree" unicode="&#xb0;" horiz-adv-x="888" 
d="M741 1099q0 97 -61 163q-60 66 -154 66t-154 -66t-60 -163t60 -162t154 -65t155 65q60 65 60 162zM526 1423q138 0 232 -92t94 -232q0 -139 -92 -231t-234 -92t-233 91q-92 91 -92 231t93 233q93 92 232 92z" />
    <glyph glyph-name="plusminus" unicode="&#xb1;" horiz-adv-x="1114" 
d="M657 131l123 774l-608 -774h485zM985 20h-225l-60 -376l-125 -27l64 403h-637l16 95l742 938h162l-146 -922h225z" />
    <glyph glyph-name="twosuperior" unicode="&#xb2;" horiz-adv-x="1024" 
d="M51 -410v2048h922v-2048h-922z" />
    <glyph glyph-name="threesuperior" unicode="&#xb3;" horiz-adv-x="1024" 
d="M51 -410v2048h922v-2048h-922z" />
    <glyph glyph-name="acute" unicode="&#xb4;" 
d="M827 1466l-317 -272h-111l246 311z" />
    <glyph glyph-name="mu" unicode="&#xb5;" horiz-adv-x="1167" 
d="M866 94l-286 346l-398 -346l-71 84l399 342l-291 342l90 78l287 -346l397 346l72 -84l-399 -342l290 -342z" />
    <glyph glyph-name="paragraph" unicode="&#xb6;" horiz-adv-x="1046" 
d="M625 1036h331l-219 -1390l-121 -21l205 1309h-168l-47 -293l-121 -377q-176 8 -279 94t-104 244q0 194 140 314t383 120z" />
    <glyph glyph-name="periodcentered" unicode="&#xb7;" horiz-adv-x="438" 
d="M299 479h-160l31 201h160z" />
    <glyph glyph-name="cedilla" unicode="&#xb8;" 
d="M510 -143l-287 -236h-100l217 277z" />
    <glyph glyph-name="onesuperior" unicode="&#xb9;" horiz-adv-x="1024" 
d="M51 -410v2048h922v-2048h-922z" />
    <glyph glyph-name="ordmasculine" unicode="&#xba;" horiz-adv-x="770" 
d="M510 1305q-96 -1 -158 -93t-61 -200q0 -108 41 -153q41 -46 106 -46q96 0 158 91q61 90 61 198t-42 156t-105 47zM659 481h-542l16 97h526v-97zM502 1393q262 1 262 -289q0 -146 -96 -264t-224 -117q-260 0 -260 290q0 144 94 262t224 118z" />
    <glyph glyph-name="guillemotright" unicode="&#xbb;" horiz-adv-x="1069" 
d="M29 0l387 514l-221 477l106 25l268 -512l-417 -504h-123zM446 0l385 514l-221 477l109 25l266 -512l-416 -504h-123z" />
    <glyph glyph-name="onequarter" unicode="&#xbc;" horiz-adv-x="1024" 
d="M51 -410v2048h922v-2048h-922z" />
    <glyph glyph-name="onehalf" unicode="&#xbd;" horiz-adv-x="1024" 
d="M51 -410v2048h922v-2048h-922z" />
    <glyph glyph-name="threequarters" unicode="&#xbe;" horiz-adv-x="1024" 
d="M51 -410v2048h922v-2048h-922z" />
    <glyph glyph-name="questiondown" unicode="&#xbf;" horiz-adv-x="940" 
d="M557 1212l33 201h158l-31 -201h-160zM205 312q0 -108 62 -161q62 -54 169 -55q168 0 371 133v-135q-189 -121 -371 -121t-277 85t-95 238t102 257t334 205l59 246l94 20l-32 -342l-50 -20q-199 -80 -283 -161t-83 -189z" />
    <glyph glyph-name="Agrave" unicode="&#xc0;" horiz-adv-x="1314" 
d="M856 1522h-90l-238 272l177 39zM920 578l-136 665l-346 -665h482zM1176 16l-136 -30l-96 471h-567l-236 -457h-145l754 1421h124z" />
    <glyph glyph-name="Aacute" unicode="&#xc1;" horiz-adv-x="1314" 
d="M1192 1794l-318 -272h-110l246 311zM920 578l-136 665l-346 -665h482zM1176 16l-136 -30l-96 471h-567l-236 -457h-145l754 1421h124z" />
    <glyph glyph-name="Acircumflex" unicode="&#xc2;" horiz-adv-x="1314" 
d="M1087 1507l-69 -12l-170 174l-215 -168h-90l262 295h123zM920 578l-136 665l-346 -665h482zM1176 16l-136 -30l-96 471h-567l-236 -457h-145l754 1421h124z" />
    <glyph glyph-name="Atilde" unicode="&#xc3;" horiz-adv-x="1314" 
d="M967 1532q-53 0 -144 51q-86 55 -121 55q-49 0 -92 -110l-90 20q68 211 195 211q61 0 145 -52t121 -52q49 0 90 108l90 -18q-70 -213 -194 -213zM920 578l-136 665l-346 -665h482zM1176 16l-136 -30l-96 471h-567l-236 -457h-145l754 1421h124z" />
    <glyph glyph-name="Adieresis" unicode="&#xc4;" horiz-adv-x="1314" 
d="M731 1532h-170l31 182h168zM1081 1532h-168l31 182h168zM920 578l-136 665l-346 -665h482zM1176 16l-136 -30l-96 471h-567l-236 -457h-145l754 1421h124z" />
    <glyph glyph-name="Aring" unicode="&#xc5;" horiz-adv-x="1314" 
d="M963 1712q0 53 -33 89t-84 36t-85 -36t-34 -89t34 -88t85 -35t84 35t33 88zM1047 1711q1 -85 -57 -140t-144 -55t-144 55q-57 55 -57 140t57 143q58 58 144 58t144 -58t57 -143zM920 578l-136 665l-346 -665h482zM1176 16l-136 -30l-96 471h-567l-236 -457h-145l754 1421
h124z" />
    <glyph glyph-name="AE" unicode="&#xc6;" horiz-adv-x="1746" 
d="M1069 1313l-543 -733h428zM1556 801v-123h-450l-88 -557h571l-18 -121h-711l74 457h-500l-340 -457h-149l1052 1413h779l-21 -121h-553l-76 -491h430z" />
    <glyph glyph-name="Ccedilla" unicode="&#xc7;" horiz-adv-x="1187" 
d="M702 -143l-286 -236h-101l217 277zM268 584q0 -228 108 -356t293 -128t357 123v-139q-172 -109 -390 -109t-364 160q-145 160 -145 440q0 347 200 605t496 258q224 0 369 -125l-35 -144q-154 143 -340 144q-237 0 -393 -216t-156 -513z" />
    <glyph glyph-name="Egrave" unicode="&#xc8;" horiz-adv-x="966" 
d="M770 1520h-90l-238 272l176 39zM797 801v-123h-451l-88 -557h571l-18 -121h-711l226 1413h690l-21 -121h-551l-77 -491h430z" />
    <glyph glyph-name="Eacute" unicode="&#xc9;" horiz-adv-x="966" 
d="M991 1792l-317 -272h-111l246 311zM797 801v-123h-451l-88 -557h571l-18 -121h-711l226 1413h690l-21 -121h-551l-77 -491h430z" />
    <glyph glyph-name="Ecircumflex" unicode="&#xca;" horiz-adv-x="966" 
d="M946 1526l-69 -13l-170 175l-215 -168h-91l263 295h122zM797 801v-123h-451l-88 -557h571l-18 -121h-711l226 1413h690l-21 -121h-551l-77 -491h430z" />
    <glyph glyph-name="Edieresis" unicode="&#xcb;" horiz-adv-x="966" 
d="M590 1532h-170l31 182h167zM940 1532h-168l31 182h168zM797 801v-123h-451l-88 -557h571l-18 -121h-711l226 1413h690l-21 -121h-551l-77 -491h430z" />
    <glyph glyph-name="Igrave" unicode="&#xcc;" horiz-adv-x="522" 
d="M463 1520h-90l-238 272l176 39zM477 1413l-225 -1413h-137l225 1413h137z" />
    <glyph glyph-name="Iacute" unicode="&#xcd;" horiz-adv-x="522" 
d="M788 1792l-317 -272h-111l246 311zM477 1413l-225 -1413h-137l225 1413h137z" />
    <glyph glyph-name="Icircumflex" unicode="&#xce;" horiz-adv-x="522" 
d="M686 1507l-70 -12l-170 174l-215 -168h-90l262 295h123zM477 1413l-225 -1413h-137l225 1413h137z" />
    <glyph glyph-name="Idieresis" unicode="&#xcf;" horiz-adv-x="522" 
d="M330 1532h-170l30 182h168zM680 1532h-168l31 182h168zM477 1413l-225 -1413h-137l225 1413h137z" />
    <glyph glyph-name="Eth" unicode="&#xd0;" horiz-adv-x="1370" 
d="M1163 823q0 223 -119 346t-350 123h-198l-78 -489h350l-18 -125h-353l-90 -557h213q270 0 445 174q198 194 198 528zM1309 831q-1 -375 -229 -603t-574 -228h-354l108 678h-160v125h179l98 610h332q287 0 443 -155t157 -427z" />
    <glyph glyph-name="Ntilde" unicode="&#xd1;" horiz-adv-x="1347" 
d="M989 1511q-53 0 -143 52q-86 55 -121 55q-49 0 -92 -111l-90 21q68 211 194 211q61 0 145 -52t122 -53q49 0 90 109l90 -19q-70 -213 -195 -213zM1317 1413l-225 -1413h-84l-590 1200l-189 -1200h-129l226 1413h131l555 -1132l178 1132h127z" />
    <glyph glyph-name="Ograve" unicode="&#xd2;" horiz-adv-x="1413" 
d="M940 1538h-90l-238 272l176 39zM1208 823q0 225 -107 361q-108 135 -292 135q-227 0 -383 -211t-156 -518q0 -224 108 -360t290 -136q227 0 384 210q156 210 156 519zM1352 827q0 -356 -201 -605t-489 -249q-250 0 -393 171q-142 171 -142 442q0 356 201 605t487 249
q253 0 395 -172t142 -441z" />
    <glyph glyph-name="Oacute" unicode="&#xd3;" horiz-adv-x="1413" 
d="M1204 1810l-317 -272h-111l246 311zM1208 823q0 225 -107 361q-108 135 -292 135q-227 0 -383 -211t-156 -518q0 -224 108 -360t290 -136q227 0 384 210q156 210 156 519zM1352 827q0 -356 -201 -605t-489 -249q-250 0 -393 171q-142 171 -142 442q0 356 201 605t487 249
q253 0 395 -172t142 -441z" />
    <glyph glyph-name="Ocircumflex" unicode="&#xd4;" horiz-adv-x="1413" 
d="M1130 1536l-69 -12l-170 174l-215 -168h-90l262 295h123zM1208 823q0 225 -107 361q-108 135 -292 135q-227 0 -383 -211t-156 -518q0 -224 108 -360t290 -136q227 0 384 210q156 210 156 519zM1352 827q0 -356 -201 -605t-489 -249q-250 0 -393 171q-142 171 -142 442
q0 356 201 605t487 249q253 0 395 -172t142 -441z" />
    <glyph glyph-name="Otilde" unicode="&#xd5;" horiz-adv-x="1413" 
d="M1010 1559q-53 0 -144 51q-86 55 -121 55q-49 0 -92 -111l-90 21q68 211 195 211q61 0 145 -52t121 -53q49 0 90 109l90 -18q-70 -213 -194 -213zM1208 823q0 225 -107 361q-108 135 -292 135q-227 0 -383 -211t-156 -518q0 -224 108 -360t290 -136q227 0 384 210
q156 210 156 519zM1352 827q0 -356 -201 -605t-489 -249q-250 0 -393 171q-142 171 -142 442q0 356 201 605t487 249q253 0 395 -172t142 -441z" />
    <glyph glyph-name="Odieresis" unicode="&#xd6;" horiz-adv-x="1413" 
d="M776 1550h-170l31 183h168zM1126 1550h-168l31 183h168zM1208 823q0 225 -107 361q-108 135 -292 135q-227 0 -383 -211t-156 -518q0 -224 108 -360t290 -136q227 0 384 210q156 210 156 519zM1352 827q0 -356 -201 -605t-489 -249q-250 0 -393 171q-142 171 -142 442
q0 356 201 605t487 249q253 0 395 -172t142 -441z" />
    <glyph glyph-name="multiply" unicode="&#xd7;" horiz-adv-x="1024" 
d="M51 -410v2048h922v-2048h-922z" />
    <glyph glyph-name="Oslash" unicode="&#xd8;" horiz-adv-x="1413" 
d="M127 586q0 356 200 605t484 249q233 0 379 -150l123 140l123 -27l-181 -199q96 -156 97 -377q0 -356 -200 -605t-484 -249q-233 0 -377 148l-123 -137l-123 26l178 197q-96 156 -96 379zM805 1321q-223 0 -380 -212t-157 -523q1 -156 54 -273q117 137 292 332
q174 195 240 269t123 138q57 65 90 99l33 37q-109 133 -295 133zM672 92q225 0 382 212t156 523q0 154 -51 269l-778 -875q111 -129 291 -129z" />
    <glyph glyph-name="Ugrave" unicode="&#xd9;" horiz-adv-x="1347" 
d="M899 1491h-90l-238 272l177 39zM164 430q0 78 12 154l131 829h137l-133 -848q-10 -68 -10 -125q0 -162 88 -251t257 -89q170 0 274 106t135 308l143 899h137l-145 -924q-39 -247 -185 -379q-145 -132 -367 -132t-348 117q-126 118 -126 335z" />
    <glyph glyph-name="Uacute" unicode="&#xda;" horiz-adv-x="1347" 
d="M1128 1763l-319 -272h-111l246 311zM164 430q0 78 12 154l131 829h137l-133 -848q-10 -68 -10 -125q0 -162 88 -251t257 -89q170 0 274 106t135 308l143 899h137l-145 -924q-39 -247 -185 -379q-145 -132 -367 -132t-348 117q-126 118 -126 335z" />
    <glyph glyph-name="Ucircumflex" unicode="&#xdb;" horiz-adv-x="1347" 
d="M1085 1507l-69 -12l-170 174l-215 -168h-90l262 295h123zM164 430q0 78 12 154l131 829h137l-133 -848q-10 -68 -10 -125q0 -162 88 -251t257 -89q170 0 274 106t135 308l143 899h137l-145 -924q-39 -247 -185 -379q-145 -132 -367 -132t-348 117q-126 118 -126 335z" />
    <glyph glyph-name="Udieresis" unicode="&#xdc;" horiz-adv-x="1347" 
d="M745 1513h-170l31 183h168zM1096 1513h-168l30 183h168zM164 430q0 78 12 154l131 829h137l-133 -848q-10 -68 -10 -125q0 -162 88 -251t257 -89q170 0 274 106t135 308l143 899h137l-145 -924q-39 -247 -185 -379q-145 -132 -367 -132t-348 117q-126 118 -126 335z" />
    <glyph glyph-name="Yacute" unicode="&#xdd;" horiz-adv-x="1206" 
d="M1096 1755l-318 -272h-110l245 311zM1298 1413l-610 -825l-92 -588h-137l92 586l-344 813l141 28l291 -716l504 702h155z" />
    <glyph glyph-name="Thorn" unicode="&#xde;" horiz-adv-x="1038" 
d="M850 752q0 260 -307 260h-144l-92 -574h164q182 0 281 88q98 89 98 226zM547 1130q440 0 440 -376q0 -190 -146 -315q-146 -124 -395 -124h-157l-49 -315h-140l226 1413h137l-43 -283h127z" />
    <glyph glyph-name="germandbls" unicode="&#xdf;" horiz-adv-x="1728" 
d="M1612 295q0 -131 -109 -220t-285 -89t-346 92l39 123q166 -98 336 -99q106 0 171 54t65 120t-42 107t-172 97q-131 56 -193 118t-62 173q0 112 102 196t254 84t295 -76l-41 -125q-135 84 -276 84q-88 0 -146 -48t-59 -110q0 -62 43 -99q42 -38 172 -94t192 -121t62 -167z
M748 295q0 -131 -109 -220t-285 -89t-346 92l39 123q166 -98 336 -99q106 0 171 54q64 54 64 120t-41 107q-42 41 -172 97q-131 56 -193 118t-62 173q0 112 102 196t254 84t295 -76l-41 -125q-135 84 -277 84q-88 0 -146 -48t-58 -110t43 -99q42 -38 172 -94t192 -121
t62 -167z" />
    <glyph glyph-name="agrave" unicode="&#xe0;" horiz-adv-x="1062" 
d="M279 303l-158 -303h-139l563 1049h149l230 -1033l-127 -30l-68 317h-450zM705 420l-105 491h-2l-258 -491h365zM672 1194h-90l-238 272l176 39z" />
    <glyph glyph-name="aacute" unicode="&#xe1;" horiz-adv-x="1062" 
d="M279 303l-158 -303h-139l563 1049h149l230 -1033l-127 -30l-68 317h-450zM705 420l-105 491h-2l-258 -491h365zM1020 1466l-318 -272h-110l246 311z" />
    <glyph glyph-name="acircumflex" unicode="&#xe2;" horiz-adv-x="1062" 
d="M279 303l-158 -303h-139l563 1049h149l230 -1033l-127 -30l-68 317h-450zM705 420l-105 491h-2l-258 -491h365zM897 1200l-70 -12l-170 174l-215 -168h-90l262 295h123z" />
    <glyph glyph-name="atilde" unicode="&#xe3;" horiz-adv-x="1062" 
d="M279 303l-158 -303h-139l563 1049h149l230 -1033l-127 -30l-68 317h-450zM705 420l-105 491h-2l-258 -491h365zM788 1204q-53 0 -143 51q-86 55 -121 56q-49 0 -92 -111l-90 21q68 211 195 211q61 0 145 -52t121 -53q49 0 90 109l90 -19q-70 -213 -195 -213z" />
    <glyph glyph-name="adieresis" unicode="&#xe4;" horiz-adv-x="1062" 
d="M279 303l-158 -303h-139l563 1049h149l230 -1033l-127 -30l-68 317h-450zM705 420l-105 491h-2l-258 -491h365zM905 1206h-168l31 183h168zM555 1206h-170l31 183h168z" />
    <glyph glyph-name="aring" unicode="&#xe5;" horiz-adv-x="1062" 
d="M279 303l-158 -303h-139l563 1049h149l230 -1033l-127 -30l-68 317h-450zM705 420l-105 491h-2l-258 -491h365zM469 1385q0 85 57 143q58 58 144 59q86 -1 143 -59t57 -143t-57 -140t-143 -55t-144 55q-57 55 -57 140zM786 1386q0 53 -32 90q-33 36 -84 36t-85 -36
t-34 -90t34 -88t85 -34t84 34q32 35 32 88z" />
    <glyph glyph-name="ae" unicode="&#xe6;" horiz-adv-x="1439" 
d="M1257 600v-121h-409l-57 -358h493l-18 -121h-631l47 303h-365l-221 -303h-153l766 1036h706l-18 -121h-482l-49 -315h391zM700 418l82 526l-381 -526h299z" />
    <glyph glyph-name="ccedilla" unicode="&#xe7;" horiz-adv-x="960" 
d="M524 -143l-286 -236h-101l217 277zM92 426q0 258 156 443t383 186q176 0 297 -92l-37 -129q-111 104 -271 104t-275 -150q-114 -150 -114 -333t81 -270t219 -87t274 86v-125q-131 -77 -305 -77t-291 118t-117 326z" />
    <glyph glyph-name="egrave" unicode="&#xe8;" horiz-adv-x="882" 
d="M637 1194h-90l-238 272l176 39zM700 600v-121h-409l-58 -358h494l-18 -121h-631l166 1036h614l-18 -121h-482l-49 -315h391z" />
    <glyph glyph-name="eacute" unicode="&#xe9;" horiz-adv-x="882" 
d="M905 1466l-317 -272h-111l246 311zM700 600v-121h-409l-58 -358h494l-18 -121h-631l166 1036h614l-18 -121h-482l-49 -315h391z" />
    <glyph glyph-name="ecircumflex" unicode="&#xea;" horiz-adv-x="882" 
d="M840 1200l-70 -12l-170 174l-215 -168h-90l262 295h123zM700 600v-121h-409l-58 -358h494l-18 -121h-631l166 1036h614l-18 -121h-482l-49 -315h391z" />
    <glyph glyph-name="edieresis" unicode="&#xeb;" horiz-adv-x="882" 
d="M477 1206h-170l31 183h168zM827 1206h-168l31 183h168zM700 600v-121h-409l-58 -358h494l-18 -121h-631l166 1036h614l-18 -121h-482l-49 -315h391z" />
    <glyph glyph-name="igrave" unicode="&#xec;" horiz-adv-x="479" 
d="M383 1194h-90l-238 272l176 39zM225 0h-135l164 1036h135z" />
    <glyph glyph-name="iacute" unicode="&#xed;" horiz-adv-x="479" 
d="M723 1466l-317 -272h-111l246 311zM225 0h-135l164 1036h135z" />
    <glyph glyph-name="icircumflex" unicode="&#xee;" horiz-adv-x="479" 
d="M614 1200l-69 -12l-170 174l-215 -168h-90l262 295h123zM225 0h-135l164 1036h135z" />
    <glyph glyph-name="idieresis" unicode="&#xef;" horiz-adv-x="479" 
d="M260 1206h-170l31 183h168zM610 1206h-168l31 183h168zM225 0h-135l164 1036h135z" />
    <glyph glyph-name="eth" unicode="&#xf0;" horiz-adv-x="1169" 
d="M940 594q0 156 -94 239t-264 82h-158l-53 -329h227l-20 -123h-226l-55 -342h139q219 0 362 132q142 132 142 341zM1079 602q0 -260 -184 -431t-471 -171h-281l74 463h-162v123h183l69 450h285q231 0 359 -116t128 -318z" />
    <glyph glyph-name="ntilde" unicode="&#xf1;" horiz-adv-x="1124" 
d="M817 1204q-53 0 -143 51q-86 55 -121 56q-49 0 -92 -111l-90 21q68 211 194 211q61 0 145 -52t121 -53q49 0 91 109l90 -19q-70 -213 -195 -213zM881 0h-111l-434 844l-131 -844h-125l164 1036h133l416 -813l127 813h124z" />
    <glyph glyph-name="ograve" unicode="&#xf2;" horiz-adv-x="1136" 
d="M707 1194h-91l-237 272l176 39zM911 602q0 162 -78 250q-79 88 -231 88t-264 -144t-113 -362q0 -162 81 -250q80 -88 230 -88t262 144t113 362zM1044 604q0 -264 -156 -443t-362 -179t-320 124t-114 326q0 264 155 444t363 179q208 0 320 -124q114 -124 114 -327z" />
    <glyph glyph-name="oacute" unicode="&#xf3;" horiz-adv-x="1136" 
d="M1032 1466l-317 -272h-111l246 311zM911 602q0 162 -78 250q-79 88 -231 88t-264 -144t-113 -362q0 -162 81 -250q80 -88 230 -88t262 144t113 362zM1044 604q0 -264 -156 -443t-362 -179t-320 124t-114 326q0 264 155 444t363 179q208 0 320 -124q114 -124 114 -327z
" />
    <glyph glyph-name="ocircumflex" unicode="&#xf4;" horiz-adv-x="1136" 
d="M948 1200l-69 -12l-170 174l-215 -168h-91l263 295h122zM911 602q0 162 -78 250q-79 88 -231 88t-264 -144t-113 -362q0 -162 81 -250q80 -88 230 -88t262 144t113 362zM1044 604q0 -264 -156 -443t-362 -179t-320 124t-114 326q0 264 155 444t363 179q208 0 320 -124
q114 -124 114 -327z" />
    <glyph glyph-name="otilde" unicode="&#xf5;" horiz-adv-x="1136" 
d="M825 1204q-53 0 -143 51q-86 55 -121 56q-49 0 -92 -111l-90 21q68 211 194 211q61 0 145 -52t122 -53q49 0 90 109l90 -19q-70 -213 -195 -213zM911 602q0 162 -78 250q-79 88 -231 88t-264 -144t-113 -362q0 -162 81 -250q80 -88 230 -88t262 144t113 362zM1044 604
q0 -264 -156 -443t-362 -179t-320 124t-114 326q0 264 155 444t363 179q208 0 320 -124q114 -124 114 -327z" />
    <glyph glyph-name="odieresis" unicode="&#xf6;" horiz-adv-x="1136" 
d="M592 1206h-170l31 183h168zM942 1206h-168l31 183h168zM911 602q0 162 -78 250q-79 88 -231 88t-264 -144t-113 -362q0 -162 81 -250q80 -88 230 -88t262 144t113 362zM1044 604q0 -264 -156 -443t-362 -179t-320 124t-114 326q0 264 155 444t363 179q208 0 320 -124
q114 -124 114 -327z" />
    <glyph glyph-name="divide" unicode="&#xf7;" horiz-adv-x="1167" 
d="M594 47h-156l29 184h156zM1047 461h-932l16 110h932zM713 801h-158l29 184h157z" />
    <glyph glyph-name="oslash" unicode="&#xf8;" horiz-adv-x="1136" 
d="M92 432q0 264 155 444t369 179q184 0 297 -107l101 101l116 -25l-151 -158q66 -109 65 -262q0 -264 -156 -443t-370 -179q-182 0 -295 106l-98 -102l-111 26l146 154q-68 109 -68 266zM602 940q-152 0 -266 -145t-113 -363q0 -98 33 -176l573 604q-75 80 -227 80zM538 94
q148 0 262 146t113 364q1 100 -30 170l-142 -149q-143 -150 -286 -301l-144 -150q79 -80 227 -80z" />
    <glyph glyph-name="ugrave" unicode="&#xf9;" horiz-adv-x="1101" 
d="M709 1194h-91l-237 272l176 39zM496 -18q-171 0 -269 87t-98 240q0 53 10 115l97 612h135l-99 -616q-8 -61 -8 -101q0 -100 62 -160q62 -61 177 -61q117 0 191 76t97 217l102 645h137l-106 -657q-31 -195 -144 -296t-284 -101z" />
    <glyph glyph-name="uacute" unicode="&#xfa;" horiz-adv-x="1101" 
d="M993 1466l-317 -272h-111l246 311zM496 -18q-171 0 -269 87t-98 240q0 53 10 115l97 612h135l-99 -616q-8 -61 -8 -101q0 -100 62 -160q62 -61 177 -61q117 0 191 76t97 217l102 645h137l-106 -657q-31 -195 -144 -296t-284 -101z" />
    <glyph glyph-name="ucircumflex" unicode="&#xfb;" horiz-adv-x="1101" 
d="M922 1200l-70 -12l-170 174l-215 -168h-90l262 295h123zM496 -18q-171 0 -269 87t-98 240q0 53 10 115l97 612h135l-99 -616q-8 -61 -8 -101q0 -100 62 -160q62 -61 177 -61q117 0 191 76t97 217l102 645h137l-106 -657q-31 -195 -144 -296t-284 -101z" />
    <glyph glyph-name="udieresis" unicode="&#xfc;" horiz-adv-x="1101" 
d="M565 1206h-170l31 183h168zM915 1206h-167l30 183h168zM496 -18q-171 0 -269 87t-98 240q0 53 10 115l97 612h135l-99 -616q-8 -61 -8 -101q0 -100 62 -160q62 -61 177 -61q117 0 191 76t97 217l102 645h137l-106 -657q-31 -195 -144 -296t-284 -101z" />
    <glyph glyph-name="yacute" unicode="&#xfd;" horiz-adv-x="966" 
d="M940 1460l-317 -272h-111l246 311zM1004 1036l-472 -616l-65 -420h-135l65 418l-270 604l135 29l217 -512l369 497h156z" />
    <glyph glyph-name="thorn" unicode="&#xfe;" horiz-adv-x="899" 
d="M408 332q136 0 208 60t72 165q0 176 -227 176h-129l-64 -401h140zM471 850q350 0 350 -296q-1 -152 -115 -244q-114 -93 -313 -93h-145l-33 -217h-135l164 1036h135l-31 -186h123z" />
    <glyph glyph-name="ydieresis" unicode="&#xff;" horiz-adv-x="966" 
d="M502 1206h-170l30 183h168zM852 1206h-168l31 183h168zM1004 1036l-472 -616l-65 -420h-135l65 418l-270 604l135 29l217 -512l369 497h156z" />
    <glyph glyph-name="dotlessi" unicode="&#x131;" horiz-adv-x="479" 
d="M225 0h-135l164 1036h135z" />
    <glyph glyph-name="Lslash" unicode="&#x141;" horiz-adv-x="962" 
d="M834 0h-684l104 664l-164 -35l-2 121l186 38l99 625h137l-92 -596l338 72l-19 -125l-340 -72l-90 -567h527v-125z" />
    <glyph glyph-name="lslash" unicode="&#x142;" horiz-adv-x="839" 
d="M690 0h-549l70 444l-158 -32v118l178 37l74 469h135l-69 -440l307 66l-19 -123l-307 -66l-55 -354h393v-119z" />
    <glyph glyph-name="OE" unicode="&#x152;" horiz-adv-x="1728" 
d="M920 1292q-287 0 -465 -194t-179 -508q0 -225 119 -347t350 -122h138l186 1171h-149zM1559 801v-123h-451l-88 -557h571l-20 -121h-842q-287 0 -443 155t-155 427q0 369 225 600t578 231h842l-19 -121h-553l-76 -491h431z" />
    <glyph glyph-name="oe" unicode="&#x153;" horiz-adv-x="1454" 
d="M735 915q-221 0 -362 -132t-142 -341q-1 -158 93 -240t264 -81h84l125 794h-62zM1272 600v-121h-410l-57 -358h493l-18 -121h-700q-231 0 -360 117q-128 117 -128 317q0 260 183 431t473 171h682l-19 -121h-481l-49 -315h391z" />
    <glyph glyph-name="Scaron" unicode="&#x160;" horiz-adv-x="1003" 
d="M971 1833l-260 -295h-125l-160 285l72 16l170 -178l213 172h90zM356 1078q0 -91 52 -150t202 -147q150 -87 216 -177t67 -213q0 -186 -130 -298q-130 -111 -337 -111t-375 112l33 135q176 -129 365 -129q131 0 217 76t86 182t-46 164q-46 59 -198 150q-152 92 -220 174
t-69 203q0 167 117 275q116 108 300 108t329 -89l-33 -135q-152 104 -292 104t-212 -71q-72 -72 -72 -163z" />
    <glyph glyph-name="scaron" unicode="&#x161;" horiz-adv-x="864" 
d="M868 1489l-260 -295h-125l-159 285l71 16l170 -178l213 172h90zM748 295q0 -131 -109 -220t-285 -89t-346 92l39 123q166 -98 336 -99q106 0 171 54q64 54 64 120t-41 107q-42 41 -172 97q-131 56 -193 118t-62 173q0 112 102 196t254 84t295 -76l-41 -125
q-135 84 -277 84q-88 0 -146 -48t-58 -110t43 -99q42 -38 172 -94t192 -121t62 -167z" />
    <glyph glyph-name="Ydieresis" unicode="&#x178;" horiz-adv-x="1206" 
d="M668 1513h-170l30 183h168zM1018 1513h-168l31 183h168zM1298 1413l-610 -825l-92 -588h-137l92 586l-344 813l141 28l291 -716l504 702h155z" />
    <glyph glyph-name="Zcaron" unicode="&#x17d;" horiz-adv-x="1171" 
d="M1065 1815l-260 -295h-125l-160 284l72 17l170 -179l213 173h90zM995 119v-119h-958l14 96l961 1198h-715v119h903l-14 -96l-959 -1198h768z" />
    <glyph glyph-name="zcaron" unicode="&#x17e;" horiz-adv-x="942" 
d="M905 1489l-260 -295h-125l-160 285l72 16l170 -178l213 172h90zM766 0h-764l14 96l736 826h-545v114h727l-16 -96l-734 -827h582v-113z" />
    <glyph glyph-name="florin" unicode="&#x192;" horiz-adv-x="718" 
d="M575 934q-145 0 -172 -160l-30 -196h207v-117h-226l-123 -811l-135 -25l133 836h-143l18 117h142l35 200q23 145 96 211q74 66 211 66q14 0 82 -6v-125q-41 10 -95 10z" />
    <glyph glyph-name="circumflex" unicode="&#x2c6;" 
d="M846 1200l-70 -12l-170 174l-215 -168h-90l262 295h123z" />
    <glyph glyph-name="caron" unicode="&#x2c7;" 
d="M899 1489l-260 -295h-125l-160 285l72 16l170 -178l213 172h90z" />
    <glyph glyph-name="breve" unicode="&#x2d8;" 
d="M473 1495q4 -172 136 -172t173 166h105q-19 -141 -99 -217t-200 -76t-178 78q-59 78 -41 201z" />
    <glyph glyph-name="dotaccent" unicode="&#x2d9;" 
d="M668 1202h-172l28 182h172z" />
    <glyph glyph-name="ring" unicode="&#x2da;" 
d="M723 1386q0 54 -33 90t-84 36t-85 -36t-34 -90t34 -88t85 -34t84 34t33 88zM807 1385q0 -85 -57 -140q-58 -55 -144 -55t-143 55t-57 140t57 143t143 59q86 0 144 -58q57 -59 57 -144z" />
    <glyph glyph-name="ogonek" unicode="&#x2db;" 
d="M532 -379h-86l-213 236l175 41z" />
    <glyph glyph-name="tilde" unicode="&#x2dc;" 
d="M725 1204q-53 0 -143 51q-86 55 -121 56q-49 0 -92 -111l-90 21q68 211 194 211q61 0 145 -52t121 -53q49 0 90 109l91 -19q-70 -213 -195 -213z" />
    <glyph glyph-name="hungarumlaut" unicode="&#x2dd;" 
d="M633 1475l-316 -273h-92l244 309zM967 1475l-316 -273h-90l244 309z" />
    <glyph glyph-name="Delta" unicode="&#x394;" horiz-adv-x="1024" 
d="M51 -410v2048h922v-2048h-922z" />
    <glyph glyph-name="Omega" unicode="&#x3a9;" horiz-adv-x="1640" 
d="M1495 584v-119h-385l-74 -465h-135l164 1036h588l-19 -121h-452l-54 -331h367zM674 584v-119h-385l-74 -465h-135l164 1036h587l-18 -121h-453l-53 -331h367z" />
    <glyph glyph-name="pi" unicode="&#x3c0;" horiz-adv-x="1650" 
d="M1034 874q0 141 -168 142h-110v-283h106q172 0 172 141zM1143 875q0 -115 -78 -177t-209 -61h-100v-330h-107v805h221q127 0 200 -61t73 -176zM860 33q285 -1 458 183t173 490t-175 490t-460 184t-459 -184t-174 -489t176 -489t461 -185zM858 1440q315 0 510 -204
t195 -528q0 -325 -195 -530t-511 -205t-511 204q-194 204 -194 529q0 326 196 530t510 204z" />
    <glyph glyph-name="endash" unicode="&#x2013;" 
d="M817 514h-692l20 131h693z" />
    <glyph glyph-name="emdash" unicode="&#x2014;" horiz-adv-x="1867" 
d="M1751 516h-1626l20 129h1627z" />
    <glyph glyph-name="quoteleft" unicode="&#x2018;" horiz-adv-x="438" 
d="M178 969l232 456l71 -18l-139 -438h-164z" />
    <glyph glyph-name="quoteright" unicode="&#x2019;" horiz-adv-x="438" 
d="M483 1413l-231 -457l-72 19l139 438h164z" />
    <glyph glyph-name="quotesinglbase" unicode="&#x201a;" horiz-adv-x="438" 
d="M281 201l-232 -455l-72 16l140 439h164z" />
    <glyph glyph-name="quotedblleft" unicode="&#x201c;" horiz-adv-x="776" 
d="M516 969l232 456l71 -18l-139 -438h-164zM178 969l232 456l71 -18l-139 -438h-164z" />
    <glyph glyph-name="quotedblright" unicode="&#x201d;" horiz-adv-x="776" 
d="M821 1413l-231 -457l-72 19l139 438h164zM483 1413l-231 -457l-72 19l139 438h164z" />
    <glyph glyph-name="quotedblbase" unicode="&#x201e;" horiz-adv-x="776" 
d="M618 201l-231 -455l-72 16l140 439h163zM281 201l-232 -455l-72 16l140 439h164z" />
    <glyph glyph-name="dagger" unicode="&#x2020;" horiz-adv-x="1019" 
d="M377 -238v236l100 637l68 211h45v-211l-101 -637l-73 -236h-39zM508 885l-244 -37h-102l18 119h103l231 -39zM973 848h-103l-231 37l4 43l246 39h102zM563 969v227l33 217h121l-33 -211l-76 -233h-45z" />
    <glyph glyph-name="daggerdbl" unicode="&#x2021;" horiz-adv-x="1058" 
d="M483 66v-228l-30 -217h-121l33 211l75 234h43zM403 106l-243 -36h-103l19 118h102l234 -38zM868 70h-102l-234 36l9 44l245 38h101zM459 190v205l37 240l67 211h47v-205l-39 -240l-65 -211h-47zM526 885l-243 -37h-103l19 119h102l234 -39zM991 848h-102l-232 37l7 43
l245 39h101zM584 969v229l32 215h119l-33 -211l-73 -233h-45z" />
    <glyph glyph-name="bullet" unicode="&#x2022;" horiz-adv-x="827" 
d="M688 713l-35 -224l-204 -34l-203 34l-35 224l35 223l203 33l204 -33z" />
    <glyph glyph-name="ellipsis" unicode="&#x2026;" horiz-adv-x="1419" 
d="M240 0h-160l33 201h159zM713 0h-160l33 201h159zM1186 0h-160l33 201h160z" />
    <glyph glyph-name="perthousand" unicode="&#x2030;" horiz-adv-x="1650" 
d="M844 1024h-113v-285h103q82 0 128 38t46 106q0 69 -42 105t-122 36zM731 645v-330h-108v807h223q124 0 198 -63t74 -161q0 -182 -174 -236l250 -330l-117 -23l-246 336h-100zM1493 707q0 305 -176 489t-460 184t-458 -184t-174 -489t176 -489t460 -185q284 1 458 185
t174 489zM859 1440q316 0 511 -204t195 -528q0 -325 -196 -530t-511 -205t-511 204q-195 204 -195 529q0 326 196 530t511 204z" />
    <glyph glyph-name="guilsinglleft" unicode="&#x2039;" horiz-adv-x="653" 
d="M623 1008l-385 -516l221 -478l-107 -24l-268 512l418 506h121z" />
    <glyph glyph-name="guilsinglright" unicode="&#x203a;" horiz-adv-x="653" 
d="M29 -2l387 514l-221 479l106 23l268 -512l-417 -504h-123z" />
    <glyph glyph-name="fraction" unicode="&#x2044;" horiz-adv-x="817" 
d="M1010 1200l-1090 -1401l-115 27l1090 1401z" />
    <glyph glyph-name="trademark" unicode="&#x2122;" horiz-adv-x="1640" 
d="M494 1325v-618h-97v618h-223v88h528l15 -88h-223zM1604 707h-97l-41 542l-219 -544h-78l-217 544l-43 -542h-92l53 706h115l225 -579l226 579h112z" />
    <glyph glyph-name="partialdiff" unicode="&#x2202;" horiz-adv-x="1146" 
d="M92 432q0 264 155 444t363 179q208 0 321 -124q114 -124 113 -327q0 -246 -135 -420l101 -86l-45 -118q-9 8 -23 20t-44 39t-50 43l-21 16q-139 -116 -323 -116t-298 124t-114 326zM911 586q0 354 -309 354q-152 0 -264 -144t-113 -362q0 -162 81 -250t208 -88t223 80
l-219 191l152 28l147 -129q94 142 94 320z" />
    <glyph glyph-name="product" unicode="&#x220f;" horiz-adv-x="1024" 
d="M51 -410v2048h922v-2048h-922z" />
    <glyph glyph-name="summation" unicode="&#x2211;" horiz-adv-x="1527" 
d="M770 565l-303 -571h-123l-209 1030l137 25l166 -885q18 37 96 184t158 301l43 82l-61 289l137 27l170 -883l430 872h143l-536 -1042h-125z" />
    <glyph glyph-name="minus" unicode="&#x2212;" horiz-adv-x="1024" 
d="M51 -410v2048h922v-2048h-922z" />
    <glyph glyph-name="radical" unicode="&#x221a;" horiz-adv-x="2418" 
d="M2269 0h-549l164 1036h135l-145 -917h395v-119zM1495 584v-119h-385l-74 -465h-135l164 1036h588l-19 -121h-452l-54 -331h367zM674 584v-119h-385l-74 -465h-135l164 1036h587l-18 -121h-453l-53 -331h367z" />
    <glyph glyph-name="infinity" unicode="&#x221e;" horiz-adv-x="1062" 
d="M279 303l-158 -303h-139l563 1049h149l230 -1033l-127 -30l-68 317h-450zM705 420l-105 491h-2l-258 -491h365z" />
    <glyph glyph-name="integral" unicode="&#x222b;" horiz-adv-x="1058" 
d="M512 -18q-186 0 -302 118t-116 328q0 258 157 442t396 185q188 0 316 -94l-37 -130q-127 107 -296 107t-283 -148t-114 -333t82 -273q83 -88 213 -88t230 58l45 280h-250v121h397l-73 -469q-178 -104 -365 -104z" />
    <glyph glyph-name="approxequal" unicode="&#x2248;" horiz-adv-x="2119" 
d="M1866 0h-135l163 1036h136zM1495 584v-119h-385l-74 -465h-135l164 1036h588l-19 -121h-452l-54 -331h367zM674 584v-119h-385l-74 -465h-135l164 1036h587l-18 -121h-453l-53 -331h367z" />
    <glyph glyph-name="notequal" unicode="&#x2260;" horiz-adv-x="952" 
d="M778 119q0 -209 -196 -353t-465 -145q-104 0 -174 12v121q102 -18 182 -18q217 0 369 110t151 271q0 98 -71 149t-171 51t-145 -10l-33 -6l-8 96l518 514h-598v123h791l-15 -98l-524 -518q14 4 45 4q160 -2 252 -85t92 -218z" />
    <glyph glyph-name="lessequal" unicode="&#x2264;" horiz-adv-x="1404" 
d="M1161 0h-125l135 860l-497 -864h-115l-223 862l-135 -858h-121l164 1036h170l227 -895l508 895h176z" />
    <glyph glyph-name="greaterequal" unicode="&#x2265;" horiz-adv-x="1093" 
d="M739 0v119q-190 -131 -350 -131q-121 0 -197 68t-75 188q0 39 12 131l104 661h136l-107 -665q-8 -57 -8 -120t44 -104t126 -41q150 0 324 138l126 792h136l-164 -1036h-107z" />
    <glyph glyph-name="lozenge" unicode="&#x25ca;" horiz-adv-x="1640" 
d="M473 1339q-67 1 -99 -25t-32 -69t29 -71t119 -66q90 -39 134 -86t44 -133q0 -85 -65 -139t-168 -54t-191 49l10 95q98 -60 172 -60t112 29t38 79t-29 80t-121 70t-132 81q-42 42 -42 122t60 131t154 51t169 -41l-17 -92q-78 49 -145 49zM1604 707h-97l-41 542l-219 -544
h-78l-217 544l-43 -542h-92l53 706h115l225 -579l226 579h112z" />
    <glyph glyph-name="apple" unicode="&#xf8ff;" horiz-adv-x="1421" 
d="M598 884q0 -92 68 -90q32 0 51 50h2l24 -49l23 16l-33 61q20 47 27 80l-27 6q-4 -18 -18 -61l-33 64q47 43 47 77q0 72 -55 72q-25 0 -41 -19q-17 -19 -17 -45t29 -79q-47 -37 -47 -83zM872 580q-31 0 -30 34q0 12 9 24t22 11q13 0 23 -11q10 -10 9 -24q1 -14 -9 -24
t-24 -10zM999 612h-24v35h22q20 0 21 -16q-1 -19 -19 -19zM664 823q-35 1 -35 47t30 76l41 -80q-12 -43 -36 -43zM645 1056q0 30 29 29q27 -1 27 -35t-31 -69q-25 45 -25 75zM494 662l30 -97h17l20 70h2l23 -70h16l29 97h-17l-20 -72h-2l-21 72h-16l-23 -72h-2l-20 72h-16z
M270 662v-95h17v66l51 -66h14v95h-16v-66l-51 66h-15zM395 662v-95h68v15h-51v26h45v15h-45v24h51v15h-68zM750 567h16v35l37 60h-19l-26 -46l-27 46h-18l37 -60v-35zM874 565q22 0 34 15q32 34 0 68q-14 16 -36 16q-20 0 -33 -16t-13 -34q0 -20 12 -34q14 -14 36 -15z
M1034 626q0 34 -33 36h-43v-95h17v31h24l21 -31h18l-24 35q20 6 20 24zM1071 662v-95h16v27l15 14l33 -41h18l-39 54l37 41h-21l-43 -50v50h-16zM985 799q63 0 64 73v281h-33v-281q0 -45 -33 -45q-20 0 -41 13v-33q16 -8 43 -8zM377 1153v-352h31v162h96v-162h31v352h-31
v-162h-96v162h-31zM819 1153v-352h31v160h78v28h-78v135h88v29h-119zM1319 -410h-426l-16 29h-334l-17 -29h-424v621q29 0 48 19q18 19 18 46q0 26 -20 46t-46 20v1135h205l62 161h684l59 -161h207v-1887z" />
    <glyph glyph-name="fi" unicode="&#xfb01;" horiz-adv-x="1298" 
d="M1047 0h-136l164 1036h135zM674 584v-119h-385l-74 -465h-135l164 1036h587l-18 -121h-453l-53 -331h367z" />
    <glyph glyph-name="fl" unicode="&#xfb02;" horiz-adv-x="1599" 
d="M1450 0h-549l164 1036h135l-145 -917h395v-119zM674 584v-119h-385l-74 -465h-135l164 1036h587l-18 -121h-453l-53 -331h367z" />
    <glyph glyph-name="NUL" horiz-adv-x="0" 
 />
    </font>
</defs>
</svg>
